<svg width="169" height="48" viewBox="0 0 169 48" fill="none" xmlns="http://www.w3.org/2000/svg">
<path d="M134.142 14.504L140.394 9.83203H119.459V37.8212H140.394V33.1454H125.439V26.0016H138.221V21.3296H125.439V14.504H134.142Z" fill="#21A038"/>
<path d="M103.642 20.732H96.3898V14.504H107.992L114.247 9.83203H90.4102V37.8212H102.87C109.851 37.8212 113.883 34.6121 113.883 29.0244C113.883 23.6656 110.258 20.732 103.642 20.732ZM102.645 33.1454H96.3898V25.404H102.645C106.452 25.404 108.217 26.6884 108.217 29.2999C108.217 31.9114 106.316 33.1454 102.645 33.1454Z" fill="#21A038"/>
<path d="M157.342 9.83203H145.969V37.8212H151.948V29.8936H157.389C164.637 29.8936 169.17 26.0481 169.17 19.8628C169.17 13.6775 164.637 9.83203 157.342 9.83203ZM157.206 25.2216H151.906V14.504H157.206C161.06 14.504 163.143 16.4287 163.143 19.8628C163.143 23.297 161.06 25.2216 157.206 25.2216Z" fill="#21A038"/>
<path d="M80.1664 31.7712C78.5832 32.6443 76.8138 33.1022 75.0016 33.1022C69.6079 33.1022 65.712 29.2063 65.712 23.8475C65.712 18.4887 69.6079 14.5928 75.0016 14.5928C76.9496 14.5501 78.8549 15.1903 80.438 16.335L84.7453 13.1299L84.4736 12.8543C81.9824 10.6076 78.6259 9.46289 74.8193 9.46289C70.6983 9.46289 66.9343 10.8831 64.2181 13.448C61.4979 16.1061 59.9574 19.8157 60.0466 23.6651C60.0001 27.5571 61.4979 31.3133 64.2181 34.0606C67.0701 36.7652 70.8768 38.2786 74.7766 38.1855C79.0799 38.1855 82.84 36.6721 85.3778 33.9248L81.5284 31.0378L80.1664 31.7712Z" fill="#21A038"/>
<path d="M41.33 9.64941C42.4165 11.0696 43.3245 12.6257 44.0928 14.2748L23.1582 29.8934L14.3652 24.3056V17.6197L23.1116 23.1609L41.33 9.64941Z" fill="#21A038"/>
<path d="M5.43732 23.848C5.43732 23.5259 5.43732 23.2543 5.48388 22.9322L0.183283 22.6567C0.183283 23.0254 0.136719 23.4367 0.136719 23.8015C0.136719 30.2157 2.72105 36.0324 6.88858 40.2465L10.6487 36.4437C7.43183 33.2385 5.43732 28.7955 5.43732 23.848Z" fill="url(#paint0_linear_65_16)"/>
<path d="M23.1125 5.98234C23.4307 5.98234 23.7024 5.98234 24.0206 6.02891L24.2922 0.670099C23.9274 0.670099 23.52 0.623535 23.1591 0.623535C16.8147 0.623535 11.0601 3.23503 6.88867 7.44912L10.6488 11.2519C13.8229 8.00014 18.2621 5.98234 23.1125 5.98234Z" fill="url(#paint1_linear_65_16)"/>
<path d="M23.1132 41.7129C22.795 41.7129 22.5234 41.7129 22.2052 41.6664L21.9336 47.0252C22.2983 47.0252 22.7058 47.0717 23.0667 47.0717C29.4111 47.0717 35.1696 44.4602 39.3371 40.2461L35.577 36.4434C32.4029 39.7417 28.0064 41.7129 23.1132 41.7129Z" fill="url(#paint2_linear_65_16)"/>
<path d="M33.082 9.09847L37.5677 5.75358C33.6252 2.54838 28.5963 0.577148 23.1133 0.577148V5.93596C26.8307 5.98252 30.2726 7.12723 33.082 9.09847Z" fill="url(#paint3_linear_65_16)"/>
<path d="M46.1347 23.8477C46.1347 22.4275 45.9988 21.0538 45.7699 19.6802L40.8302 23.3898C40.8302 23.5256 40.8302 23.7119 40.8302 23.8477C40.8302 29.1173 38.564 33.8358 34.9863 37.0876L38.564 41.0727C43.1895 36.8586 46.1347 30.6733 46.1347 23.8477Z" fill="#21A038"/>
<path d="M23.113 41.713C17.9016 41.713 13.2335 39.4236 10.0167 35.8032L6.07422 39.4236C10.2883 44.1422 16.3611 47.0718 23.113 47.0718V41.713Z" fill="url(#paint4_linear_65_16)"/>
<path d="M11.2851 10.6077L7.70346 6.62256C3.03536 10.8832 0.136719 17.022 0.136719 23.8476H5.43732C5.43732 18.6246 7.70346 13.8633 11.2851 10.6077Z" fill="url(#paint5_linear_65_16)"/>
<defs>
<linearGradient id="paint0_linear_65_16" x1="6.32333" y1="39.595" x2="0.8794" y2="23.7875" gradientUnits="userSpaceOnUse">
<stop offset="0.1444" stop-color="#F2E913"/>
<stop offset="0.3037" stop-color="#E7E518"/>
<stop offset="0.5823" stop-color="#CADB26"/>
<stop offset="0.891" stop-color="#A3CD39"/>
</linearGradient>
<linearGradient id="paint1_linear_65_16" x1="8.40059" y1="6.84418" x2="22.1555" y2="1.57866" gradientUnits="userSpaceOnUse">
<stop offset="0.0592" stop-color="#0FA8E0"/>
<stop offset="0.5385" stop-color="#0099F9"/>
<stop offset="0.9234" stop-color="#0291EB"/>
</linearGradient>
<linearGradient id="paint2_linear_65_16" x1="21.6239" y1="42.5139" x2="38.0138" y2="38.793" gradientUnits="userSpaceOnUse">
<stop offset="0.1226" stop-color="#A3CD39"/>
<stop offset="0.2846" stop-color="#86C339"/>
<stop offset="0.8693" stop-color="#21A038"/>
</linearGradient>
<linearGradient id="paint3_linear_65_16" x1="22.0241" y1="3.99165" x2="35.6544" y2="8.2163" gradientUnits="userSpaceOnUse">
<stop offset="0.0566" stop-color="#0291EB"/>
<stop offset="0.79" stop-color="#0C8ACB"/>
</linearGradient>
<linearGradient id="paint4_linear_65_16" x1="7.42208" y1="40.2714" x2="22.0658" y2="45.7677" gradientUnits="userSpaceOnUse">
<stop offset="0.1324" stop-color="#F2E913"/>
<stop offset="0.2977" stop-color="#EBE716"/>
<stop offset="0.5306" stop-color="#D9E01F"/>
<stop offset="0.8023" stop-color="#BBD62D"/>
<stop offset="0.9829" stop-color="#A3CD39"/>
</linearGradient>
<linearGradient id="paint5_linear_65_16" x1="4.19945" y1="24.4951" x2="10.0841" y2="9.1177" gradientUnits="userSpaceOnUse">
<stop offset="0.0698" stop-color="#A3CD39"/>
<stop offset="0.2599" stop-color="#81C55F"/>
<stop offset="0.9216" stop-color="#0FA8E0"/>
</linearGradient>
</defs>
</svg>
