<svg width="114" height="41" viewBox="0 0 114 41" fill="none" xmlns="http://www.w3.org/2000/svg">
<path fill-rule="evenodd" clip-rule="evenodd" d="M7.74538 0L5.80782 5.32144H32.658L34.5955 0H7.74538ZM4.83844 7.98095L2.90089 13.3012H29.751L31.6886 7.98095H4.83844ZM1.93755 15.9619L0 21.2821H26.8502L28.7865 15.9619H1.93755Z" fill="#009FDF"/>
<mask id="mask0_65_30" style="mask-type:luminance" maskUnits="userSpaceOnUse" x="40" y="8" width="74" height="33">
<path d="M40.2842 40.6807H113.783V8.0835H40.2842V40.6807Z" fill="white"/>
</mask>
<g mask="url(#mask0_65_30)">
<path fill-rule="evenodd" clip-rule="evenodd" d="M57.0821 23.3102V23.4225C58.3092 23.8741 59.4813 24.6638 60.0954 25.1709C61.9928 26.7502 62.8304 28.8366 62.8304 31.5436C62.8304 36.0002 60.4861 39.2144 56.6352 40.2298C55.4631 40.5679 54.2361 40.6814 51.9468 40.6814H40.2842V8.0835H50.6086C52.7294 8.0835 54.1799 8.19577 55.4631 8.53385C59.2029 9.54929 61.6583 12.144 61.6583 16.2601C61.6583 18.46 60.8768 20.3219 59.5936 21.5619C59.0356 22.1258 58.2542 22.8031 57.0821 23.3102ZM46.7577 26.7502V35.3229H51.2227C52.5609 35.3229 53.7892 35.2106 54.6829 34.3642C55.5754 33.5178 55.9662 32.4468 55.9662 31.0365C55.9662 29.9655 55.6866 28.9501 55.1286 28.2172C54.1799 27.0327 53.0078 26.7502 50.9993 26.7502H46.7577ZM46.7015 21.1103H50.329C51.445 21.1103 52.0029 21.1103 52.5609 20.9413C54.0688 20.4897 55.0175 19.1374 55.0175 17.2756C55.0175 15.0769 54.0126 14.1169 52.5609 13.6666C51.9468 13.4976 51.3338 13.4408 50.1056 13.4408H46.7015V21.1103ZM72.5407 40.6814V13.5531H63.2211V8.0835H89.1164L87.2752 13.5531H79.0142V40.6814H72.5407ZM91.1248 40.6814V8.0835H112.109L110.268 13.5531H97.5434V20.7722H102.734C106.919 20.7722 109.096 21.7877 110.603 23.0845C111.775 24.0999 113.783 26.3553 113.783 30.812C113.783 35.2106 111.719 37.6351 109.989 38.8763C107.98 40.2853 105.859 40.6814 101.562 40.6814H91.1248ZM97.5434 35.2106H102.399C104.24 35.2106 105.356 34.759 106.138 33.7435C106.528 33.2364 107.086 32.3333 107.086 30.6417C107.086 28.9501 106.528 27.7656 105.412 26.9192C104.743 26.4121 103.85 26.1308 102.343 26.1308H97.5434V35.2106Z" fill="#0A2973"/>
</g>
</svg>
