<svg width="203" height="44" viewBox="0 0 203 44" fill="none" xmlns="http://www.w3.org/2000/svg">
<path d="M190.732 17.5371H194.905V12.76H198.763V17.5371H202.937V5.59429H198.763V9.80571H194.905V5.59429H190.732V17.5371ZM165.246 8.98857C166.131 8.42286 167.333 7.98286 168.345 7.98286C168.851 7.98286 170.052 8.04571 170.052 9.05143C170.052 10.0571 169.04 10.0571 168.661 10.0571H166.574V12.6343H168.408C168.977 12.6343 170.115 12.6971 170.115 13.64C170.115 14.0171 169.862 14.7714 168.408 14.7714C166.953 14.7714 166.005 14.3943 164.803 13.64L163.728 16.4686C166.005 17.7886 168.092 17.9143 169.104 17.9143C173.91 17.9143 174.479 15.1486 174.479 14.2686C174.479 13.0114 173.72 11.7543 172.076 11.3143C173.151 10.8743 173.783 9.80571 173.783 8.54857C173.783 5.78286 170.811 5.21714 169.04 5.21714C167.333 5.21714 165.436 5.72 164.171 6.41143L165.246 8.98857ZM156.203 4.08571C158.1 4.08571 160.06 3.33143 160.946 1.32L158.226 0.314286C157.91 1.69714 156.709 1.76 156.203 1.76C155.697 1.76 154.558 1.69714 154.242 0.314286L151.523 1.32C152.282 3.33143 154.305 4.08571 156.203 4.08571ZM149.626 5.59429V17.4743H153.736L157.91 10.9371V17.4743H162.084V5.59429H158.037L153.863 11.9429V5.59429H149.626ZM121.737 14.96V8.36C120.346 8.36 118.891 9.36572 118.891 11.6914C118.891 13.8914 120.346 14.96 121.737 14.96ZM125.468 8.36V14.96C126.859 14.96 128.314 13.9543 128.314 11.6914C128.314 9.36572 126.859 8.36 125.468 8.36ZM121.484 22.6914V17.7257C118.954 17.7257 114.844 16.72 114.844 11.5657C114.844 6.47429 118.954 5.40571 121.484 5.46857V0.251429H125.658V5.40571C128.187 5.40571 132.298 6.41143 132.298 11.5029C132.298 16.6571 128.187 17.6629 125.658 17.6629V22.6286H121.484V22.6914ZM102.891 14.96V8.36C101.5 8.36 100.046 9.36572 100.046 11.6914C99.9824 13.8914 101.437 14.96 102.891 14.96ZM106.559 8.36V14.96C107.951 14.96 109.405 13.9543 109.405 11.6914C109.405 9.36572 107.951 8.36 106.559 8.36ZM102.575 22.6914V17.7257C100.046 17.7257 95.935 16.72 95.935 11.5657C95.935 6.47429 100.046 5.40571 102.575 5.46857V0.251429H106.749V5.40571C109.279 5.40571 113.389 6.41143 113.389 11.5029C113.389 16.6571 109.279 17.6629 106.749 17.6629V22.6286H102.575V22.6914ZM88.0933 4.08571C89.9905 4.08571 91.9509 3.33143 92.8363 1.32L90.117 0.314286C89.8008 1.69714 88.5992 1.76 88.0933 1.76C87.5874 1.76 86.4491 1.69714 86.0696 0.314286L83.3503 1.32C84.2357 3.33143 86.1961 4.08571 88.0933 4.08571ZM81.5163 5.59429V17.4743H85.5637L89.7375 10.9371V17.4743H93.9114V5.59429H89.864L85.6902 11.9429V5.59429H81.5163ZM55.9042 3.77143V7.73143H57.4219C59.5089 7.73143 59.6986 6.47429 59.6986 5.72C59.6986 4.90286 59.4456 3.77143 57.4219 3.77143H56.0939H55.9042ZM51.3509 17.5371V0H58.4338C63.24 0 64.568 3.39429 64.568 5.78286C64.568 8.17143 63.1768 11.5657 58.4338 11.5657H55.8409V17.5371H51.3509ZM147.033 5.59429V17.4743H142.859V16.1543H142.796C142.037 17.3486 140.582 17.8514 139.254 17.8514C135.776 17.8514 133.31 14.8971 133.31 11.5029C133.31 8.10857 135.713 5.15429 139.254 5.15429C140.582 5.15429 142.037 5.65714 142.922 6.72571V5.59429H147.033ZM140.266 8.86286C138.559 8.86286 137.547 10.12 137.547 11.5657C137.547 13.0743 138.559 14.2057 140.266 14.2057C141.974 14.2057 142.985 13.0114 142.985 11.5657C142.985 10.12 141.974 8.86286 140.266 8.86286ZM78.9235 5.59429V17.4743H74.7497V16.1543H74.6864C73.9275 17.3486 72.473 17.8514 71.145 17.8514C67.6668 17.8514 65.2004 14.8971 65.2004 11.5029C65.2004 8.10857 67.6036 5.15429 71.145 5.15429C72.473 5.15429 73.9276 5.65714 74.8129 6.72571V5.59429H78.9235ZM72.1568 8.86286C70.4494 8.86286 69.4375 10.12 69.4375 11.5657C69.4375 13.0743 70.4494 14.2057 72.1568 14.2057C73.8643 14.2057 74.8761 13.0114 74.8761 11.5657C74.8761 10.12 73.8643 8.86286 72.1568 8.86286ZM188.645 12.0686V12.5086H179.854C179.854 14.2057 180.74 15.1486 182.447 15.1486C183.333 15.1486 183.965 14.8343 184.471 14.08H188.518C187.823 16.9086 185.23 18.1657 182.51 18.1657C178.59 18.1657 175.681 15.9657 175.681 11.8171C175.681 7.85714 178.4 5.46857 182.194 5.46857C186.305 5.46857 188.645 7.98286 188.645 12.0686ZM179.918 10.0571H184.787C184.597 8.92571 183.522 8.17143 182.384 8.17143C181.182 8.17143 180.171 8.86286 179.918 10.0571ZM58.0543 36.52H56.7895L56.1571 40.2286H57.3587C60.1413 40.2286 60.6472 39.4743 60.8369 38.4686C61.0266 37.3371 60.7737 36.52 58.0543 36.52ZM65.6431 38.4686C65.4534 39.6629 65.074 40.8571 64.1886 41.6743C62.2914 43.56 59.4456 43.6857 57.6749 43.7486H50.6553L53.6276 26.2743H65.6431L65.074 29.7314H57.8014L57.2322 33.2514H59.3191C60.9001 33.2514 62.8606 33.44 64.2518 34.6343C65.3902 35.5143 65.9593 36.8343 65.6431 38.4686ZM78.2911 40.7314H71.6509L69.8802 43.7486H64.7578L74.8129 26.2743H80.0618L84.1092 43.7486H78.9867L78.2911 40.7314ZM77.5955 37.2114L76.5836 31.6171H76.5204L73.6114 37.2114H77.5955ZM110.986 26.2743H106.117L103.208 43.7486H108.014L109.279 36.1429H109.342L114.275 43.7486H120.535L114.022 34.5714L122.749 26.2743H116.804L109.785 33.5029H109.721L110.986 26.2743ZM92.3936 26.2743L91.3185 32.8114H97.7057L98.7808 26.2743H103.461L100.615 43.7486H95.935L97.1366 36.2057H90.7494L89.5478 43.7486H84.868L87.7138 26.2743H92.3936Z" fill="black"/>
<path d="M42.56 1.4458H1.4541V42.3029H42.56V1.4458Z" fill="#FAEB00"/>
<path d="M1.45452 1.44571H42.5604V42.3029H1.45452V1.44571ZM0 43.7486H44.015V0H0V43.7486Z" fill="black"/>
<path d="M22.0076 26.8402L9.35965 39.4116L4.3637 34.4459L17.0117 21.8745L14.3556 19.2345V14.0802L12.5216 12.2573V16.783L10.9406 18.3545L4.49018 12.0059L2.90918 13.5773C2.90918 12.383 3.16214 8.92588 6.07117 6.09731C9.23317 3.08017 12.6481 4.46302 13.8497 5.59445L20.3001 11.943L18.6559 13.5773L22.0076 16.9087L25.3593 13.5773L23.7151 11.943L30.1656 5.5316C31.3671 4.40017 34.7821 3.01731 37.9441 6.03445C40.8531 8.92588 41.1061 12.3202 41.1061 13.5145L39.5251 11.943L33.0746 18.3545L31.4936 16.783V12.2573L29.6596 14.0802V19.2345L27.0036 21.8745L39.6515 34.4459L34.6556 39.4116L22.0076 26.8402Z" fill="black"/>
</svg>
