<svg width="297" height="33" viewBox="0 0 297 33" fill="none" xmlns="http://www.w3.org/2000/svg">
<path d="M27.7471 31.9275H21.0748V11.3025L6.42822 31.9275H0V0.495H6.7537V21.12L21.4816 0.495H27.7471V31.9275ZM32.6293 0.5775H39.4644V12.9525H53.1345V0.5775H59.9696V31.9275H53.1345V19.305H39.4644V31.9275H32.6293V0.5775ZM71.6055 31.9275H64.8518V0.495H85.8452V6.765H71.6055V31.9275ZM118.637 16.2525C118.637 6.6825 111.802 0.165 102.363 0H102.201C92.7616 0.0825 85.9266 6.6825 85.9266 16.17C85.9266 25.74 92.7616 32.2575 102.201 32.34H102.363C111.802 32.34 118.637 25.74 118.637 16.2525ZM102.282 26.07C96.8301 26.07 93.0058 22.275 93.0058 16.2525C93.0058 10.1475 96.8301 6.435 102.282 6.435C107.734 6.435 111.558 10.23 111.558 16.2525C111.558 22.275 107.734 26.07 102.282 26.07ZM189.836 6.93H179.827V0.5775H206.598V6.93H196.671V31.9275H189.836V6.93ZM210.748 0.5775H224.662C232.067 0.5775 236.542 5.0325 236.542 11.4675C236.542 18.7275 231.009 22.5225 224.011 22.5225H217.583V31.9275H210.748V0.5775ZM224.174 16.335C227.591 16.335 229.544 14.2725 229.544 11.4675C229.544 8.415 227.429 6.6825 224.011 6.6825H217.502V16.2525H224.174V16.335ZM297.488 31.9275L286.503 15.84L297 0.495H289.188L282.598 10.1475L276.007 0.495H267.951L278.529 16.005L267.544 31.9275H275.356L282.435 21.615L289.433 31.9275H297.488ZM259.895 31.9275H266.812L253.548 0.33H247.283L234.02 31.9275H240.936L243.865 24.6675H256.966L259.895 31.9275ZM246.307 18.5625L250.456 8.745L254.606 18.5625H246.307ZM137.922 26.07C132.47 26.07 128.646 22.275 128.646 16.2525C128.646 10.1475 132.47 6.435 137.922 6.435C140.77 6.435 143.13 7.26 145.164 8.9925L149.395 4.7025C146.547 1.8975 142.723 0.0825 138.003 0.0825H137.841C128.402 0.165 121.567 6.765 121.567 16.2525C121.567 25.8225 128.402 32.34 137.841 32.4225H138.003C142.641 32.34 146.466 30.525 149.395 27.8025L145.164 23.5125C143.13 25.245 140.77 26.07 137.922 26.07ZM166.32 26.07C160.868 26.07 157.044 22.275 157.044 16.2525C157.044 10.1475 160.868 6.435 166.32 6.435C169.168 6.435 171.528 7.26 173.562 8.9925L177.793 4.7025C174.945 1.8975 171.121 0.0825 166.401 0.0825H166.239C156.8 0.165 149.965 6.765 149.965 16.2525C149.965 25.8225 156.8 32.34 166.239 32.4225H166.401C171.039 32.34 174.864 30.525 177.793 27.8025L173.562 23.5125C171.528 25.245 169.168 26.07 166.32 26.07Z" fill="#0047BB"/>
</svg>
