<svg width="229" height="46" viewBox="0 0 229 46" fill="none" xmlns="http://www.w3.org/2000/svg">
<path fill-rule="evenodd" clip-rule="evenodd" d="M0 22.6C0 10.1281 10.1003 0.0279012 22.5721 0V8.17506C14.6203 8.17506 8.17507 14.6481 8.17507 22.6C8.17507 30.5797 14.6481 37.0249 22.6 37.0249C30.524 37.0249 37.0249 30.6356 37.0249 22.5442H45.2C45.2 35.0719 35.0998 45.2 22.6 45.2C10.1002 45.2 0 35.0718 0 22.6Z" fill="black"/>
<path d="M12.6367 22.6C12.6367 17.0756 17.1288 12.5835 22.6533 12.5835C28.1777 12.5835 32.6698 17.0756 32.6698 22.6C32.6698 28.1524 28.1777 32.6166 22.6533 32.6166C17.1288 32.6166 12.6367 28.1524 12.6367 22.6Z" fill="black"/>
<path d="M29.6016 9.90487C29.6016 6.72413 32.1685 4.15723 35.3492 4.15723C38.53 4.15723 41.0969 6.72413 41.0969 9.90487C41.0969 13.0856 38.53 15.6525 35.3492 15.6525C32.1685 15.6525 29.6016 13.0856 29.6016 9.90487Z" fill="black"/>
<path d="M206.049 15.5961L205.351 19.0279C203.705 26.4776 203.119 28.8771 201.696 36.2988L201.389 36.5778L196.869 36.7173L196.646 36.4104L198.46 28.7655L198.99 26.2543C197.037 26.1985 195.112 26.1706 193.159 26.1706C191.652 26.1706 190.48 26.1985 189.308 26.2265C188.639 29.2398 188.081 31.8625 187.243 36.2988L186.937 36.5778L182.417 36.7173L182.193 36.4104L184.007 28.7655L184.732 25.4452C185.932 20.1998 186.155 19.0558 186.853 14.2289L187.16 13.922C189.224 13.643 189.727 13.5593 191.847 13.1129L192.07 13.4198L191.596 15.624L190.899 19.0558L190.173 22.2924C191.791 22.3203 193.438 22.3482 195.084 22.3482C196.814 22.3482 197.958 22.3203 199.883 22.2645C200.497 19.4185 200.748 17.884 201.306 14.201L201.613 13.8941C203.705 13.6151 204.18 13.5314 206.328 13.085L206.551 13.3919L206.049 15.5961Z" fill="black"/>
<path d="M151.559 25.5573C151.866 24.2738 152.089 22.9625 152.089 21.7348C152.089 17.2148 149.187 16.4615 147.541 16.4615C140.538 16.4615 139.645 27.343 139.645 28.9891C139.645 32.5605 141.793 34.123 144.193 34.123C148.964 34.123 150.75 29.2402 151.559 25.5573ZM156.19 26.9523C155.214 30.8027 152.48 37.4432 144.109 37.4432C138.166 37.4432 134.93 34.3741 134.93 28.2916C134.93 27.5104 134.985 26.6454 135.125 25.7247C135.153 25.5015 135.181 25.2783 135.209 25.0551C136.827 15.0106 141.18 5.46839 150.75 5.38469C152.033 5.35679 154.6 5.24518 156.358 4.82666L155.716 8.84444C153.93 9.29086 151.14 9.54198 149.494 9.54198C147.457 9.56988 146.062 10.3232 145.086 11.2718C144.611 11.7183 144.221 12.2484 143.942 12.6948C143.663 13.1412 143.44 13.5597 143.3 13.8946C144.584 13.5039 145.979 13.2528 147.541 13.2528C153.372 13.2528 156.86 16.5173 156.86 22.2649C156.86 23.7995 156.581 25.3899 156.19 26.9523Z" fill="black"/>
<path d="M213.724 22.8507C214.784 21.9299 215.398 21.344 216.877 19.921C218.412 18.4144 222.206 14.5082 222.904 13.7549L223.406 13.5038H228.512L228.651 13.8944C228.205 14.285 227.982 14.4803 226.196 15.987C225.499 16.5729 225.052 17.0193 224.215 17.7726L218.439 23.1018L225.331 36.2154L225.052 36.5781L220.114 36.7176L219.751 36.4386C218.607 33.6764 218.3 33.0625 216.682 29.826L213.557 23.5203C212.58 27.8729 211.966 30.6351 210.878 36.3549L210.571 36.6339L206.051 36.7734L205.828 36.4665L207.642 28.8215L208.339 25.5013C209.539 20.2559 209.762 19.1119 210.46 14.285L210.767 13.9781C212.859 13.6991 213.334 13.6154 215.482 13.1689L215.705 13.4759L215.231 15.68L214.533 19.1119L213.724 22.8507Z" fill="black"/>
<path d="M174.441 30.942C173.967 31.3326 173.465 31.7791 172.962 32.086C171.818 32.8114 170.284 33.1183 169.084 33.1183C165.01 33.1183 163.867 29.6865 163.867 27.566C163.867 27.3428 163.95 21.5951 168.638 18.4144C171.26 16.6287 174.162 16.545 175.641 16.545C176.31 16.545 176.98 16.5729 177.65 16.5729L174.441 30.942ZM182.979 13.5596L182.756 13.1968L176.59 13.1689C172.488 13.1689 166.74 13.4201 162.583 18.3028C160.714 20.5349 159.012 24.3573 159.012 27.8729C159.012 33.4252 162.723 36.6339 167.27 36.6339C171.065 36.6339 173.018 34.9877 173.771 34.3739L173.465 36.1596L173.688 36.4665L177.873 36.3828L178.18 36.0759C179.073 30.7746 179.38 29.0726 180.942 22.2368L182.979 13.5596Z" fill="black"/>
<path d="M65.4262 37.3032C60.5993 37.3032 53.624 35.7686 56.163 24.6081C57.1117 20.4229 60.0134 11.5225 71.9272 11.5225C83.5062 11.5225 81.7764 21.0089 81.0788 24.357C78.9304 33.8155 73.1549 37.3032 65.4262 37.3032ZM67.0166 32.3926C70.4205 32.3926 72.0109 28.8491 73.0433 24.3012C73.7687 21.0926 74.5499 16.3773 70.4485 16.3773C66.9608 16.3773 65.3983 19.7254 64.3939 24.3012C63.4173 28.5143 63.1941 32.3926 67.0166 32.3926Z" fill="black"/>
<path d="M93.7479 36.7729C91.5158 36.7729 87.8328 36.7729 86.2982 36.8287L86.0471 36.5218C86.4656 35.043 87.5259 31.0252 88.614 26.1425C89.5069 22.1805 90.2881 18.6929 90.595 17.1025C88.7256 17.1583 85.8518 17.1583 84.4288 17.1862L84.1777 16.8514C84.5405 15.6516 85.0706 13.5591 85.4054 12.3035L85.8239 12.0524C87.0795 12.1082 91.7948 12.1361 95.6172 12.1361C100.221 12.1361 104.713 12.0524 105.662 11.9966L105.969 12.2477C105.634 13.3637 105.02 15.6516 104.713 16.7956L104.267 17.0746C102.425 17.0467 101.03 17.0467 98.3516 17.0467C98.1284 18.0512 97.4029 21.0366 96.2032 26.3378C95.3103 30.3556 94.557 34.0107 94.1385 36.3544L93.7479 36.7729Z" fill="black"/>
<path d="M119.612 17.6884C118.105 17.6884 116.431 17.7442 115.678 17.7442C115.455 18.7766 114.534 22.5991 113.697 26.3099C112.72 30.6904 111.827 34.7919 111.493 36.4939L111.046 36.7729C108.758 36.7729 105.829 36.7729 103.485 36.8287L103.262 36.5218C103.736 34.5966 104.964 29.407 106.136 24.2173C107.307 18.9998 108.34 13.8939 108.647 12.443L109.037 12.1082C111.548 12.1082 114.087 12.1919 120.337 12.1919C125.22 12.1919 129.963 12.0524 132.474 11.9966L132.698 12.2756C132.363 13.5312 130.968 19.5299 129.628 25.4729C128.54 30.2719 127.536 35.043 127.285 36.4102L126.95 36.6892C124.941 36.6892 121.286 36.6892 119.361 36.745L119.165 36.4102C119.584 34.7919 120.477 31.0252 121.537 26.3657C122.346 22.8223 123.127 19.0556 123.462 17.6605C122.653 17.7163 121.007 17.6884 119.612 17.6884Z" fill="black"/>
</svg>
