<svg width="229" height="46" viewBox="0 0 229 46" fill="none" xmlns="http://www.w3.org/2000/svg">
<g clip-path="url(#clip0_150_586)">
<path d="M221.146 9.08691L213.332 17.8407V9.08691H207.678V31.1851H213.332V21.8814L221.696 31.1851H229L218.713 19.6066L228.255 9.08691H221.146Z" fill="#EF3124"/>
<path d="M197.708 17.3286H189.895V9.08691H184.237V31.1851H189.895V22.4722H197.708V31.1851H203.363V9.08691H197.708V17.3286Z" fill="#EF3124"/>
<mask id="mask0_150_586" style="mask-type:luminance" maskUnits="userSpaceOnUse" x="0" y="0" width="229" height="46">
<path d="M229 0H0V46H229V0Z" fill="white"/>
</mask>
<g mask="url(#mask0_150_586)">
<path d="M33.5738 21.0582C33.4386 25.1806 32.9074 26.0039 30.5879 26.0039V31.1851H31.4522C37.2322 31.1851 38.6214 28.2002 38.8352 21.5672L39.0709 14.2274H44.4894V31.1851H50.1437V9.08691H33.9666L33.5738 21.0582Z" fill="#EF3124"/>
<path d="M64.199 15.7984H60.1162V9.08691H54.4619V31.1851H64.2775C70.4441 31.1851 72.6411 27.1821 72.6411 23.4116C72.6411 18.5446 69.5767 15.7952 64.199 15.7952M63.7684 26.3149H60.1162V20.7H63.7684C65.7328 20.7 66.9083 21.5641 66.9083 23.4085C66.9083 25.41 65.7705 26.3149 63.7684 26.3149Z" fill="#EF3124"/>
<path d="M91.0558 8.57469V0.370728H85.4016V8.57469C78.9238 9.12455 74.5645 13.7183 74.5645 20.1155C74.5645 26.5128 78.9238 31.1474 85.4016 31.6972V40.0206H91.0558V31.6972C97.5336 31.1882 101.893 26.5536 101.893 20.1155C101.893 13.6774 97.5336 9.08371 91.0558 8.57469ZM85.4016 26.3588C82.2617 25.9252 80.2973 23.5718 80.2973 20.1187C80.2973 16.6655 82.2617 14.309 85.4016 13.8785V26.362V26.3588ZM91.0558 26.3588V13.8754C94.1957 14.3058 96.1601 16.6624 96.1601 20.1155C96.1601 23.5687 94.1957 25.9252 91.0558 26.3557" fill="#EF3124"/>
<path d="M123.1 24.3951V16.9767C123.1 11.5597 119.646 8.14429 113.834 8.14429C108.023 8.14429 104.647 11.7577 104.371 15.525H110.103C110.298 14.7018 111.163 13.2879 113.834 13.2879C116.034 13.2879 117.445 14.309 117.445 16.9767H111.829C106.803 16.9767 103.817 19.6066 103.817 24.0023C103.817 28.3981 107.083 31.735 111.788 31.735C115.239 31.735 117.156 30.1043 117.992 28.8694C118.737 30.3619 120.387 31.1851 122.547 31.1851H124.511V26.0824C123.49 26.0824 123.097 25.6111 123.097 24.3951M117.442 22.9435C117.442 25.4948 115.635 26.9465 113.281 26.9465C111.238 26.9465 109.629 26.2018 109.629 24.0023C109.629 21.8029 111.395 21.4918 112.926 21.4918H117.442V22.9435Z" fill="#EF3124"/>
<path d="M147.328 12.2258H141.008V5.98562H155.654V0.370728H135.08V31.1851H147.332C154.124 31.1851 158.012 27.8105 158.012 21.608C158.012 15.7606 154.124 12.2258 147.332 12.2258M147.058 25.611H141.011V17.6019H147.058C150.198 17.6019 151.967 19.0535 151.967 21.6049C151.967 24.1562 150.201 25.6079 147.058 25.6079" fill="#EF3124"/>
<path d="M179.646 24.3951V16.9767C179.646 11.5597 176.192 8.14429 170.38 8.14429C164.569 8.14429 161.193 11.7577 160.916 15.525H166.649C166.844 14.7018 167.709 13.2879 170.38 13.2879C172.58 13.2879 173.991 14.309 173.991 16.9767H168.375C163.349 16.9767 160.363 19.6066 160.363 24.0023C160.363 28.3981 163.629 31.735 168.334 31.735C171.785 31.735 173.702 30.1043 174.538 28.8694C175.283 30.3619 176.933 31.1851 179.093 31.1851H181.057V26.0824C180.035 26.0824 179.643 25.6111 179.643 24.3951M173.988 22.9435C173.988 25.4948 172.181 26.9465 169.827 26.9465C167.784 26.9465 166.175 26.2018 166.175 24.0023C166.175 21.8029 167.941 21.4918 169.472 21.4918H173.988V22.9435Z" fill="#EF3124"/>
<path d="M30.2358 39.719H0V46H30.2358V39.719Z" fill="#EF3124"/>
<path d="M20.6153 4.6C19.751 2.02978 18.7578 0 15.3539 0C11.95 0 10.8908 2.02036 9.98566 4.6L0.628906 31.1851H6.83322L8.99247 24.8664H20.9296L22.9317 31.1851H29.5289L20.6153 4.6ZM10.7997 19.528L15.0396 6.92828H15.1968L19.201 19.528H10.7966H10.7997Z" fill="#EF3124"/>
</g>
</g>
<defs>
<clipPath id="clip0_150_586">
<rect width="229" height="46" fill="white"/>
</clipPath>
</defs>
</svg>
