<svg width="23" height="18" viewBox="0 0 23 18" fill="none" xmlns="http://www.w3.org/2000/svg">
<path d="M22.4544 10.1395C22.6912 9.90116 22.8242 9.57797 22.8242 9.24099C22.8242 8.90401 22.6912 8.58082 22.4544 8.3425L15.3086 1.15335C15.1921 1.03198 15.0527 0.93516 14.8986 0.868556C14.7445 0.801953 14.5787 0.766895 14.411 0.765428C14.2433 0.763962 14.0769 0.796117 13.9217 0.860016C13.7664 0.923915 13.6254 1.01828 13.5068 1.1376C13.3882 1.25692 13.2944 1.39882 13.2309 1.555C13.1674 1.71118 13.1354 1.87852 13.1369 2.04726C13.1383 2.21601 13.1732 2.38277 13.2394 2.53781C13.3056 2.69286 13.4018 2.83309 13.5225 2.95032L18.512 7.97015L1.78378 7.97015C1.44877 7.97015 1.12748 8.10404 0.890585 8.34237C0.653694 8.5807 0.52061 8.90394 0.52061 9.24099C0.52061 9.57804 0.653694 9.90128 0.890585 10.1396C1.12748 10.3779 1.44877 10.5118 1.78378 10.5118L18.512 10.5118L13.5225 15.5317C13.2924 15.7713 13.165 16.0924 13.1679 16.4256C13.1708 16.7588 13.3037 17.0775 13.5379 17.3131C13.7721 17.5488 14.0889 17.6824 14.4201 17.6853C14.7513 17.6882 15.0704 17.5601 15.3086 17.3286L22.4544 10.1395Z" fill="black"/>
</svg>
