<svg width="23" height="18" viewBox="0 0 23 18" fill="none" xmlns="http://www.w3.org/2000/svg">
<path d="M0.890348 8.31121C0.65354 8.54953 0.520508 8.87271 0.520508 9.20969C0.520508 9.54668 0.65354 9.86986 0.890348 10.1082L8.03613 17.2973C8.15265 17.4187 8.29204 17.5155 8.44615 17.5821C8.60026 17.6487 8.76602 17.6838 8.93374 17.6853C9.10146 17.6867 9.2678 17.6546 9.42304 17.5907C9.57828 17.5268 9.71931 17.4324 9.83791 17.3131C9.95652 17.1938 10.0503 17.0519 10.1138 16.8957C10.1773 16.7395 10.2093 16.5722 10.2078 16.4034C10.2064 16.2347 10.1715 16.0679 10.1053 15.9129C10.0391 15.7578 9.9429 15.6176 9.82226 15.5004L4.83272 10.4805L21.5609 10.4805C21.896 10.4805 22.2173 10.3466 22.4541 10.1083C22.691 9.86999 22.8241 9.54674 22.8241 9.2097C22.8241 8.87265 22.691 8.5494 22.4541 8.31107C22.2173 8.07275 21.896 7.93885 21.5609 7.93885L4.83272 7.93885L9.82226 2.91903C10.0524 2.67934 10.1797 2.35833 10.1768 2.02512C10.1739 1.69191 10.0411 1.37317 9.80687 1.13754C9.57267 0.901917 9.25585 0.768261 8.92465 0.765366C8.59345 0.76247 8.27437 0.890564 8.03613 1.12206L0.890348 8.31121Z" fill="black"/>
</svg>
