<svg width="29" height="23" viewBox="0 0 29 23" fill="none" xmlns="http://www.w3.org/2000/svg">
<path d="M3.38889 3.35714L11.8722 9.61629L11.875 9.619C12.8167 10.2935 13.2875 10.6314 13.8042 10.7617C14.2605 10.8771 14.7395 10.8771 15.1958 10.7617C15.7125 10.6314 16.1847 10.2935 17.1292 9.61629C17.1292 9.61629 22.5694 5.53671 25.6111 3.35714M2 16.6571V6.34286C2 4.82286 2 4.06286 2.30278 3.482C2.56944 2.97036 2.99306 2.55643 3.51667 2.29586C4.11111 2 4.88889 2 6.44444 2H22.5556C24.1111 2 24.8889 2 25.4819 2.29586C26.0056 2.55643 26.4306 2.97036 26.6972 3.482C27 4.0615 27 4.8215 27 6.33878V16.6626C27 18.1799 27 18.9371 26.6972 19.518C26.4305 20.0289 26.0051 20.4441 25.4819 20.7041C24.8889 21 24.1125 21 22.5597 21H6.44028C4.8875 21 4.10972 21 3.51667 20.7041C2.99402 20.4439 2.56909 20.0287 2.30278 19.518C2 18.9371 2 18.1771 2 16.6571Z" stroke="#0291EB" stroke-width="3" stroke-linecap="round" stroke-linejoin="round"/>
</svg>
