<svg width="50" height="50" viewBox="0 0 50 50" fill="none" xmlns="http://www.w3.org/2000/svg">
<circle cx="25" cy="25" r="25" fill="#0291EB"/>
<path d="M36.8852 30.5002L30.6185 27.5838C30.3346 27.4575 30.0248 27.4067 29.7171 27.436C29.4095 27.4654 29.1138 27.5739 28.8568 27.7519C28.8308 27.7693 28.8059 27.7887 28.7825 27.8097L25.5072 30.7027C25.4732 30.7219 25.4354 30.7327 25.3967 30.7341C25.358 30.7356 25.3196 30.7276 25.2843 30.711C23.1791 29.6557 20.9982 27.4047 19.978 25.2488C19.9611 25.2127 19.9522 25.1732 19.9522 25.1331C19.9522 25.0929 19.9611 25.0534 19.978 25.0173L22.7731 21.5733C22.7932 21.5479 22.8118 21.5212 22.8288 21.4934C22.9978 21.2255 23.0999 20.9181 23.1259 20.5989C23.1518 20.2798 23.1008 19.9589 22.9774 19.6654L20.189 13.1686C20.0306 12.7851 19.7567 12.4652 19.4085 12.2571C19.0602 12.0489 18.6563 11.9637 18.2575 12.0142C16.5239 12.2508 14.9327 13.1349 13.7811 14.5011C12.6295 15.8674 11.9964 17.6223 12 19.438C12 30.2247 20.4503 39 30.8374 39C32.5858 39.0035 34.2756 38.3459 35.5911 37.15C36.9067 35.9542 37.7581 34.3019 37.9863 32.5018C38.0348 32.0896 37.9538 31.672 37.7554 31.3114C37.5571 30.9507 37.2519 30.6662 36.8852 30.5002ZM30.8374 37.3469C21.3285 37.3469 13.5919 29.3127 13.5919 19.438C13.5875 18.0245 14.0788 16.6577 14.974 15.5929C15.8692 14.5281 17.1071 13.8382 18.4565 13.6521H18.487C18.5404 13.6532 18.5923 13.6709 18.6359 13.7031C18.6795 13.7354 18.7126 13.7805 18.7311 13.8326L21.5301 20.3225C21.5461 20.3586 21.5544 20.3978 21.5544 20.4375C21.5544 20.4772 21.5461 20.5164 21.5301 20.5525L18.7297 24.0048C18.7089 24.0295 18.6899 24.0558 18.6727 24.0833C18.4975 24.3611 18.3943 24.6812 18.3731 25.0126C18.352 25.3439 18.4136 25.6754 18.552 25.9748C19.7286 28.4765 22.1563 30.9782 24.5919 32.2001C24.8819 32.3431 25.2026 32.4055 25.5227 32.3814C25.8429 32.3572 26.1515 32.2473 26.4186 32.0624C26.4438 32.0445 26.469 32.0252 26.4929 32.0045L29.7668 29.1116C29.7992 29.0935 29.8349 29.0829 29.8715 29.0806C29.9081 29.0782 29.9448 29.0841 29.9791 29.0978L36.2472 32.0142C36.2984 32.0368 36.3414 32.0756 36.3702 32.125C36.399 32.1745 36.4121 32.2321 36.4077 32.2897C36.2294 33.6916 35.5657 34.978 34.5406 35.9087C33.5154 36.8394 32.199 37.3507 30.8374 37.3469Z" fill="white" stroke="white" stroke-width="2"/>
</svg>
