<svg width="39" height="33" viewBox="0 0 39 33" fill="none" xmlns="http://www.w3.org/2000/svg">
<path fill-rule="evenodd" clip-rule="evenodd" d="M21.2208 9.68628C21.1041 9.56983 21.0115 9.4315 20.9483 9.2792C20.8851 9.12691 20.8525 8.96364 20.8525 8.79875C20.8525 8.63387 20.8851 8.4706 20.9483 8.3183C21.0115 8.16601 21.1041 8.02767 21.2208 7.91123L28.7422 0.389841C28.8588 0.27329 28.9971 0.180836 29.1494 0.117759C29.3017 0.0546823 29.4649 0.0222168 29.6297 0.0222168C29.7946 0.0222168 29.9578 0.0546823 30.1101 0.117759C30.2623 0.180836 30.4007 0.27329 30.5173 0.389841C30.6338 0.506392 30.7263 0.644759 30.7893 0.797041C30.8524 0.949322 30.8849 1.11254 30.8849 1.27736C30.8849 1.44219 30.8524 1.60541 30.7893 1.75769C30.7263 1.90997 30.6338 2.04834 30.5173 2.16489L22.9959 9.68628C22.8794 9.80302 22.7411 9.89564 22.5888 9.95883C22.4365 10.022 22.2732 10.0546 22.1083 10.0546C21.9435 10.0546 21.7802 10.022 21.6279 9.95883C21.4756 9.89564 21.3373 9.80302 21.2208 9.68628Z" fill="black"/>
<path fill-rule="evenodd" clip-rule="evenodd" d="M21.2208 9.68628C21.1041 9.56983 21.0115 9.4315 20.9483 9.2792C20.8851 9.12691 20.8525 8.96364 20.8525 8.79875C20.8525 8.63387 20.8851 8.4706 20.9483 8.3183C21.0115 8.16601 21.1041 8.02767 21.2208 7.91123L28.7422 0.389841C28.8588 0.27329 28.9971 0.180836 29.1494 0.117759C29.3017 0.0546823 29.4649 0.0222168 29.6297 0.0222168C29.7946 0.0222168 29.9578 0.0546823 30.1101 0.117759C30.2623 0.180836 30.4007 0.27329 30.5173 0.389841C30.6338 0.506392 30.7263 0.644759 30.7893 0.797041C30.8524 0.949322 30.8849 1.11254 30.8849 1.27736C30.8849 1.44219 30.8524 1.60541 30.7893 1.75769C30.7263 1.90997 30.6338 2.04834 30.5173 2.16489L22.9959 9.68628C22.8794 9.80302 22.7411 9.89564 22.5888 9.95883C22.4365 10.022 22.2732 10.0546 22.1083 10.0546C21.9435 10.0546 21.7802 10.022 21.6279 9.95883C21.4756 9.89564 21.3373 9.80302 21.2208 9.68628Z" fill="url(#paint0_radial_65_186)" fill-opacity="0.7"/>
<path fill-rule="evenodd" clip-rule="evenodd" d="M38.0381 9.68628C37.9216 9.80302 37.7833 9.89564 37.631 9.95883C37.4787 10.022 37.3154 10.0546 37.1506 10.0546C36.9857 10.0546 36.8224 10.022 36.6701 9.95883C36.5178 9.89564 36.3795 9.80302 36.263 9.68628L28.7416 2.16489C28.5063 1.9295 28.374 1.61025 28.374 1.27736C28.374 0.944479 28.5063 0.625227 28.7416 0.389841C28.977 0.154455 29.2963 0.0222168 29.6292 0.0222168C29.9621 0.0222168 30.2813 0.154455 30.5167 0.389841L38.0381 7.91123C38.1548 8.02767 38.2474 8.16601 38.3106 8.3183C38.3738 8.4706 38.4064 8.63387 38.4064 8.79875C38.4064 8.96364 38.3738 9.12691 38.3106 9.2792C38.2474 9.4315 38.1548 9.56983 38.0381 9.68628Z" fill="black"/>
<path fill-rule="evenodd" clip-rule="evenodd" d="M38.0381 9.68628C37.9216 9.80302 37.7833 9.89564 37.631 9.95883C37.4787 10.022 37.3154 10.0546 37.1506 10.0546C36.9857 10.0546 36.8224 10.022 36.6701 9.95883C36.5178 9.89564 36.3795 9.80302 36.263 9.68628L28.7416 2.16489C28.5063 1.9295 28.374 1.61025 28.374 1.27736C28.374 0.944479 28.5063 0.625227 28.7416 0.389841C28.977 0.154455 29.2963 0.0222168 29.6292 0.0222168C29.9621 0.0222168 30.2813 0.154455 30.5167 0.389841L38.0381 7.91123C38.1548 8.02767 38.2474 8.16601 38.3106 8.3183C38.3738 8.4706 38.4064 8.63387 38.4064 8.79875C38.4064 8.96364 38.3738 9.12691 38.3106 9.2792C38.2474 9.4315 38.1548 9.56983 38.0381 9.68628Z" fill="url(#paint1_radial_65_186)" fill-opacity="0.7"/>
<path fill-rule="evenodd" clip-rule="evenodd" d="M29.6296 1.27759C29.962 1.27759 30.2809 1.40966 30.516 1.64475C30.7511 1.87984 30.8831 2.19869 30.8831 2.53115V26.3489C30.8831 26.6813 30.7511 27.0002 30.516 27.2353C30.2809 27.4704 29.962 27.6024 29.6296 27.6024C29.2971 27.6024 28.9783 27.4704 28.7432 27.2353C28.5081 27.0002 28.376 26.6813 28.376 26.3489V2.53115C28.376 2.19869 28.5081 1.87984 28.7432 1.64475C28.9783 1.40966 29.2971 1.27759 29.6296 1.27759ZM17.9814 22.9542C18.0982 23.0707 18.1908 23.209 18.254 23.3613C18.3172 23.5136 18.3497 23.6769 18.3497 23.8418C18.3497 24.0066 18.3172 24.1699 18.254 24.3222C18.1908 24.4745 18.0982 24.6128 17.9814 24.7293L10.4601 32.2507C10.2247 32.4861 9.90542 32.6183 9.57253 32.6183C9.23965 32.6183 8.92039 32.4861 8.68501 32.2507C8.44962 32.0153 8.31738 31.696 8.31738 31.3631C8.31738 31.0303 8.44962 30.711 8.68501 30.4756L16.2064 22.9542C16.3228 22.8375 16.4612 22.7449 16.6135 22.6817C16.7658 22.6185 16.929 22.5859 17.0939 22.5859C17.2588 22.5859 17.4221 22.6185 17.5744 22.6817C17.7267 22.7449 17.865 22.8375 17.9814 22.9542Z" fill="black"/>
<path fill-rule="evenodd" clip-rule="evenodd" d="M29.6296 1.27759C29.962 1.27759 30.2809 1.40966 30.516 1.64475C30.7511 1.87984 30.8831 2.19869 30.8831 2.53115V26.3489C30.8831 26.6813 30.7511 27.0002 30.516 27.2353C30.2809 27.4704 29.962 27.6024 29.6296 27.6024C29.2971 27.6024 28.9783 27.4704 28.7432 27.2353C28.5081 27.0002 28.376 26.6813 28.376 26.3489V2.53115C28.376 2.19869 28.5081 1.87984 28.7432 1.64475C28.9783 1.40966 29.2971 1.27759 29.6296 1.27759ZM17.9814 22.9542C18.0982 23.0707 18.1908 23.209 18.254 23.3613C18.3172 23.5136 18.3497 23.6769 18.3497 23.8418C18.3497 24.0066 18.3172 24.1699 18.254 24.3222C18.1908 24.4745 18.0982 24.6128 17.9814 24.7293L10.4601 32.2507C10.2247 32.4861 9.90542 32.6183 9.57253 32.6183C9.23965 32.6183 8.92039 32.4861 8.68501 32.2507C8.44962 32.0153 8.31738 31.696 8.31738 31.3631C8.31738 31.0303 8.44962 30.711 8.68501 30.4756L16.2064 22.9542C16.3228 22.8375 16.4612 22.7449 16.6135 22.6817C16.7658 22.6185 16.929 22.5859 17.0939 22.5859C17.2588 22.5859 17.4221 22.6185 17.5744 22.6817C17.7267 22.7449 17.865 22.8375 17.9814 22.9542Z" fill="url(#paint2_radial_65_186)" fill-opacity="0.7"/>
<path fill-rule="evenodd" clip-rule="evenodd" d="M1.1632 22.9542C1.27965 22.8375 1.41798 22.7449 1.57028 22.6817C1.72257 22.6185 1.88584 22.5859 2.05073 22.5859C2.21561 22.5859 2.37888 22.6185 2.53118 22.6817C2.68347 22.7449 2.82181 22.8375 2.93825 22.9542L10.4596 30.4756C10.5762 30.5922 10.6686 30.7305 10.7317 30.8828C10.7948 31.0351 10.8273 31.1983 10.8273 31.3631C10.8273 31.528 10.7948 31.6912 10.7317 31.8435C10.6686 31.9957 10.5762 32.1341 10.4596 32.2507C10.3431 32.3672 10.2047 32.4597 10.0524 32.5227C9.90016 32.5858 9.73695 32.6183 9.57212 32.6183C9.40729 32.6183 9.24407 32.5858 9.09179 32.5227C8.93951 32.4597 8.80114 32.3672 8.68459 32.2507L1.1632 24.7293C1.04646 24.6128 0.953843 24.4745 0.890647 24.3222C0.827452 24.1699 0.794922 24.0066 0.794922 23.8417C0.794922 23.6769 0.827452 23.5136 0.890647 23.3613C0.953843 23.209 1.04646 23.0707 1.1632 22.9542Z" fill="black"/>
<path fill-rule="evenodd" clip-rule="evenodd" d="M1.1632 22.9542C1.27965 22.8375 1.41798 22.7449 1.57028 22.6817C1.72257 22.6185 1.88584 22.5859 2.05073 22.5859C2.21561 22.5859 2.37888 22.6185 2.53118 22.6817C2.68347 22.7449 2.82181 22.8375 2.93825 22.9542L10.4596 30.4756C10.5762 30.5922 10.6686 30.7305 10.7317 30.8828C10.7948 31.0351 10.8273 31.1983 10.8273 31.3631C10.8273 31.528 10.7948 31.6912 10.7317 31.8435C10.6686 31.9957 10.5762 32.1341 10.4596 32.2507C10.3431 32.3672 10.2047 32.4597 10.0524 32.5227C9.90016 32.5858 9.73695 32.6183 9.57212 32.6183C9.40729 32.6183 9.24407 32.5858 9.09179 32.5227C8.93951 32.4597 8.80114 32.3672 8.68459 32.2507L1.1632 24.7293C1.04646 24.6128 0.953843 24.4745 0.890647 24.3222C0.827452 24.1699 0.794922 24.0066 0.794922 23.8417C0.794922 23.6769 0.827452 23.5136 0.890647 23.3613C0.953843 23.209 1.04646 23.0707 1.1632 22.9542Z" fill="url(#paint3_radial_65_186)" fill-opacity="0.7"/>
<path fill-rule="evenodd" clip-rule="evenodd" d="M9.5729 31.3632C9.24043 31.3632 8.92159 31.2311 8.6865 30.996C8.45141 30.7609 8.31934 30.4421 8.31934 30.1096V6.29189C8.31934 5.95943 8.45141 5.64058 8.6865 5.40549C8.92159 5.1704 9.24043 5.03833 9.5729 5.03833C9.90537 5.03833 10.2242 5.1704 10.4593 5.40549C10.6944 5.64058 10.8265 5.95943 10.8265 6.29189V30.1096C10.8265 30.4421 10.6944 30.7609 10.4593 30.996C10.2242 31.2311 9.90537 31.3632 9.5729 31.3632Z" fill="black"/>
<path fill-rule="evenodd" clip-rule="evenodd" d="M9.5729 31.3632C9.24043 31.3632 8.92159 31.2311 8.6865 30.996C8.45141 30.7609 8.31934 30.4421 8.31934 30.1096V6.29189C8.31934 5.95943 8.45141 5.64058 8.6865 5.40549C8.92159 5.1704 9.24043 5.03833 9.5729 5.03833C9.90537 5.03833 10.2242 5.1704 10.4593 5.40549C10.6944 5.64058 10.8265 5.95943 10.8265 6.29189V30.1096C10.8265 30.4421 10.6944 30.7609 10.4593 30.996C10.2242 31.2311 9.90537 31.3632 9.5729 31.3632Z" fill="url(#paint4_radial_65_186)" fill-opacity="0.7"/>
<defs>
<radialGradient id="paint0_radial_65_186" cx="0" cy="0" r="1" gradientUnits="userSpaceOnUse" gradientTransform="translate(17.5661 5.23052) rotate(14.7176) scale(16.1266 40.0699)">
<stop stop-color="#0223BF"/>
<stop offset="1" stop-color="#4966F2"/>
</radialGradient>
<radialGradient id="paint1_radial_65_186" cx="0" cy="0" r="1" gradientUnits="userSpaceOnUse" gradientTransform="translate(25.0876 5.23052) rotate(14.7176) scale(16.1266 40.0699)">
<stop stop-color="#0223BF"/>
<stop offset="1" stop-color="#4966F2"/>
</radialGradient>
<radialGradient id="paint2_radial_65_186" cx="0" cy="0" r="1" gradientUnits="userSpaceOnUse" gradientTransform="translate(0.925156 17.5482) rotate(20.0429) scale(37.3452 121.585)">
<stop stop-color="#0223BF"/>
<stop offset="1" stop-color="#4966F2"/>
</radialGradient>
<radialGradient id="paint3_radial_65_186" cx="0" cy="0" r="1" gradientUnits="userSpaceOnUse" gradientTransform="translate(-2.49153 27.7942) rotate(14.7176) scale(16.1266 40.0699)">
<stop stop-color="#0223BF"/>
<stop offset="1" stop-color="#4966F2"/>
</radialGradient>
<radialGradient id="paint4_radial_65_186" cx="0" cy="0" r="1" gradientUnits="userSpaceOnUse" gradientTransform="translate(7.49804 18.7049) rotate(70.0708) scale(11.4355 37.0548)">
<stop stop-color="#0223BF"/>
<stop offset="1" stop-color="#4966F2"/>
</radialGradient>
</defs>
</svg>
