<svg width="38" height="38" viewBox="0 0 38 38" fill="none" xmlns="http://www.w3.org/2000/svg">
<path d="M35.7238 16.902C35.2088 13.1977 33.4902 9.76536 30.8327 7.13374C28.1752 4.50213 24.7263 2.8172 21.017 2.33846C17.7046 1.90879 14.339 2.46142 11.3379 3.92772C8.33679 5.39403 5.83242 7.70944 4.13566 10.5865M2.04102 21.1124C2.52804 24.6177 4.09365 27.8847 6.52076 30.4603C8.94788 33.0359 12.1162 34.7925 15.5865 35.4866C19.0568 36.1806 22.6571 35.7777 25.8881 34.3338C29.1191 32.8898 31.8208 30.4763 33.6186 27.4279" stroke="black" stroke-width="3.36828" stroke-linecap="round" stroke-linejoin="round"/>
<path d="M35.7238 16.902C35.2088 13.1977 33.4902 9.76536 30.8327 7.13374C28.1752 4.50213 24.7263 2.8172 21.017 2.33846C17.7046 1.90879 14.339 2.46142 11.3379 3.92772C8.33679 5.39403 5.83242 7.70944 4.13566 10.5865M2.04102 21.1124C2.52804 24.6177 4.09365 27.8847 6.52076 30.4603C8.94788 33.0359 12.1162 34.7925 15.5865 35.4866C19.0568 36.1806 22.6571 35.7777 25.8881 34.3338C29.1191 32.8898 31.8208 30.4763 33.6186 27.4279" stroke="url(#paint0_radial_65_197)" stroke-opacity="0.7" stroke-width="3.36828" stroke-linecap="round" stroke-linejoin="round"/>
<path d="M31.5134 27.4282C31.5134 27.9866 31.7352 28.522 32.13 28.9168C32.5248 29.3116 33.0603 29.5334 33.6186 29.5334C34.1769 29.5334 34.7124 29.3116 35.1072 28.9168C35.502 28.522 35.7238 27.9866 35.7238 27.4282C35.7238 26.8699 35.502 26.3345 35.1072 25.9397C34.7124 25.5449 34.1769 25.3231 33.6186 25.3231C33.0603 25.3231 32.5248 25.5449 32.13 25.9397C31.7352 26.3345 31.5134 26.8699 31.5134 27.4282ZM2.04102 10.5869C2.04102 11.1452 2.26281 11.6806 2.65761 12.0754C3.0524 12.4702 3.58786 12.692 4.14619 12.692C4.70452 12.692 5.23997 12.4702 5.63477 12.0754C6.02957 11.6806 6.25136 11.1452 6.25136 10.5869C6.25136 10.0285 6.02957 9.49308 5.63477 9.09828C5.23997 8.70348 4.70452 8.48169 4.14619 8.48169C3.58786 8.48169 3.0524 8.70348 2.65761 9.09828C2.26281 9.49308 2.04102 10.0285 2.04102 10.5869ZM12.5669 19.0076C12.5669 20.6825 13.2323 22.2889 14.4167 23.4733C15.601 24.6577 17.2074 25.3231 18.8824 25.3231C20.5574 25.3231 22.1638 24.6577 23.3481 23.4733C24.5325 22.2889 25.1979 20.6825 25.1979 19.0076C25.1979 17.3326 24.5325 15.7262 23.3481 14.5418C22.1638 13.3574 20.5574 12.692 18.8824 12.692C17.2074 12.692 15.601 13.3574 14.4167 14.5418C13.2323 15.7262 12.5669 17.3326 12.5669 19.0076Z" stroke="black" stroke-width="3.36828" stroke-linecap="round" stroke-linejoin="round"/>
<path d="M31.5134 27.4282C31.5134 27.9866 31.7352 28.522 32.13 28.9168C32.5248 29.3116 33.0603 29.5334 33.6186 29.5334C34.1769 29.5334 34.7124 29.3116 35.1072 28.9168C35.502 28.522 35.7238 27.9866 35.7238 27.4282C35.7238 26.8699 35.502 26.3345 35.1072 25.9397C34.7124 25.5449 34.1769 25.3231 33.6186 25.3231C33.0603 25.3231 32.5248 25.5449 32.13 25.9397C31.7352 26.3345 31.5134 26.8699 31.5134 27.4282ZM2.04102 10.5869C2.04102 11.1452 2.26281 11.6806 2.65761 12.0754C3.0524 12.4702 3.58786 12.692 4.14619 12.692C4.70452 12.692 5.23997 12.4702 5.63477 12.0754C6.02957 11.6806 6.25136 11.1452 6.25136 10.5869C6.25136 10.0285 6.02957 9.49308 5.63477 9.09828C5.23997 8.70348 4.70452 8.48169 4.14619 8.48169C3.58786 8.48169 3.0524 8.70348 2.65761 9.09828C2.26281 9.49308 2.04102 10.0285 2.04102 10.5869ZM12.5669 19.0076C12.5669 20.6825 13.2323 22.2889 14.4167 23.4733C15.601 24.6577 17.2074 25.3231 18.8824 25.3231C20.5574 25.3231 22.1638 24.6577 23.3481 23.4733C24.5325 22.2889 25.1979 20.6825 25.1979 19.0076C25.1979 17.3326 24.5325 15.7262 23.3481 14.5418C22.1638 13.3574 20.5574 12.692 18.8824 12.692C17.2074 12.692 15.601 13.3574 14.4167 14.5418C13.2323 15.7262 12.5669 17.3326 12.5669 19.0076Z" stroke="url(#paint1_radial_65_197)" stroke-opacity="0.7" stroke-width="3.36828" stroke-linecap="round" stroke-linejoin="round"/>
<defs>
<radialGradient id="paint0_radial_65_197" cx="0" cy="0" r="1" gradientUnits="userSpaceOnUse" gradientTransform="translate(-8.99299 19.6511) rotate(14.6918) scale(54.1374 134.3)">
<stop stop-color="#0223BF"/>
<stop offset="1" stop-color="#4966F2"/>
</radialGradient>
<radialGradient id="paint1_radial_65_197" cx="0" cy="0" r="1" gradientUnits="userSpaceOnUse" gradientTransform="translate(-8.99299 19.4107) rotate(9.32315) scale(53.0684 85.7862)">
<stop stop-color="#0223BF"/>
<stop offset="1" stop-color="#4966F2"/>
</radialGradient>
</defs>
</svg>
