<svg width="60" height="59" viewBox="0 0 60 59" fill="none" xmlns="http://www.w3.org/2000/svg">
<path d="M36.3718 28.3272L16.1533 24.7654V51.0847C16.1531 51.3708 16.2093 51.6541 16.3188 51.9183C16.4282 52.1826 16.5888 52.4227 16.7913 52.6248C16.9937 52.8269 17.234 52.9871 17.4985 53.0961C17.763 53.2051 18.0464 53.2609 18.3324 53.2602H53.2203C53.5067 53.2614 53.7904 53.206 54.0553 53.0972C54.3202 52.9884 54.561 52.8283 54.7638 52.6261C54.9667 52.424 55.1276 52.1837 55.2373 51.9192C55.347 51.6547 55.4033 51.3711 55.4031 51.0847V41.3873L36.3718 28.3272Z" fill="#185C37"/>
<path d="M36.3718 5.76881H18.3324C18.0464 5.76808 17.763 5.82384 17.4985 5.93286C17.234 6.04189 16.9937 6.20205 16.7913 6.40415C16.5888 6.60626 16.4282 6.84634 16.3188 7.11063C16.2093 7.37491 16.1531 7.65821 16.1533 7.94427V17.6416L36.3718 29.5145L47.0775 33.0763L55.4031 29.5145V17.6416L36.3718 5.76881Z" fill="#21A366"/>
<path d="M16.1533 17.6416H36.3718V29.5144H16.1533V17.6416Z" fill="#107C41"/>
<path opacity="0.1" d="M30.6236 15.2671H16.1533V44.9492H30.6236C31.2001 44.9463 31.7524 44.7163 32.1606 44.3091C32.5688 43.9019 32.8002 43.3503 32.8045 42.7737V17.4426C32.8002 16.866 32.5688 16.3143 32.1606 15.9071C31.7524 15.4999 31.2001 15.27 30.6236 15.2671Z" fill="black"/>
<path opacity="0.2" d="M29.4344 16.4543H16.1533V46.1364H29.4344C30.011 46.1335 30.5633 45.9036 30.9715 45.4964C31.3797 45.0892 31.6111 44.5375 31.6154 43.9609V18.6298C31.6111 18.0532 31.3797 17.5016 30.9715 17.0944C30.5633 16.6872 30.011 16.4572 29.4344 16.4543Z" fill="black"/>
<path opacity="0.2" d="M29.4344 16.4543H16.1533V43.7618H29.4344C30.011 43.759 30.5633 43.529 30.9715 43.1218C31.3797 42.7146 31.6111 42.163 31.6154 41.5864V18.6298C31.6111 18.0532 31.3797 17.5016 30.9715 17.0944C30.5633 16.6872 30.011 16.4572 29.4344 16.4543Z" fill="black"/>
<path opacity="0.2" d="M28.2453 16.4543H16.1533V43.7618H28.2453C28.8219 43.759 29.3742 43.529 29.7824 43.1218C30.1906 42.7146 30.422 42.163 30.4263 41.5864V18.6298C30.422 18.0532 30.1906 17.5016 29.7824 17.0944C29.3742 16.6872 28.8219 16.4572 28.2453 16.4543Z" fill="black"/>
<path d="M6.43876 16.4544H28.2446C28.8222 16.4539 29.3764 16.6827 29.7853 17.0907C30.1943 17.4986 30.4246 18.0522 30.4255 18.6298V40.3991C30.4246 40.9767 30.1943 41.5303 29.7853 41.9383C29.3764 42.3462 28.8222 42.5751 28.2446 42.5746H6.43876C6.15255 42.5755 5.86896 42.52 5.60428 42.411C5.3396 42.3021 5.09903 42.142 4.89639 41.9399C4.69375 41.7377 4.53303 41.4976 4.42344 41.2332C4.31386 40.9688 4.25757 40.6853 4.25781 40.3991V18.6298C4.25757 18.3436 4.31386 18.0602 4.42344 17.7958C4.53303 17.5313 4.69375 17.2912 4.89639 17.0891C5.09903 16.8869 5.3396 16.7268 5.60428 16.6179C5.86896 16.509 6.15255 16.4534 6.43876 16.4544Z" fill="url(#paint0_linear_65_165)"/>
<path d="M11.0166 36.5887L15.6032 29.4942L11.402 22.4399H14.7757L17.0681 26.9571C17.28 27.3845 17.4334 27.7023 17.5028 27.9142H17.5339C17.6837 27.572 17.842 27.2396 18.0088 26.9169L20.4601 22.4472H23.5653L19.2563 29.4613L23.6749 36.5942H20.3706L17.722 31.6423C17.5994 31.4292 17.4949 31.2062 17.4097 30.9756H17.3658C17.2884 31.2003 17.1855 31.4155 17.059 31.6167L14.3319 36.5887H11.0166Z" fill="white"/>
<path d="M53.2224 5.76881H36.3721V17.6416H55.4033V7.94428C55.4035 7.65806 55.3473 7.37462 55.2377 7.11021C55.1281 6.8458 54.9674 6.60564 54.7647 6.40351C54.5621 6.20138 54.3215 6.04126 54.0568 5.93234C53.7922 5.82342 53.5086 5.76785 53.2224 5.76881Z" fill="#33C481"/>
<path d="M36.3721 29.5146H55.4033V41.3875H36.3721V29.5146Z" fill="#107C41"/>
<defs>
<linearGradient id="paint0_linear_65_165" x1="8.81332" y1="14.7447" x2="25.87" y2="44.2843" gradientUnits="userSpaceOnUse">
<stop stop-color="#18884F"/>
<stop offset="0.5" stop-color="#117E43"/>
<stop offset="1" stop-color="#0B6631"/>
</linearGradient>
</defs>
</svg>
