<svg width="54" height="54" viewBox="0 0 54 54" fill="none" xmlns="http://www.w3.org/2000/svg">
<g clip-path="url(#clip0_65_707)">
<path d="M26.6031 52.0712C19.8193 52.0712 13.4414 49.4291 8.64405 44.6322C3.84674 39.8353 1.20508 33.4573 1.20508 26.6732C1.20508 19.889 3.84715 13.511 8.64405 8.71412C13.4409 3.91722 19.8189 1.27515 26.6031 1.27515C33.3873 1.27515 39.7652 3.91722 44.5626 8.71412C49.3599 13.511 52.0011 19.889 52.0011 26.6732C52.0011 33.4573 49.359 39.8353 44.5621 44.6326C39.7652 49.4299 33.3873 52.0712 26.6031 52.0712Z" fill="white"/>
<path opacity="0.9" d="M26.6031 26.5833H52.0011M26.6031 26.5833L44.5621 8.62469M26.6031 26.5833V1.1853M26.6031 26.5833L8.64446 8.62469M26.6031 26.5833H1.20508M26.6031 26.5833L8.64446 44.5424M26.6031 26.5833V51.9813M26.6031 26.5833L44.5621 44.5424" stroke="#858585" stroke-width="0.660183" stroke-miterlimit="7.976" stroke-linecap="round" stroke-linejoin="round"/>
<path opacity="0.9" d="M29.4273 26.5834L29.3433 25.9003L29.0967 25.2588L28.7022 24.6955L28.1825 24.2444L27.5697 23.9322L26.9004 23.7771L26.2127 23.7896L25.5479 23.9679L24.9463 24.3009L24.4437 24.7699L24.0695 25.347L23.8454 25.9976L23.7852 26.6832L23.8928 27.3625L24.1614 27.9957L24.5747 28.5449L25.1093 28.9777L25.7329 29.2679L26.4077 29.3993L27.0949 29.3635L27.7526 29.1623L28.3422 28.8081L28.8286 28.3216L29.1824 27.7325L29.3836 27.0748L29.4273 26.5834Z" stroke="#818181" stroke-width="0.660183" stroke-miterlimit="199.409" stroke-linecap="square" stroke-linejoin="round"/>
<path opacity="0.9" d="M35.0715 26.5834L34.9892 25.4056L34.7439 24.2502L34.3394 23.1406L33.7852 22.0974L33.0909 21.1416L32.2706 20.2919L31.3402 19.5643L30.317 18.9739L29.2224 18.5316L28.0757 18.2455L26.9012 18.1221L25.7205 18.1632L24.5577 18.3686L23.4343 18.7332L22.3725 19.2512L21.393 19.9114L20.5154 20.7018L19.7562 21.6069L19.1301 22.608L18.6499 23.6873L18.3248 24.8223L18.1602 25.9922V27.1737L18.3248 28.3436L18.6499 29.4786L19.1301 30.5579L19.7562 31.559L20.5154 32.4641L21.393 33.2549L22.3725 33.9151L23.4343 34.4327L24.5577 34.7973L25.7209 35.0027L26.9017 35.0442L28.0757 34.9203L29.2224 34.6347L30.317 34.192L31.3402 33.6016L32.2706 32.874L33.0909 32.0243L33.7852 31.0684L34.3394 30.0249L34.7435 28.9157L34.9892 27.7603L35.0715 26.5834Z" stroke="#818181" stroke-width="0.660183" stroke-miterlimit="199.409" stroke-linecap="square" stroke-linejoin="round"/>
<path opacity="0.9" d="M40.715 26.5833L40.638 25.1083L40.4073 23.6494L40.0248 22.2234L39.496 20.8444L38.8254 19.5281L38.0209 18.29L37.0913 17.1417L36.0469 16.0978L34.8991 15.1682L33.6606 14.3637L32.3447 13.6931L30.9657 13.1638L29.5397 12.7818L28.0804 12.551L26.6053 12.4741L25.1302 12.551L23.6718 12.7818L22.2458 13.1643L20.8663 13.6931L19.5505 14.3637L18.312 15.1682L17.1641 16.0978L16.1198 17.1417L15.1901 18.29L14.3857 19.5281L13.7151 20.8444L13.1858 22.2234L12.8037 23.6494L12.573 25.1083L12.4961 26.5833L12.573 28.0584L12.8037 29.5173L13.1862 30.9433L13.7151 32.3223L14.3857 33.6386L15.1901 34.8767L16.1198 36.025L17.1641 37.0689L18.312 37.9985L19.5505 38.803L20.8663 39.474L22.2454 40.0028L23.6714 40.3853L25.1307 40.6161L26.6053 40.693L28.0808 40.6161L29.5392 40.3849L30.9653 40.0028L32.3447 39.474L33.6606 38.803L34.8991 37.9985L36.0469 37.0689L37.0913 36.025L38.0209 34.8767L38.8254 33.6386L39.496 32.3223L40.0248 30.9433L40.4073 29.5173L40.638 28.0584L40.715 26.5833Z" stroke="#818181" stroke-width="0.660183" stroke-miterlimit="199.409" stroke-linecap="square" stroke-linejoin="round"/>
<path opacity="0.9" d="M46.358 26.5834L46.2499 24.5188L45.9256 22.4771L45.3909 20.4798L44.6501 18.5499L43.7117 16.7073L42.5855 14.9732L41.2842 13.3659L39.8224 11.9038L38.2151 10.6025L36.4811 9.47621L34.6385 8.53829L32.7086 7.79784L30.7113 7.26277L28.6692 6.93891L26.6046 6.83081L24.54 6.93891L22.4986 7.26277L20.501 7.79784L18.5711 8.53829L16.7285 9.47663L14.9948 10.6033L13.3871 11.9046L11.9249 13.3664L10.6236 14.9736L9.4978 16.7073L8.55945 18.5503L7.81859 20.4802L7.28352 22.4775L6.96007 24.5192L6.85156 26.5838L6.95966 28.6484L7.28352 30.6901L7.81859 32.6878L8.55945 34.6177L9.4978 36.4599L10.6241 38.194L11.9253 39.8013L13.3871 41.2634L14.9944 42.5647L16.7285 43.691L18.5711 44.6293L20.501 45.3698L22.4982 45.9053L24.54 46.2287L26.6046 46.3368L28.6692 46.2287L30.7113 45.9053L32.7086 45.3698L34.6385 44.6293L36.4811 43.691L38.2147 42.5643L39.8224 41.2634L41.2842 39.8013L42.5855 38.194L43.7122 36.4603L44.6501 34.6177L45.3909 32.6878L45.926 30.6901L46.2495 28.6488L46.358 26.5834Z" stroke="#818181" stroke-width="0.660183" stroke-miterlimit="199.409" stroke-linecap="square" stroke-linejoin="round"/>
<path d="M26.6142 52.4497C19.7295 52.4497 13.2563 49.7685 8.38787 44.9001C3.51946 40.0317 0.837891 33.5585 0.837891 26.6733C0.837891 19.7881 3.51905 13.3154 8.38745 8.44653C13.2559 3.57771 19.729 0.896973 26.6142 0.896973C33.4994 0.896973 39.9726 3.57813 44.841 8.44653C49.7094 13.3149 52.3906 19.7881 52.3906 26.6733C52.3906 33.5585 49.7094 40.0317 44.841 44.9001C39.9726 49.7685 33.4994 52.4497 26.6142 52.4497ZM26.6142 1.65363C19.9315 1.65363 13.6483 4.25621 8.92293 8.9816C4.19713 13.7074 1.59455 19.9902 1.59455 26.6733C1.59455 33.3565 4.19713 39.6397 8.92252 44.365C13.6479 49.0904 19.9311 51.693 26.6142 51.693C33.2974 51.693 39.5806 49.0904 44.306 44.365C49.0313 39.6397 51.6339 33.3565 51.6339 26.6733C51.6339 19.9902 49.0313 13.7074 44.306 8.9816C39.5802 4.25621 33.2974 1.65363 26.6142 1.65363Z" fill="#11557C"/>
<path opacity="0.6" d="M26.6035 26.5833L26.6571 26.5658L26.7108 26.5484L26.7644 26.5309L26.818 26.5135L26.8717 26.496L26.9253 26.4785L26.9789 26.4611L27.0326 26.4436L27.0862 26.4261L27.1398 26.4087L27.1935 26.3912L27.2471 26.3738L27.3007 26.3563L27.3544 26.3388L27.408 26.3214L27.4616 26.3039L27.5153 26.2865L27.5689 26.269L27.6225 26.2515L27.6761 26.2341L27.7298 26.2166L27.7834 26.1991L27.837 26.1817L27.8907 26.1642L27.9443 26.1468L27.9979 26.1293L28.0516 26.1118L28.1052 26.0944L28.1588 26.0769L28.2125 26.0595L28.2661 26.042L28.3197 26.0245L28.3734 26.0071L28.427 25.9896L28.4806 25.9721L28.5342 25.9547L28.5879 25.9372L28.6415 25.9198L28.6951 25.9023L28.7488 25.8848L28.8024 25.8674L28.856 25.8499L28.9097 25.8325L28.9633 25.815L29.0169 25.7975L29.0706 25.7801L29.1242 25.7626L29.1778 25.7452L29.2315 25.7277L29.2851 25.7102L29.3387 25.6928L29.3924 25.6753L29.446 25.6578L29.4996 25.6404L29.5532 25.6229L29.6069 25.6055L29.6605 25.588L29.7141 25.5705L29.7678 25.5531L29.8214 25.5356L29.875 25.5182L29.9287 25.5007L29.9823 25.4832L30.0359 25.4658L30.0896 25.4483L30.1432 25.4308L30.1968 25.4134L30.2505 25.3959L30.3041 25.3785L30.3577 25.361L30.4113 25.3435L30.465 25.3261L30.5186 25.3086L30.5722 25.2912L30.6259 25.2737L30.6795 25.2562L30.7331 25.2388L30.7868 25.2213L30.8404 25.2038L30.894 25.1864L30.9477 25.1689L31.0013 25.1515L31.0549 25.134L31.1086 25.1165L31.1622 25.0991L31.2158 25.0816L31.2695 25.0642L31.3231 25.0467L31.3767 25.0292L31.4303 25.0118L31.484 24.9943L31.5376 24.9768L31.5912 24.9594L31.6449 24.9419L31.6985 24.9245L31.7521 24.907L31.8058 24.8895L31.8594 24.8721L31.913 24.8546L31.9667 24.8372L31.9771 24.8563L31.9825 24.8733L31.9879 24.8904L31.9933 24.9074L31.9987 24.9245L32.0041 24.9415L32.0091 24.9586L32.0141 24.9756L32.0186 24.9918L32.0236 25.0089L32.0286 25.0259L32.0336 25.043L32.0386 25.06L32.0432 25.077L32.0477 25.0941L32.0523 25.1111L32.0569 25.1282L32.0614 25.1452L32.066 25.1623L32.0706 25.1793L32.0752 25.1964L32.0793 25.2134L32.0835 25.2305L32.0876 25.2475L32.0918 25.2645L32.096 25.2816L32.1001 25.2991L32.1043 25.3165L32.108 25.334L32.1118 25.3514L32.1155 25.3689L32.1192 25.3864L32.123 25.4038L32.1267 25.4213L32.1305 25.4387L32.1342 25.4562L32.1379 25.4737L32.1413 25.4911L32.1446 25.5086L32.1479 25.5261L32.1513 25.5435L32.1546 25.561L32.1579 25.5784L32.1608 25.5959L32.1637 25.6134L32.1666 25.6308L32.1695 25.6483L32.1725 25.6657L32.1754 25.6832L32.1783 25.7007L32.1812 25.7181L32.1841 25.7356L32.1866 25.753L32.1891 25.7705L32.1916 25.788L32.1941 25.8054L32.1966 25.8229L32.1991 25.8404L32.2016 25.8578L32.2036 25.8753L32.2057 25.8927L32.2078 25.9102L32.2099 25.9277L32.2119 25.9451L32.214 25.9626L32.2161 25.98L32.2182 25.9975L32.2199 26.015L32.2215 26.0324L32.2232 26.0499L32.2248 26.0674L32.2265 26.0848L32.2282 26.1023L32.2298 26.1202L32.2311 26.138L32.2323 26.1559L32.2336 26.1738L32.2348 26.1917L32.2361 26.2095L32.2373 26.2274L32.2386 26.2453L32.2398 26.2632L32.2406 26.281L32.2415 26.2989L32.2423 26.3168L32.2431 26.3347L32.244 26.3526L32.2448 26.3704L32.2456 26.3883L32.246 26.4062L32.2465 26.4241L32.2469 26.4419L32.2473 26.4598L32.2477 26.4777L32.2481 26.4956L32.2485 26.5135V26.585H26.6596L26.6035 26.5833Z" fill="#004CFF"/>
<path opacity="0.6" d="M26.6035 26.5834L26.663 26.425L26.7224 26.2666L26.7819 26.1082L26.8413 25.9498L26.9008 25.7914L26.9602 25.633L27.0197 25.4746L27.0791 25.3162L27.1386 25.1578L27.198 24.9994L27.2575 24.841L27.3169 24.6826L27.3764 24.5242L27.4358 24.3658L27.4953 24.2074L27.5547 24.049L27.6142 23.8906L27.6737 23.7322L27.7331 23.5738L27.7926 23.4154L27.852 23.257L27.9115 23.0986L27.9709 22.9402L28.0304 22.7818L28.0898 22.6234L28.1493 22.465L28.2087 22.3066L28.2682 22.1482L28.3276 21.9898L28.3871 21.8314L28.4465 21.673L28.506 21.5146L28.5654 21.3562L28.6249 21.1978L28.6843 21.0394L28.7438 20.881L28.8032 20.7226L28.8627 20.5642L28.9221 20.4058L28.9816 20.2474L29.041 20.089L29.1005 19.9306L29.1599 19.7722L29.2194 19.6138L29.2789 19.4554L29.3383 19.297L29.3978 19.1386L29.4572 18.9802L29.5167 18.8218L29.5761 18.6634L29.6356 18.505L29.695 18.3466L29.7545 18.1882L29.8139 18.0298L29.8734 17.8714L29.9328 17.713L29.9923 17.5546L30.0517 17.3962L30.1112 17.2378L30.1706 17.0794L30.2301 16.921L30.2895 16.7626L30.349 16.6042L30.4084 16.4458L30.4679 16.2874L30.5273 16.129L30.5868 15.9706L30.6462 15.8122L30.7057 15.6538L30.7651 15.4954L30.8246 15.337L30.8841 15.1786L30.9435 15.0202L31.003 14.8618L31.0624 14.7034L31.1219 14.545L31.1813 14.3866L31.2408 14.2282L31.3002 14.0698L31.3597 13.9114L31.4191 13.753L31.4786 13.5946L31.538 13.4362L31.5975 13.2778L31.6569 13.1194L31.7164 12.961L31.7758 12.8026L31.8353 12.6442L31.8947 12.4858L31.9542 12.3274L32.0136 12.169L32.0731 12.0106L32.1325 11.8522L32.192 11.6938L32.2514 11.5354L32.3109 11.377L32.3704 11.2186L32.4344 11.0478L32.4938 10.8894L32.5533 10.731L32.6032 10.7497L32.6531 10.7688L32.7025 10.7879L32.752 10.807L32.8015 10.8266L32.851 10.8461L32.9004 10.8657L32.9499 10.8856L32.9994 10.9056L33.0484 10.9259L33.0975 10.9463L33.1465 10.9667L33.1956 10.9875L33.2447 11.0083L33.2937 11.029L33.3424 11.0503L33.391 11.0715L33.4397 11.0927L33.4883 11.1143L33.5369 11.1359L33.5856 11.1579L33.6338 11.18L33.682 11.202L33.7303 11.2244L33.7785 11.2469L33.8267 11.2694L33.8749 11.2922L33.9228 11.3151L33.9706 11.3379L34.0184 11.3612L34.0662 11.3845L34.114 11.4082L34.1618 11.4319L34.2092 11.4556L34.2566 11.4797L34.304 11.5038L34.3514 11.5279L34.3988 11.5525L34.4458 11.577L34.4927 11.6015L34.5397 11.6265L34.5867 11.6514L34.6337 11.6768L34.6807 11.7021L34.7272 11.7275L34.7738 11.7533L34.8203 11.7791L34.8669 11.8048L34.9135 11.831L34.9596 11.8572L35.0058 11.8834L35.0519 11.91L35.0981 11.9366L35.1442 11.9632L35.1899 11.9903L35.2357 12.0173L35.2814 12.0443L35.3271 12.0717L35.3729 12.0992L35.4182 12.1266L35.4635 12.1545L35.5088 12.1823L35.5541 12.2102L35.599 12.2385L35.6439 12.2667L35.6888 12.295L35.7337 12.3237L35.7786 12.3524L35.8231 12.3811L35.8676 12.4102L35.9121 12.4393L35.9566 12.4688L36.0011 12.4983L36.0451 12.5278L36.0892 12.5578L36.1333 12.5877L36.1773 12.6176L36.221 12.648L36.2647 12.6783L36.3083 12.7087L36.352 12.7394L36.3952 12.7702L36.4384 12.801L36.4817 12.8317L36.5249 12.8629L36.5682 12.8941L36.611 12.9253L36.6538 12.9569L36.6966 12.9885L36.7394 13.0201L36.7818 13.0521L36.8243 13.0841L36.8667 13.1161L36.9091 13.1485L36.9511 13.181L36.993 13.2134L37.035 13.2462L37.077 13.2791L37.1186 13.3119L37.1602 13.3452L37.0546 13.4774L36.949 13.6096L36.8434 13.7418L36.7378 13.874L36.6322 14.0062L36.5266 14.1384L36.421 14.2706L36.3154 14.4028L36.2098 14.535L36.1042 14.6673L35.9986 14.7995L35.893 14.9317L35.7874 15.0639L35.6826 15.1986L35.577 15.3308L35.4714 15.463L35.3658 15.5952L35.2602 15.7274L35.1546 15.8596L35.0494 15.9927L34.9438 16.1249L34.8382 16.2571L34.7326 16.3893L34.627 16.5215L34.5214 16.6537L34.4158 16.7859L34.3102 16.9181L34.2046 17.0503L34.099 17.1825L33.9934 17.3147L33.8878 17.4469L33.7822 17.5792L33.6766 17.7114L33.571 17.8436L33.4654 17.9758L33.3598 18.108L33.2542 18.2402L33.1486 18.3724L33.043 18.5046L32.9374 18.6368L32.8318 18.769L32.7262 18.9012L32.6206 19.0334L32.515 19.1656L32.4094 19.2979L32.3038 19.4301L32.1982 19.5623L32.0926 19.6945L31.987 19.8267L31.8814 19.9589L31.7758 20.0911L31.6711 20.2291L31.5655 20.3613L31.4599 20.4935L31.3543 20.6257L31.2487 20.758L31.1431 20.8902L31.0375 21.0232L30.9319 21.1554L30.8263 21.2876L30.7207 21.4198L30.6151 21.552L30.5095 21.6842L30.4039 21.8165L30.2983 21.9487L30.1927 22.0809L30.0871 22.2131L29.9815 22.3453L29.8759 22.4775L29.7703 22.6097L29.6647 22.7419L29.5591 22.8741L29.4535 23.0063L29.3479 23.1385L29.2423 23.2707L29.1367 23.4029L29.0311 23.5352L28.9255 23.6674L28.8199 23.7996L28.7143 23.9318L28.6095 24.0681L28.5039 24.2003L28.3983 24.3326L28.2927 24.4648L28.1871 24.597L28.0815 24.7292L27.9759 24.8614L27.8703 24.9936L27.7647 25.1258L27.6591 25.258L27.5535 25.3902L27.4479 25.5224L27.3423 25.6546L27.2367 25.7868L27.1311 25.919L27.0255 26.0513L26.9199 26.1835L26.8143 26.3157L26.7087 26.4479L26.6035 26.5834Z" fill="#CEFF29"/>
<path opacity="0.6" d="M26.6032 26.5833L26.4585 26.41L26.3138 26.2366L26.1692 26.0632L26.0245 25.8899L25.8798 25.7165L25.7351 25.5431L25.5904 25.3698L25.4458 25.1964L25.3011 25.023L25.1564 24.8497L25.0117 24.6763L24.867 24.5029L24.7224 24.3296L24.5777 24.1562L24.433 23.9828L24.2883 23.8095L24.1436 23.6361L23.999 23.4627L23.8543 23.2894L23.7096 23.116L23.5649 22.9426L23.4202 22.7693L23.2756 22.5959L23.1309 22.4225L22.9862 22.2492L22.8415 22.0758L22.6968 21.9024L22.5522 21.7291L22.4075 21.5557L22.2628 21.3823L22.1181 21.209L21.9734 21.0356L21.8288 20.8622L21.6841 20.6889L21.5394 20.5155L21.3947 20.3421L21.25 20.1688L21.1054 19.9954L20.9607 19.822L20.816 19.6487L20.6713 19.4753L20.5266 19.3019L20.382 19.1286L20.2373 18.9552L20.0926 18.7818L19.9479 18.6085L19.8032 18.4351L19.6585 18.2617L19.5139 18.0884L19.3692 17.915L19.2245 17.7416L19.0798 17.5683L18.9351 17.3949L18.7905 17.2215L18.6458 17.0482L18.5011 16.8748L18.3564 16.7014L18.2117 16.5281L18.0671 16.3547L17.9224 16.1813L17.7777 16.008L17.633 15.8346L17.4883 15.6612L17.3437 15.4879L17.199 15.3145L17.0543 15.1411L16.9096 14.9678L16.7649 14.7944L16.6203 14.621L16.4756 14.4477L16.3309 14.2743L16.1862 14.1009L16.0415 13.9276L15.8969 13.7542L15.7522 13.5808L15.6075 13.4075L15.4628 13.2341L15.3181 13.0607L15.1735 12.8874L15.0288 12.714L14.8841 12.5406L14.7394 12.3673L14.5947 12.1939L14.4501 12.0205L14.3054 11.8472L14.1607 11.6738L14.016 11.5004L13.8713 11.3271L13.7267 11.1537L13.582 10.9803L13.4373 10.807L13.2926 10.6336L13.1479 10.4602L13.0028 10.2927L12.8582 10.1193L12.7135 9.94595L12.5688 9.77258L12.4241 9.59921L12.2794 9.42585L12.1348 9.25248L12.2167 9.1843L12.299 9.11653L12.3813 9.04918L12.464 8.98224L12.5472 8.91572L12.6308 8.84962L12.7143 8.78393L12.7983 8.71866L12.8827 8.6538L12.9675 8.58936L13.0523 8.52534L13.1375 8.46173L13.2232 8.39854L13.3088 8.33576L13.3949 8.2734L13.4814 8.21145L13.5683 8.14992L13.6552 8.0888L13.7425 8.0281L13.8302 7.96782L13.9179 7.90795L14.006 7.8485L14.0946 7.78946L14.1832 7.73084L14.2721 7.67264L14.3615 7.61485L14.4509 7.55748L14.5407 7.50052L14.6309 7.44398L14.7211 7.38785L14.8118 7.33214L14.9028 7.27685L14.9939 7.22197L15.0853 7.16751L15.1768 7.11346L15.2687 7.05983L15.361 7.00661L15.4533 6.95381L15.546 6.90143L15.6387 6.84946L15.7318 6.79791L15.8254 6.74677L15.9189 6.69605L16.0129 6.64574L16.1068 6.59585L16.2012 6.5468L16.2956 6.49815L16.3904 6.44993L16.4851 6.40212L16.5804 6.35472L16.676 6.30774L16.7716 6.26118L16.8676 6.21503L16.9637 6.1693L17.0601 6.12398L17.1566 6.07908L17.2534 6.03459L17.3503 5.99094L17.4476 5.9477L17.5449 5.90488L17.6426 5.86248L17.7403 5.82048L17.8384 5.77891L17.9365 5.73775L18.0351 5.69701L18.1336 5.65668L18.2321 5.61718L18.3311 5.5781L18.43 5.53944L18.5294 5.50119L18.6287 5.46336L18.7285 5.42594L18.8283 5.38894L18.9281 5.35235L19.0283 5.3166L19.1285 5.28126L19.2291 5.24634L19.3297 5.21183L19.4303 5.17774L19.5313 5.14406L19.6324 5.1108L19.7338 5.07838L19.8352 5.04636L19.9367 5.01477L20.0385 4.98358L20.1404 4.95282L20.2423 4.92247L20.3445 4.89254L20.4468 4.86343L20.5491 4.83475L20.6518 4.80648L20.7545 4.77862L20.8571 4.75118L20.9603 4.72416L21.0634 4.69797L21.1665 4.67219L21.27 4.64683L21.3735 4.62188L21.477 4.59736L21.5806 4.57324L21.6309 4.79317L21.6812 5.0131L21.7315 5.23303L21.7818 5.45296L21.8321 5.67289L21.8824 5.89282L21.9327 6.11275L21.983 6.33269L22.0333 6.55262L22.0836 6.77255L22.1339 6.99248L22.1842 7.21241L22.2345 7.43234L22.2848 7.65227L22.3351 7.8722L22.3854 8.09213L22.4357 8.31206L22.486 8.53199L22.5364 8.75192L22.5867 8.97185L22.637 9.19178L22.6873 9.41171L22.7376 9.63164L22.7879 9.85157L22.8382 10.0715L22.8885 10.2914L22.9388 10.5114L22.9891 10.7313L23.0394 10.9512L23.0897 11.1712L23.14 11.3911L23.1903 11.611L23.2406 11.8309L23.2876 12.0567L23.3379 12.2766L23.3882 12.4966L23.4385 12.7165L23.4888 12.9364L23.5391 13.1564L23.5894 13.3763L23.6397 13.5962L23.6901 13.8161L23.7404 14.0361L23.7907 14.256L23.841 14.4759L23.8913 14.6959L23.9416 14.9158L23.9919 15.1357L24.0422 15.3557L24.0925 15.5756L24.1428 15.7955L24.1931 16.0154L24.2434 16.2354L24.2937 16.4553L24.344 16.6752L24.3943 16.8952L24.4446 17.1151L24.4949 17.335L24.5452 17.555L24.5956 17.7749L24.6459 17.9948L24.6962 18.2147L24.7465 18.4347L24.7968 18.6546L24.8471 18.8745L24.8974 19.0945L24.9477 19.3144L24.998 19.5343L25.0483 19.7543L25.0986 19.9742L25.1489 20.1941L25.1992 20.4141L25.2495 20.634L25.2998 20.8539L25.3501 21.0738L25.4004 21.2938L25.4507 21.5137L25.501 21.7336L25.5514 21.9536L25.6017 22.1735L25.652 22.3934L25.7023 22.6134L25.7526 22.8333L25.8029 23.0532L25.8532 23.2731L25.9035 23.4931L25.9538 23.713L26.0041 23.9329L26.0544 24.1529L26.1047 24.3728L26.155 24.5927L26.2053 24.8127L26.2556 25.0326L26.3059 25.2525L26.3562 25.4725L26.4065 25.6924L26.4569 25.9123L26.5072 26.1322L26.5575 26.3522L26.6032 26.5833Z" fill="#FF6800"/>
<path opacity="0.6" d="M26.605 26.5834L26.4104 26.6188L26.2158 26.6541L26.0213 26.6894L25.8267 26.7248L25.6321 26.7601L25.4376 26.7955L25.243 26.8308L25.0484 26.8661L24.8538 26.9015L24.6614 26.936L24.4668 26.9713L24.2722 27.0067L24.0776 27.042L23.8831 27.0773L23.6885 27.1127L23.4939 27.148L23.2994 27.1834L23.1048 27.2187L22.9102 27.254L22.7157 27.2894L22.5211 27.3247L22.329 27.3592L22.1344 27.3946L21.9399 27.4299L21.7453 27.4652L21.5516 27.5006L21.357 27.5359L21.1624 27.5712L20.9679 27.6066L20.7733 27.6419L20.5787 27.6773L20.3841 27.7126L20.1896 27.7479L19.995 27.7833L19.8004 27.8186L19.6059 27.854L19.4113 27.8893L19.2167 27.9246L19.0222 27.96L18.8276 27.9953L18.633 28.0306L18.4384 28.066L18.2439 28.1013L18.0493 28.1367L17.8547 28.172L17.6602 28.2073L17.4656 28.2427L17.271 28.278L17.0765 28.3134L16.8869 28.347L16.6923 28.3824L16.4977 28.4177L16.3032 28.453L16.1086 28.4884L15.914 28.5237L15.7195 28.5591L15.5249 28.5944L15.3303 28.6297L15.1357 28.6651L14.9412 28.7004L14.7466 28.7358L14.552 28.7711L14.3575 28.8064L14.1629 28.8418L13.9683 28.8771L13.7738 28.9124L13.5792 28.9478L13.3846 28.9831L13.19 29.0185L12.9955 29.0538L12.8009 29.0891L12.6063 29.1245L12.4118 29.1598L12.2172 29.1952L12.0226 29.2305L11.8281 29.2658L11.6335 29.3012L11.4389 29.3365L11.2444 29.3718L11.0498 29.4072L10.8552 29.4425L10.6606 29.4779L10.4661 29.5132L10.2715 29.5485L10.0769 29.5839L9.88985 29.6167L9.69528 29.6521L9.50071 29.6874L9.30614 29.7227L9.1124 29.7581L8.91783 29.7934L8.72326 29.8288L8.52869 29.8641L8.33412 29.8994L8.13955 29.9348L7.94498 29.9701L7.75041 30.0054L7.55584 30.0408L7.36127 30.0761L7.1667 30.1115L7.14508 29.9892L7.12388 29.867L7.10351 29.7444L7.08397 29.6217L7.06526 29.4991L7.04946 29.3756L7.03241 29.2525L7.0162 29.1295L7.0004 29.0064L6.98543 28.8833L6.9713 28.7599L6.95799 28.6364L6.94552 28.5129L6.93388 28.3894L6.92307 28.266L6.91309 28.1421L6.90353 28.0182L6.8948 27.8943L6.8869 27.7704L6.87983 27.6465L6.8736 27.5226L6.86819 27.3987L6.86362 27.2748L6.85988 27.1509L6.85655 27.027L6.85406 26.9031L6.85239 26.7788L6.85156 26.6545V26.5302L6.85239 26.4059L6.85406 26.2816L6.85614 26.1577L6.85905 26.0338L6.86279 25.9099L6.86736 25.786L6.87277 25.6621L6.879 25.5382L6.88607 25.4143L6.89397 25.2905L6.90228 25.1666L6.91143 25.0427L6.92141 24.9188L6.93222 24.7953L6.94386 24.6718L6.95633 24.5483L6.96963 24.4249L6.98377 24.3014L6.99832 24.1783L7.0137 24.0553L7.02992 23.9322L7.04696 23.8091L7.06484 23.6865L7.08355 23.5639L7.10309 23.4412L7.12305 23.3186L7.14383 23.1963L7.16545 23.0741L7.1879 22.9519L7.21118 22.8301L7.2353 22.7082L7.25983 22.5864L7.28519 22.465L7.31138 22.3436L7.3384 22.2227L7.36626 22.1017L7.39494 21.9807L7.42405 21.8601L7.45398 21.7396L7.48475 21.6194L7.51634 21.4993L7.54877 21.3795L7.58203 21.2598L7.61571 21.1405L7.65021 21.0211L7.68555 20.9022L7.72172 20.7833L7.75872 20.6648L7.79614 20.5464L7.83439 20.4283L7.87347 20.3106L7.91338 20.193L7.95371 20.0757L7.99487 19.9585L8.03686 19.8417L8.07968 19.7253L8.12333 19.6088L8.1674 19.4929L8.2123 19.3773L8.25804 19.2617L8.3046 19.1465L8.35158 19.0318L8.39939 18.917L8.44803 18.8027L8.49709 18.6888L8.54698 18.5753L8.5977 18.4618L8.64925 18.3487L8.70122 18.2361L8.75402 18.1238L8.80765 18.012L8.98559 18.0976L9.16353 18.1833L9.34147 18.2689L9.51941 18.3545L9.69735 18.4402L9.87529 18.5258L10.0532 18.6115L10.2312 18.6971L10.4091 18.7828L10.5871 18.8684L10.765 18.954L10.9429 19.0397L11.1209 19.1253L11.2988 19.211L11.4768 19.2966L11.6547 19.3823L11.8326 19.4679L12.0106 19.5536L12.1885 19.6392L12.3665 19.7248L12.5444 19.8105L12.7223 19.8961L12.9003 19.9818L13.0782 20.0674L13.2562 20.1531L13.4341 20.2387L13.612 20.3244L13.79 20.41L13.9679 20.4956L14.1459 20.5813L14.3238 20.6669L14.5017 20.7526L14.6797 20.8382L14.8576 20.9239L15.0356 21.0095L15.2135 21.0951L15.3914 21.1808L15.5694 21.2664L15.7473 21.3521L15.9253 21.4377L16.1032 21.5234L16.2811 21.609L16.4591 21.6947L16.637 21.7803L16.815 21.8659L16.9929 21.9516L17.1708 22.0372L17.3488 22.1229L17.5267 22.2085L17.7047 22.2942L17.8826 22.3798L18.0605 22.4655L18.2385 22.5511L18.4164 22.6367L18.5944 22.7224L18.7723 22.808L18.9502 22.8937L19.1282 22.9793L19.3061 23.065L19.4841 23.1506L19.662 23.2362L19.8399 23.3219L20.0179 23.4075L20.1958 23.4932L20.3738 23.5788L20.5517 23.6645L20.7296 23.7501L20.9076 23.8358L21.0855 23.9214L21.2635 24.007L21.4414 24.0927L21.6193 24.1783L21.7973 24.264L21.9752 24.3496L22.1532 24.4353L22.3311 24.5209L22.509 24.6066L22.687 24.6922L22.8649 24.7778L23.0429 24.8635L23.2208 24.9491L23.3987 25.0348L23.5767 25.1204L23.7546 25.2061L23.9325 25.2917L24.1105 25.3773L24.2884 25.463L24.4664 25.5486L24.6443 25.6343L24.8222 25.7199L25.0002 25.8056L25.1781 25.8912L25.3561 25.9769L25.534 26.0625L25.7119 26.1481L25.8899 26.2338L26.0678 26.3194L26.2458 26.4051L26.4237 26.4907L26.605 26.5834Z" fill="#FFC400"/>
<path opacity="0.6" d="M26.604 26.5835L26.5113 26.6479L26.4186 26.7124L26.3259 26.7768L26.2332 26.8413L26.1405 26.9057L26.0478 26.9701L25.955 27.0346L25.8619 27.0974L25.7692 27.1618L25.6765 27.2262L25.5838 27.2907L25.4911 27.3551L25.3984 27.4196L25.3056 27.484L25.2129 27.5484L25.1202 27.6129L25.0275 27.6773L24.9348 27.7418L24.8421 27.8062L24.7494 27.8706L24.6567 27.9351L24.564 27.9995L24.4712 28.064L24.3785 28.1284L24.2858 28.1929L24.1931 28.2573L24.1004 28.3217L24.0077 28.3862L23.915 28.4506L23.8223 28.5151L23.7295 28.5795L23.6368 28.6439L23.5441 28.7084L23.4514 28.7728L23.3587 28.8373L23.266 28.9017L23.1733 28.9661L23.0806 29.0306L22.9879 29.095L22.8951 29.1595L22.8024 29.2239L22.7097 29.2883L22.617 29.3528L22.5243 29.4172L22.4316 29.4817L22.3389 29.5461L22.2462 29.6106L22.1534 29.675L22.0607 29.7394L21.968 29.8039L21.8753 29.8683L21.7826 29.9328L21.6899 29.9972L21.5972 30.0616L21.5007 30.1186L21.408 30.183L21.3153 30.2475L21.2226 30.3119L21.1299 30.3764L21.0372 30.4408L20.9445 30.5052L20.8517 30.5697L20.759 30.6341L20.6663 30.6986L20.5736 30.763L20.4809 30.8274L20.3882 30.8919L20.2955 30.9563L20.2028 31.0208L20.11 31.0852L20.0173 31.1497L19.9246 31.2141L19.8319 31.2785L19.7392 31.343L19.6465 31.4074L19.5538 31.4719L19.4611 31.5363L19.3684 31.6007L19.2756 31.6652L19.1829 31.7296L19.0902 31.7941L18.9975 31.8585L18.9048 31.9229L18.8121 31.9874L18.7194 32.0518L18.6267 32.1163L18.5339 32.1807L18.4412 32.2451L18.3485 32.3096L18.2558 32.374L18.1631 32.4385L18.0704 32.5029L17.9777 32.5674L17.885 32.6318L17.7923 32.6962L17.6995 32.7607L17.6068 32.8251L17.5141 32.8896L17.4181 32.9469L17.3254 33.0114L17.3154 32.9968L17.3054 32.9823L17.2954 32.9677L17.2855 32.9532L17.2755 32.9386L17.2655 32.9241L17.2555 32.9095L17.2455 32.895L17.2356 32.8804L17.2256 32.8659L17.2156 32.8513L17.2056 32.8368L17.1957 32.8218L17.1857 32.8068L17.1761 32.7919L17.1666 32.7769L17.157 32.7619L17.1474 32.747L17.1379 32.732L17.1283 32.717L17.1187 32.7021L17.1092 32.6871L17.0996 32.6721L17.0901 32.6572L17.0805 32.6422L17.0709 32.6272L17.0614 32.6123L17.0518 32.5973L17.0422 32.5823L17.0327 32.5674L17.0231 32.5524L17.0136 32.5374L17.0044 32.5224L16.9953 32.5075L16.9861 32.4925L16.977 32.4775L16.9678 32.4626L16.9587 32.4476L16.9495 32.4326L16.9404 32.4177L16.9312 32.4023L16.9221 32.3869L16.913 32.3715L16.9038 32.3562L16.8947 32.3408L16.8855 32.3254L16.8764 32.31L16.8672 32.2946L16.8581 32.2792L16.8493 32.2639L16.8406 32.2485L16.8319 32.2331L16.8231 32.2177L16.8144 32.2023L16.8057 32.1869L16.797 32.1716L16.7882 32.1562L16.7795 32.1408L16.7708 32.1254L16.762 32.11L16.7533 32.0946L16.7446 32.0793L16.7358 32.0639L16.7271 32.0485L16.7184 32.0331L16.7096 32.0177L16.7009 32.0023L16.6926 31.987L16.6843 31.9716L16.676 31.9562L16.6677 31.9404L16.6593 31.9246L16.651 31.9088L16.6427 31.893L16.6344 31.8772L16.6261 31.8614L16.6178 31.8456L16.6095 31.8298L16.6011 31.814L16.5928 31.7982L16.5845 31.7824L16.5762 31.7666L16.5679 31.7508L16.56 31.735L16.5521 31.7192L16.5442 31.7034L16.5363 31.6876L16.5284 31.6718L16.5205 31.656L16.5126 31.6402L16.5047 31.6244L16.4968 31.6086L16.4889 31.5928L16.481 31.577L16.4731 31.5612L16.4652 31.5454L16.4573 31.5296L16.4494 31.5126L16.4415 31.4968L16.4336 31.481L16.5355 31.4319L16.6373 31.3829L16.7392 31.3338L16.841 31.2848L16.9429 31.2357L17.0447 31.1867L17.1466 31.1376L17.2485 31.0885L17.3503 31.0395L17.4522 30.9904L17.554 30.9414L17.6559 30.8923L17.7577 30.8432L17.8596 30.7942L17.9615 30.7451L18.0633 30.6961L18.1652 30.647L18.267 30.598L18.3689 30.5489L18.4708 30.4998L18.5726 30.4508L18.6745 30.4017L18.7763 30.3527L18.8782 30.3036L18.98 30.2545L19.0819 30.2055L19.1838 30.1564L19.2856 30.1074L19.3875 30.0583L19.4893 30.0093L19.5912 29.9602L19.6931 29.9111L19.7949 29.8621L19.8968 29.813L19.9986 29.764L20.1005 29.7149L20.2023 29.6658L20.3042 29.6168L20.4061 29.5677L20.5079 29.5187L20.6098 29.4696L20.7116 29.4206L20.8135 29.3715L20.9154 29.3224L21.0172 29.2734L21.1191 29.2243L21.2209 29.1753L21.3228 29.1262L21.4246 29.0771L21.5265 29.0281L21.6284 28.979L21.7302 28.93L21.8321 28.8809L21.9339 28.8319L22.0358 28.7828L22.1376 28.7337L22.2395 28.6847L22.3414 28.6356L22.4432 28.5866L22.5451 28.5375L22.6469 28.4885L22.7488 28.4394L22.8507 28.3903L22.9525 28.3413L23.0544 28.2922L23.1562 28.2432L23.2581 28.1941L23.3599 28.145L23.4618 28.096L23.5637 28.0469L23.6655 27.9979L23.7674 27.9488L23.8692 27.8998L23.9711 27.8507L24.073 27.8016L24.1748 27.7526L24.2767 27.7035L24.3785 27.6545L24.4804 27.6054L24.5822 27.5563L24.6841 27.5073L24.786 27.4582L24.8878 27.4092L24.9897 27.3601L25.0915 27.3111L25.1934 27.262L25.2953 27.2129L25.3971 27.1639L25.499 27.1148L25.6008 27.0658L25.7027 27.0167L25.8045 26.9676L25.9064 26.9186L26.0083 26.8695L26.1101 26.8205L26.212 26.7714L26.3138 26.7224L26.4157 26.6733L26.5176 26.6242L26.604 26.5835Z" fill="#29FFCE"/>
<path opacity="0.6" d="M26.6042 26.5835L26.6279 26.7228L26.6515 26.862L26.6752 27.0013L26.6989 27.1406L26.7226 27.2799L26.7463 27.4191L26.77 27.5584L26.7937 27.6977L26.8174 27.837L26.8411 27.9763L26.8648 28.1155L26.8885 28.2548L26.9122 28.3941L26.9359 28.5334L26.9596 28.6726L26.9833 28.8119L27.007 28.9512L27.0307 29.0905L27.0544 29.2297L27.0781 29.369L27.1018 29.5083L27.1255 29.6476L27.1492 29.7868L27.1729 29.9261L27.1966 30.0654L27.2203 30.2047L27.244 30.3439L27.2677 30.4832L27.2914 30.6225L27.3151 30.7618L27.3388 30.901L27.3625 31.0403L27.3862 31.1796L27.4099 31.3189L27.4336 31.4581L27.4573 31.5974L27.481 31.7367L27.5047 31.876L27.5284 32.0152L27.5521 32.1545L27.5758 32.2938L27.5995 32.4331L27.6232 32.5723L27.6468 32.7116L27.6705 32.8509L27.6942 32.9902L27.7179 33.1294L27.7416 33.2687L27.7653 33.408L27.789 33.5473L27.8127 33.6865L27.8364 33.8258L27.8601 33.9651L27.8838 34.1044L27.9075 34.2436L27.9312 34.3829L27.9549 34.5222L27.9786 34.6615L28.0023 34.8007L28.026 34.94L28.0497 35.0793L28.0734 35.2186L28.0971 35.3578L28.1208 35.4971L28.1445 35.6364L28.1682 35.7757L28.1919 35.9149L28.2156 36.0542L28.2393 36.1935L28.263 36.3328L28.2867 36.4721L28.3104 36.6113L28.3341 36.7506L28.3578 36.8899L28.3815 37.0292L28.4052 37.1684L28.4289 37.3077L28.4526 37.447L28.4763 37.5863L28.5 37.7255L28.5237 37.8648L28.5474 38.0041L28.5711 38.1434L28.5948 38.2826L28.6185 38.4219L28.6421 38.5612L28.6658 38.7005L28.6895 38.8397L28.7132 38.979L28.7369 39.1183L28.7606 39.2576L28.7843 39.3968L28.808 39.5361L28.8317 39.6754L28.8554 39.8147L28.8791 39.9539L28.9028 40.0932L28.9265 40.2325L28.9502 40.3718L28.9739 40.511L28.9195 40.5202L28.8646 40.5293L28.8097 40.5381L28.7548 40.5468L28.6999 40.5551L28.6451 40.563L28.5902 40.5709L28.5353 40.5784L28.4804 40.5859L28.4255 40.5929L28.3707 40.6L28.3158 40.6067L28.2609 40.6133L28.206 40.6195L28.1511 40.6258L28.0963 40.6316L28.041 40.6374L27.9857 40.6428L27.9304 40.6482L27.8751 40.6532L27.8198 40.6582L27.7645 40.6628L27.7092 40.6674L27.6539 40.6715L27.5986 40.6757L27.5433 40.6794L27.488 40.6832L27.4327 40.6865L27.3774 40.6894L27.3222 40.6923L27.2669 40.6952L27.2116 40.6977L27.1563 40.6998L27.101 40.7019L27.0457 40.7035L26.9904 40.7052L26.9351 40.7064L26.8798 40.7077L26.8245 40.7085L26.7692 40.7094L26.7139 40.7098L26.6586 40.7102H26.548L26.4927 40.7098L26.4374 40.7094L26.3821 40.7085L26.3268 40.7077L26.2716 40.7064L26.2163 40.7052L26.161 40.7035L26.0974 40.684L26.0421 40.6819L25.9868 40.6798L25.9315 40.6773L25.8762 40.6744L25.8205 40.6715L25.7652 40.6682L25.7099 40.6649L25.6546 40.6611L25.5993 40.6574L25.544 40.6532L25.4887 40.6491L25.4334 40.6445L25.3781 40.6399L25.3228 40.6349L25.2675 40.6299L25.2122 40.6245L25.1569 40.6191L25.1016 40.6133L25.0468 40.6071L24.9927 40.6008L24.9378 40.5946L24.883 40.588L24.8281 40.5809L24.7732 40.5738L24.7183 40.5663L24.6634 40.5589L24.6086 40.551L24.5537 40.5431L24.4988 40.5347L24.4439 40.5264L24.3891 40.5177L24.3342 40.509L24.2797 40.4998L24.2252 40.4907L24.1708 40.4811L24.1163 40.4715L24.0619 40.4616L24.0074 40.4516L23.9529 40.4412L23.8985 40.4308L23.844 40.42L23.7895 40.4092L23.7351 40.398L23.681 40.3867L23.627 40.3751L23.5729 40.3634L23.5189 40.3514L23.4648 40.3393L23.4964 40.2017L23.528 40.0641L23.5596 39.9265L23.5912 39.7889L23.6228 39.6513L23.6544 39.5137L23.686 39.376L23.7176 39.2384L23.7492 39.1008L23.7808 38.9632L23.8124 38.8256L23.844 38.688L23.8756 38.5504L23.9072 38.4128L23.9388 38.2751L23.9704 38.1375L24.002 37.9999L24.0336 37.8623L24.0652 37.7247L24.0968 37.5871L24.1284 37.4495L24.16 37.3119L24.1916 37.1743L24.2232 37.0366L24.2548 36.899L24.2864 36.7614L24.318 36.6238L24.3496 36.4862L24.3812 36.3486L24.4127 36.211L24.4443 36.0733L24.4759 35.9357L24.5075 35.7981L24.5391 35.6605L24.5707 35.5229L24.6023 35.3853L24.6339 35.2477L24.6655 35.1101L24.6971 34.9724L24.7287 34.8348L24.7603 34.6972L24.7919 34.5596L24.8235 34.422L24.8551 34.2844L24.8867 34.1468L24.9183 34.0092L24.9499 33.8716L24.9815 33.7339L25.0131 33.5963L25.0447 33.4587L25.0763 33.3211L25.1079 33.1835L25.1395 33.0459L25.1711 32.9083L25.2027 32.7707L25.2343 32.633L25.2659 32.4954L25.2975 32.3578L25.3291 32.2202L25.3607 32.0826L25.3922 31.945L25.4238 31.8074L25.4554 31.6698L25.487 31.5321L25.5186 31.3945L25.5502 31.2569L25.5818 31.1193L25.6134 30.9817L25.645 30.8441L25.6766 30.7065L25.7082 30.5689L25.7398 30.4312L25.7714 30.2936L25.803 30.156L25.8346 30.0184L25.8662 29.8808L25.8978 29.7432L25.9294 29.6056L25.961 29.468L25.9926 29.3303L26.0242 29.1927L26.0558 29.0551L26.0874 28.9175L26.119 28.7799L26.1506 28.6423L26.1822 28.5047L26.2138 28.3671L26.2454 28.2294L26.277 28.0918L26.3086 27.9542L26.3402 27.8166L26.3718 27.679L26.4033 27.5414L26.4349 27.4038L26.4665 27.2662L26.4981 27.1285L26.5297 26.9909L26.5613 26.8533L26.5929 26.7157L26.6042 26.5835Z" fill="#7DFF7A"/>
<path opacity="0.6" d="M26.6035 26.5835L26.7815 26.7224L26.9594 26.8612L27.1373 27.0001L27.3153 27.1389L27.4932 27.2778L27.6712 27.4167L27.8491 27.5555L28.027 27.6944L28.205 27.8332L28.3829 27.9721L28.5609 28.111L28.7388 28.2498L28.9167 28.3887L29.0947 28.5275L29.2747 28.6647L29.4526 28.8036L29.6306 28.9424L29.8085 29.0813L29.9865 29.2202L30.1644 29.359L30.3423 29.4979L30.5203 29.6367L30.6982 29.7756L30.8762 29.9145L31.0541 30.0533L31.232 30.1922L31.41 30.331L31.5879 30.4699L31.7659 30.6088L31.9438 30.7476L32.1217 30.8865L32.2997 31.0253L32.4776 31.1642L32.6556 31.3031L32.8335 31.4419L33.0114 31.5808L33.1894 31.7196L33.3673 31.8585L33.5453 31.9974L33.7232 32.1362L33.9011 32.2751L34.0791 32.4139L34.257 32.5528L34.435 32.6917L34.6129 32.8305L34.7908 32.9694L34.9688 33.1082L35.1467 33.2471L35.3247 33.386L35.5026 33.5248L35.6805 33.6637L35.8585 33.8025L36.0364 33.9414L36.2144 34.0803L36.3923 34.2191L36.5702 34.358L36.7482 34.4968L36.9261 34.6357L37.1041 34.7746L37.282 34.9134L37.4599 35.0523L37.6379 35.1911L37.8158 35.33L37.9938 35.4689L38.1717 35.6077L38.3496 35.7466L38.5276 35.8854L38.7055 36.0243L38.8835 36.1631L39.0614 36.302L39.2393 36.4409L39.4173 36.5797L39.5952 36.7186L39.7732 36.8575L39.9511 36.9963L40.129 37.1352L40.307 37.274L40.4849 37.4129L40.6629 37.5517L40.8408 37.6906L41.0187 37.8295L41.1967 37.9683L41.3746 38.1072L41.5526 38.246L41.7305 38.3849L41.9084 38.5238L42.0864 38.6626L42.2643 38.8015L42.4423 38.9403L42.6202 39.0792L42.7981 39.2181L42.9761 39.3569L43.154 39.4958L43.3319 39.6346L43.5099 39.7735L43.6878 39.9124L43.8658 40.0512L44.0437 40.1901L44.2216 40.3289L44.3996 40.4678L44.3667 40.5098L44.3339 40.5518L44.3011 40.5934L44.2682 40.6349L44.235 40.6765L44.2017 40.7181L44.1684 40.7597L44.1352 40.8012L44.1015 40.8424L44.0678 40.8835L44.0341 40.9247L44.0005 40.9659L43.9664 41.007L43.9323 41.0478L43.8982 41.0885L43.8641 41.1293L43.8296 41.17L43.7951 41.2107L43.7606 41.2511L43.7261 41.2914L43.6916 41.3317L43.6566 41.3721L43.6217 41.4124L43.5868 41.4523L43.5519 41.4922L43.5165 41.5321L43.4812 41.572L43.4459 41.6119L43.4105 41.6514L43.3752 41.6909L43.3394 41.7304L43.3037 41.7699L43.2679 41.8094L43.2322 41.8485L43.196 41.8876L43.1598 41.9267L43.1237 41.9657L43.0875 42.0048L43.0513 42.0435L43.0147 42.0822L42.9781 42.1208L42.9416 42.1595L42.905 42.1981L42.868 42.2364L42.831 42.2746L42.794 42.3129L42.757 42.3511L42.72 42.3894L42.6826 42.4272L42.6451 42.4651L42.6077 42.5029L42.5703 42.5407L42.5329 42.5781L42.495 42.6156L42.4572 42.653L42.4194 42.6904L42.3816 42.7278L42.3433 42.7648L42.3051 42.8018L42.2668 42.8388L42.2286 42.8758L42.1903 42.9128L42.1516 42.9494L42.113 42.986L42.0743 43.0226L42.0357 43.0592L41.997 43.0953L41.9579 43.1315L41.9188 43.1677L41.8797 43.2038L41.8407 43.24L41.8016 43.2758L41.7733 43.3032L41.7338 43.339L41.6943 43.3747L41.6548 43.41L41.6153 43.4454L41.5754 43.4807L41.5355 43.5161L41.4956 43.551L41.4557 43.5859L41.4158 43.6208L41.3754 43.6558L41.3351 43.6907L41.2948 43.7252L41.2545 43.7597L41.2141 43.7942L41.1734 43.8287L41.1326 43.8628L41.0919 43.8969L41.0512 43.931L41.0104 43.9651L40.9693 43.9992L40.9281 44.0328L40.8869 44.0665L40.8458 44.1002L40.8046 44.1339L40.763 44.1671L40.7215 44.2004L40.6799 44.2336L40.539 44.057L40.3984 43.8807L40.2575 43.704L40.1166 43.5273L39.9756 43.3506L39.8347 43.1739L39.6937 42.9972L39.5528 42.8205L39.4119 42.6438L39.2709 42.4671L39.13 42.2904L38.9891 42.1137L38.8481 41.9371L38.7072 41.7604L38.5662 41.5837L38.4253 41.407L38.2844 41.2303L38.1434 41.0536L38.0025 40.8769L37.8615 40.7002L37.7206 40.5235L37.5797 40.3468L37.4387 40.1701L37.2978 39.9934L37.1569 39.8167L37.0197 39.6446L36.8787 39.4679L36.7378 39.2912L36.5968 39.1145L36.4559 38.9378L36.315 38.7612L36.174 38.5845L36.0331 38.4078L35.8921 38.2311L35.7512 38.0544L35.6103 37.8777L35.4693 37.701L35.3284 37.5243L35.1875 37.3476L35.0465 37.1709L34.9056 36.9942L34.7646 36.8175L34.6237 36.6408L34.4828 36.4642L34.3418 36.2875L34.2009 36.1108L34.06 35.9341L33.919 35.7574L33.7781 35.5807L33.6371 35.404L33.4962 35.2273L33.3553 35.0506L33.2143 34.8739L33.0734 34.6972L32.9324 34.5205L32.7915 34.3438L32.6506 34.1671L32.5096 33.9905L32.3687 33.8138L32.2277 33.6371L32.0868 33.4604L31.9459 33.2837L31.8049 33.107L31.664 32.9303L31.5231 32.7536L31.3821 32.5769L31.2412 32.4002L31.1002 32.2235L30.9593 32.0468L30.8184 31.8701L30.6774 31.6934L30.5365 31.5168L30.3956 31.3401L30.2546 31.1634L30.1137 30.9867L29.9727 30.81L29.8318 30.6333L29.6909 30.4566L29.5499 30.2799L29.409 30.1032L29.268 29.9265L29.1271 29.7498L28.9862 29.5731L28.8452 29.3964L28.7043 29.2198L28.5634 29.0431L28.4224 28.8664L28.2815 28.6897L28.1405 28.513L27.9996 28.3363L27.8587 28.1596L27.7177 27.9829L27.5768 27.8062L27.4358 27.6295L27.2949 27.4528L27.154 27.2761L27.013 27.0994L26.8721 26.9227L26.7311 26.7461L26.6035 26.5835Z" fill="#FF6800"/>
<path d="M32.2478 26.7556L26.6036 26.7552C26.563 26.7547 26.5239 26.7399 26.4932 26.7133C26.4624 26.6867 26.4421 26.6502 26.4357 26.6101C26.4294 26.57 26.4374 26.5289 26.4584 26.4941C26.4793 26.4594 26.5119 26.4331 26.5504 26.4201L31.9185 24.6765C31.94 24.6694 31.9626 24.6667 31.9851 24.6685C32.0076 24.6702 32.0295 24.6764 32.0497 24.6866C32.0698 24.6969 32.0877 24.711 32.1024 24.7281C32.117 24.7453 32.1282 24.7652 32.1351 24.7866C32.3243 25.3678 32.4199 25.9728 32.4195 26.5839C32.4195 26.6064 32.4151 26.6288 32.4064 26.6496C32.3978 26.6704 32.3852 26.6894 32.3692 26.7053C32.3533 26.7213 32.3343 26.7339 32.3135 26.7425C32.2927 26.7512 32.2703 26.7556 32.2478 26.7556ZM27.6891 26.4114H32.0732C32.0595 25.9526 31.9874 25.4974 31.8587 25.0569L27.6891 26.4114Z" fill="#2C2C2C"/>
<path d="M26.6033 26.7553C26.5756 26.7552 26.5483 26.7484 26.5237 26.7355C26.4992 26.7227 26.4781 26.704 26.4623 26.6813C26.4465 26.6585 26.4365 26.6322 26.433 26.6047C26.4295 26.5772 26.4327 26.5493 26.4424 26.5233L32.3922 10.6713C32.3999 10.65 32.4118 10.6305 32.4272 10.6139C32.4426 10.5974 32.4611 10.584 32.4817 10.5746C32.5023 10.5653 32.5245 10.5601 32.5471 10.5594C32.5697 10.5587 32.5922 10.5625 32.6133 10.5706C34.2942 11.2002 35.8652 12.0913 37.268 13.2111C37.3037 13.2395 37.3266 13.2809 37.3317 13.3262C37.3368 13.3714 37.3238 13.4169 37.2955 13.4526L26.7376 26.6904C26.7214 26.7105 26.7009 26.7267 26.6777 26.7379C26.6545 26.7491 26.6291 26.7551 26.6033 26.7553ZM32.6532 10.9536L27.1458 25.6274L36.9188 13.3732C35.6237 12.3613 34.1863 11.546 32.6532 10.9536Z" fill="#2C2C2C"/>
<path d="M26.6036 26.7552C26.5785 26.755 26.5538 26.7494 26.531 26.7388C26.5083 26.7282 26.4881 26.7128 26.4719 26.6937L12.0034 9.36322C11.9888 9.34599 11.9777 9.32602 11.9709 9.30447C11.964 9.28293 11.9616 9.26023 11.9636 9.23771C11.9656 9.2152 11.9721 9.1933 11.9826 9.17331C11.9932 9.15332 12.0076 9.13562 12.025 9.12126C14.7817 6.82159 18.0427 5.20588 21.5423 4.40585C21.5868 4.39579 21.6335 4.4038 21.6721 4.42812C21.7107 4.45244 21.738 4.49109 21.7481 4.53556L26.7716 26.5457C26.7801 26.5833 26.7757 26.6228 26.7591 26.6577C26.7426 26.6926 26.7147 26.7209 26.6801 26.7381C26.6562 26.7493 26.6301 26.7551 26.6036 26.7552ZM12.3776 9.27509L26.2765 25.9233L21.4509 4.77961C18.1236 5.56759 15.0202 7.10519 12.3776 9.27509Z" fill="#2C2C2C"/>
<path d="M7.16676 30.2823C7.12652 30.2825 7.08749 30.2684 7.0566 30.2427C7.02571 30.2169 7.00494 30.181 6.99797 30.1413C6.24422 26.0321 6.83125 21.6979 8.6514 17.9371C8.67123 17.896 8.70653 17.8645 8.74955 17.8495C8.79258 17.8344 8.83981 17.8371 8.88089 17.8568L26.6782 26.4275C26.7111 26.4431 26.7382 26.4688 26.7556 26.5008C26.773 26.5329 26.7797 26.5696 26.7748 26.6057C26.7699 26.6418 26.7536 26.6754 26.7283 26.7017C26.703 26.7279 26.67 26.7455 26.6341 26.7517L7.19794 30.2794C7.18771 30.2816 7.17724 30.2826 7.16676 30.2823ZM8.88629 18.2422C7.18048 21.8501 6.6213 25.9793 7.30604 29.911L26.0521 26.5089L8.88629 18.2422Z" fill="#2C2C2C"/>
<path d="M17.3257 33.1834C17.2979 33.1833 17.2705 33.1765 17.2458 33.1636C17.2212 33.1508 17.1999 33.1322 17.1839 33.1094C16.8426 32.6155 16.54 32.096 16.2788 31.5554C16.269 31.535 16.2633 31.513 16.262 31.4904C16.2607 31.4679 16.2639 31.4453 16.2713 31.424C16.2788 31.4027 16.2904 31.383 16.3054 31.3662C16.3205 31.3494 16.3387 31.3357 16.3591 31.3259L26.5291 26.4284C26.5682 26.4081 26.6136 26.4037 26.656 26.416C26.6983 26.4283 26.7342 26.4564 26.7564 26.4945C26.7786 26.5326 26.7852 26.5777 26.775 26.6206C26.7648 26.6635 26.7386 26.7008 26.7016 26.7248L17.4238 33.1531C17.3951 33.1733 17.3608 33.1839 17.3257 33.1834ZM16.6646 31.5604C16.8744 31.9784 17.11 32.3828 17.3702 32.7714L24.7106 27.686L16.6646 31.5604Z" fill="#2C2C2C"/>
<path d="M26.6092 40.8634C25.5366 40.8634 24.4619 40.7441 23.4246 40.5071C23.3801 40.4968 23.3416 40.4694 23.3174 40.4307C23.2931 40.3921 23.2852 40.3454 23.2953 40.3009L26.435 26.5447C26.4533 26.4648 26.5277 26.3975 26.6075 26.4112C26.6474 26.4121 26.6856 26.4268 26.7157 26.4529C26.7458 26.4791 26.7658 26.5149 26.7722 26.5542L29.1357 40.4651C29.1433 40.5101 29.1327 40.5563 29.1063 40.5935C29.0799 40.6306 29.0397 40.6558 28.9948 40.6635C28.2067 40.7974 27.4086 40.8643 26.6092 40.8634ZM23.669 40.209C25.332 40.5666 27.0865 40.6165 28.7678 40.3521L26.578 27.4643L23.669 40.209Z" fill="#2C2C2C"/>
<path d="M40.6787 44.4059C40.6527 44.406 40.6272 44.4002 40.6038 44.389C40.5805 44.3778 40.56 44.3613 40.5439 44.341L26.468 26.6904C26.4414 26.6576 26.4278 26.6161 26.4299 26.5739C26.432 26.5317 26.4495 26.4917 26.4792 26.4617C26.509 26.4316 26.5487 26.4136 26.5909 26.411C26.6331 26.4084 26.6747 26.4214 26.7079 26.4476L44.5156 40.3249C44.5516 40.3529 44.575 40.3942 44.5806 40.4395C44.5862 40.4848 44.5736 40.5304 44.5455 40.5664C43.446 41.9774 42.1837 43.2537 40.7851 44.3689C40.755 44.3932 40.7174 44.4063 40.6787 44.4059ZM27.6429 27.6122L40.7057 43.9922C41.9849 42.9554 43.1461 41.7811 44.1684 40.4904L27.6429 27.6122Z" fill="#2C2C2C"/>
</g>
<defs>
<clipPath id="clip0_65_707">
<rect width="53.2157" height="53.2157" fill="white" transform="translate(0.00585938 0.0654297)"/>
</clipPath>
</defs>
</svg>
