<svg width="82" height="56" viewBox="0 0 82 56" fill="none" xmlns="http://www.w3.org/2000/svg">
<g clip-path="url(#clip0_65_691)">
<path d="M24.7161 36.5714L27.1537 44.4928C27.7014 46.2914 27.9298 47.5469 27.8383 48.2625C29.1715 44.6864 30.103 40.7894 30.633 36.5714H33.564C32.3036 43.4384 30.6416 48.4284 28.5781 51.5413C26.9704 53.9401 25.2093 55.1394 23.2915 55.1394C22.7801 55.1394 22.1497 54.9847 21.4017 54.6775V53.0222C21.7672 53.0759 22.196 53.1046 22.6891 53.1046C23.5836 53.1044 24.3051 52.8564 24.8535 52.3606C25.5104 51.7567 25.8392 51.0779 25.8392 50.3256C25.8392 49.8119 25.5828 48.7577 25.0722 47.163L21.6759 36.5714H24.7161ZM6.06013 31.7026L10.5249 45.346H10.5525L15.0447 31.7026H18.7149C19.5185 38.4688 19.9932 44.6596 20.1389 50.2711H17.0446C16.9355 45.0257 16.6343 40.0927 16.141 35.4723H16.114L11.402 50.2711H9.04558L4.36211 35.4723H4.33454C3.98728 39.9097 3.76817 44.8426 3.6772 50.2711H0.855469C1.03782 43.6688 1.49417 37.4799 2.22451 31.7026H6.06013Z" fill="#00758F"/>
<path d="M56.0778 31.4269C60.8804 31.4269 63.2819 34.5 63.2819 40.6431C63.2819 43.9813 62.5597 46.5028 61.1167 48.2063C60.8566 48.5176 60.5692 48.7865 60.2665 49.0357L63.6652 50.7187L63.6619 50.7186L62.4552 52.8057L58.0291 50.2192C57.2953 50.4367 56.4885 50.5455 55.6086 50.5455C53.2504 50.5455 51.4889 49.8572 50.3243 48.4823C49.046 46.9613 48.4071 44.5668 48.4071 41.303C48.4071 37.9836 49.1281 35.4716 50.5715 33.766C51.8862 32.2058 53.7219 31.4269 56.0778 31.4269ZM41.3707 31.4537C43.0872 31.4537 44.648 31.9138 46.0538 32.8305L45.3398 34.4242C44.1368 33.9121 42.9507 33.6549 41.7811 33.6549C40.8321 33.6549 40.1008 33.8837 39.591 34.344C39.0784 34.8003 38.7614 35.3874 38.7614 36.1032C38.7614 37.203 39.5437 38.1568 40.9883 38.9627C41.4615 39.2218 41.9331 39.4838 42.4031 39.7489L42.5108 39.8096L42.5649 39.8401L42.6728 39.9008L42.7267 39.9312L42.8345 39.9921C43.928 40.6095 44.9569 41.1988 44.9569 41.1988C46.4013 42.2257 47.1213 43.3206 47.1213 45.1238C47.1213 46.6986 46.5451 47.9913 45.3965 49.0029C44.2471 50.0099 42.7029 50.5148 40.7691 50.5148C38.9605 50.5148 37.2076 49.9336 35.5098 48.781L36.304 47.186C37.7652 47.9195 39.0874 48.2858 40.2747 48.2858C41.3882 48.2858 42.2599 48.0368 42.8904 47.5451C43.5197 47.0498 43.8968 46.359 43.8968 45.483C43.8968 44.3804 43.131 43.4379 41.7263 42.6473C41.2866 42.404 40.8482 42.1584 40.4111 41.9104L40.3035 41.8493C40.1058 41.7375 39.9067 41.6242 39.7117 41.5132L39.6059 41.453C38.6573 40.9126 37.8372 40.4405 37.8372 40.4405C36.433 39.4117 35.7288 38.3079 35.7288 36.4891C35.7288 34.9849 36.2539 33.7691 37.3026 32.8442C38.3538 31.9172 39.7099 31.4537 41.3707 31.4537ZM68.9261 31.7023V47.9866H74.7598V50.2708H65.9675V31.7024L68.9261 31.7023ZM78.0013 47.9937V48.3797H77.36V50.2687H76.8696V48.3797H76.2034V47.9937H78.0013ZM79.1857 47.9937L79.8015 49.5445L80.3672 47.9937H81.0623V50.2687H80.6002V48.5373L79.9563 50.2687H79.6231L78.9781 48.5373H78.9534V50.2687H78.5161V47.9937H79.1857ZM55.7757 33.7104C52.9455 33.7104 51.5297 36.0498 51.5297 40.7254C51.5297 43.4037 51.9049 45.3458 52.6538 46.5563C53.3475 47.6766 54.434 48.2356 55.9133 48.2356C58.7435 48.2356 60.1592 45.878 60.1592 41.1651C60.1592 38.5243 59.784 36.5988 59.036 35.3877C58.3415 34.2699 57.2555 33.7104 55.7759 33.7104" fill="#F29111"/>
<path d="M48.3578 1.5883C49.2967 -0.722208 52.5794 1.02754 53.8534 1.83464C54.1656 2.03657 54.5237 2.46318 54.8817 2.62086C55.4402 2.64283 55.9982 2.68661 56.5576 2.70998C57.6069 2.95694 58.5898 3.15872 59.4167 3.63036C63.2592 5.89678 65.7605 8.20636 68.0626 12.0212C68.5545 12.8293 68.8003 13.7037 69.2022 14.5781C69.7599 15.8814 70.3865 17.2496 71.0338 18.4821C71.3236 19.0664 71.5478 19.7161 71.9503 20.2095C72.1074 20.4352 72.5537 20.5017 72.8205 20.6365C73.5581 21.0188 74.4516 21.3091 75.1453 21.7578C76.4407 22.5668 77.6932 23.5308 78.8318 24.5177C79.2562 24.8987 79.5454 25.4379 79.9497 25.8408V26.0442C79.5908 26.1545 79.2332 26.2675 78.8752 26.358C78.0933 26.5591 77.4007 26.5136 76.6422 26.7149C76.1735 26.8511 75.5915 27.0308 75.0999 27.0764L75.1453 27.1222C75.4345 27.9499 76.9992 28.623 77.7148 29.118C78.584 29.7462 79.3894 30.5082 80.0376 31.3832C80.2615 31.6065 80.4853 31.8096 80.7081 32.0323C80.8638 32.2579 80.9077 32.5497 81.0653 32.7509V32.819C80.8908 32.7573 80.7653 32.6396 80.6464 32.5166L80.5754 32.4424C80.5044 32.3687 80.4329 32.2962 80.3512 32.2364C79.8581 31.8991 79.3684 31.4955 78.8752 31.1819C78.0274 30.6431 77.044 30.3304 76.1735 29.7895C75.6812 29.4756 75.2121 29.118 74.7429 28.7587C74.3175 28.4438 73.8491 27.8391 73.5819 27.3904C73.4244 27.1425 73.4028 26.8511 73.223 26.6718C73.2551 26.3723 73.5291 26.2833 73.8056 26.2102L73.8692 26.1934C73.9646 26.1686 74.058 26.1438 74.1394 26.111C75.3009 25.6171 76.6856 25.4379 78.4737 25.4828C78.4063 25.0331 77.289 24.4728 76.9323 24.2036C76.2164 23.6868 75.4583 23.1475 74.6988 22.6771C74.2964 22.4308 73.6029 22.251 73.157 22.0497C72.5537 21.8027 71.2129 21.5559 70.8786 21.0855C70.3107 20.344 69.9027 19.4596 69.5067 18.5662L69.3989 18.3223L69.2908 18.0787C68.8227 17.0028 68.2412 15.8811 67.772 14.7795C67.5267 14.2421 67.4141 13.7705 67.1454 13.2551C65.5151 10.0923 63.102 7.44429 60.1764 5.58204C59.215 4.97609 58.143 4.41533 56.9596 4.03422C56.289 3.83135 55.4841 3.94353 54.7695 3.78789H54.2992C53.8979 3.67461 53.5628 3.24847 53.2496 3.02378C52.558 2.5534 51.8652 2.23756 51.0381 1.90195C50.7483 1.76733 49.9206 1.45384 49.6318 1.70064C49.4529 1.74568 49.3622 1.8133 49.3181 1.99311C49.1402 2.26141 49.2967 2.66558 49.4074 2.91301C49.743 3.63005 50.2117 4.05619 50.6372 4.66214C51.0157 5.19952 51.4858 5.80547 51.7542 6.38976C52.3332 7.64575 52.6028 9.0373 53.1393 10.2931C53.3383 10.7654 53.653 11.3028 53.9427 11.7288C54.1882 12.0669 54.6345 12.3113 54.7695 12.7394C55.0387 13.1881 54.3666 14.6688 54.211 15.139C53.6291 16.979 53.7419 19.5366 54.412 21.1315L54.4478 21.2156L54.4835 21.3008C54.7282 21.8849 54.9901 22.5139 55.6407 22.6773C55.6855 22.6327 55.6407 22.6561 55.7295 22.6327C55.887 21.3982 55.9313 20.2094 56.3562 19.2435C56.6017 18.6396 57.0918 18.2127 57.4279 17.7197C57.6519 17.854 57.6519 18.259 57.7854 18.5269C58.0761 19.222 58.3883 19.9841 58.7468 20.6812C59.4824 22.1168 60.3102 23.5087 61.2481 24.7645C61.5622 25.2131 62.0079 25.7068 62.4099 26.1109C62.589 26.2673 62.7895 26.3577 62.9241 26.559H62.9679V26.6268C62.2978 26.3793 61.8729 25.6849 61.3384 25.2795C60.332 24.5174 59.1268 23.373 58.4332 22.2748C58.143 21.6444 57.8294 21.0402 57.5167 20.4129V20.3675C57.3831 20.5467 57.4279 20.7246 57.361 20.9958C57.0708 22.1168 57.2942 23.3957 56.289 23.7989C55.1494 24.2712 54.2994 23.0369 53.9427 22.476C52.8028 20.6142 52.4906 17.4734 53.2944 14.938C53.473 14.3768 53.4973 13.7037 53.8091 13.2556C53.7417 12.8504 53.4299 12.7397 53.2496 12.4915C52.9369 12.0672 52.6692 11.573 52.4244 11.1018C51.9541 10.1814 51.6194 9.0817 51.2624 8.09464C51.1054 7.69157 51.0605 7.28692 50.904 6.90534C50.637 6.32293 50.145 5.73863 49.7654 5.22337C49.2514 4.4828 47.7544 3.04748 48.3578 1.5883ZM55.685 5.98386C55.7447 6.0438 55.8168 6.0962 55.8914 6.14782L55.9813 6.20964C56.1011 6.2928 56.2172 6.38035 56.2883 6.49959C56.4011 6.65744 56.4221 6.81324 56.5572 6.97139C56.5572 7.51066 56.4011 7.86918 56.0861 8.0926C56.0861 8.0926 56.0646 8.11614 56.0425 8.1381C55.864 7.77865 55.7074 7.42107 55.5276 7.06193C55.3061 6.74844 54.9929 6.49975 54.8125 6.14155H54.7691V6.09652C55.0387 6.02984 55.3061 5.98386 55.685 5.98386Z" fill="#00758F"/>
</g>
<defs>
<clipPath id="clip0_65_691">
<rect width="80.2092" height="54.7582" fill="white" transform="translate(0.855469 0.437744)"/>
</clipPath>
</defs>
</svg>
