<svg width="55" height="54" viewBox="0 0 55 54" fill="none" xmlns="http://www.w3.org/2000/svg">
<path d="M27.2373 0.80835C13.7169 0.80835 14.5611 6.67159 14.5611 6.67159L14.5761 12.7461H27.4783V14.5698H9.4515C9.4515 14.5698 0.799805 13.5886 0.799805 27.2306C0.799805 40.873 8.35122 40.3891 8.35122 40.3891H12.8579V34.0585C12.8579 34.0585 12.6149 26.5071 20.2887 26.5071H33.0855C33.0855 26.5071 40.2751 26.6233 40.2751 19.5586V7.8776C40.2751 7.8776 41.367 0.80835 27.2373 0.80835ZM20.123 4.89333C20.4278 4.89305 20.7298 4.9529 21.0115 5.06945C21.2933 5.186 21.5492 5.35696 21.7648 5.57255C21.9804 5.78814 22.1514 6.04413 22.2679 6.32586C22.3845 6.60759 22.4443 6.90954 22.4441 7.21443C22.4443 7.51932 22.3845 7.82127 22.2679 8.103C22.1514 8.38474 21.9804 8.64072 21.7648 8.85631C21.5492 9.0719 21.2933 9.24286 21.0115 9.35941C20.7298 9.47596 20.4278 9.53581 20.123 9.53554C19.8181 9.53581 19.5161 9.47596 19.2344 9.35941C18.9526 9.24286 18.6967 9.0719 18.4811 8.85631C18.2655 8.64072 18.0945 8.38474 17.978 8.103C17.8614 7.82127 17.8016 7.51932 17.8018 7.21443C17.8016 6.90954 17.8614 6.60759 17.978 6.32586C18.0945 6.04413 18.2655 5.78814 18.4811 5.57255C18.6967 5.35696 18.9526 5.186 19.2344 5.06945C19.5161 4.9529 19.8181 4.89305 20.123 4.89333Z" fill="url(#paint0_linear_65_177)"/>
<path d="M27.6211 53.7902C41.1414 53.7902 40.2973 47.9269 40.2973 47.9269L40.2822 41.8526H27.3798V40.0289H45.4066C45.4066 40.0289 54.0583 41.0101 54.0583 27.3677C54.0583 13.7256 46.5069 14.2094 46.5069 14.2094H42.0002V20.5398C42.0002 20.5398 42.2432 28.0912 34.5694 28.0912H21.7726C21.7726 28.0912 14.583 27.975 14.583 35.0399V46.7211C14.583 46.7211 13.4913 53.7902 27.6208 53.7902M34.7351 49.7056C34.4303 49.7059 34.1283 49.646 33.8466 49.5295C33.5648 49.4129 33.3089 49.242 33.0933 49.0264C32.8777 48.8108 32.7067 48.5548 32.5902 48.2731C32.4736 47.9913 32.4138 47.6894 32.414 47.3845C32.4137 47.0796 32.4736 46.7776 32.5901 46.4959C32.7066 46.2141 32.8776 45.9581 33.0932 45.7425C33.3088 45.5269 33.5648 45.3559 33.8465 45.2393C34.1283 45.1228 34.4302 45.0629 34.7351 45.0632C35.04 45.0629 35.342 45.1228 35.6237 45.2393C35.9055 45.3559 36.1614 45.5268 36.377 45.7424C36.5926 45.958 36.7636 46.214 36.8801 46.4957C36.9967 46.7775 37.0565 47.0794 37.0563 47.3843C37.0565 47.6892 36.9967 47.9911 36.8801 48.2729C36.7636 48.5546 36.5926 48.8106 36.377 49.0262C36.1614 49.2418 35.9055 49.4127 35.6237 49.5293C35.342 49.6458 35.04 49.7059 34.7351 49.7056Z" fill="url(#paint1_linear_65_177)"/>
<defs>
<linearGradient id="paint0_linear_65_177" x1="512.613" y1="477.347" x2="3151.95" y2="3090.35" gradientUnits="userSpaceOnUse">
<stop stop-color="#387EB8"/>
<stop offset="1" stop-color="#366994"/>
</linearGradient>
<linearGradient id="paint1_linear_65_177" x1="770.02" y1="828.784" x2="3604.36" y2="3508.18" gradientUnits="userSpaceOnUse">
<stop stop-color="#FFE052"/>
<stop offset="1" stop-color="#FFC331"/>
</linearGradient>
</defs>
</svg>
