<svg width="55" height="51" viewBox="0 0 55 51" fill="none" xmlns="http://www.w3.org/2000/svg">
<path d="M35.5245 29.0117C33.761 26.6194 31.0661 25.6219 27.2151 24.8163L23.6339 23.9794L20.9323 22.8301C19.5129 21.8349 18.3005 19.1837 18.6446 16.8472C18.9084 15.1011 19.8568 13.529 21.2833 12.4733C22.7098 11.4175 24.499 10.9636 26.2613 11.2102C27.132 11.3296 27.9703 11.6188 28.7278 12.0612C29.4853 12.5036 30.147 13.0904 30.6747 13.7877L34.744 19.09C37.0677 22.058 39.6815 22.944 42.5249 21.5403L43.9578 20.9378C44.0679 20.8889 44.1923 20.8817 44.3075 20.9174C44.4226 20.9532 44.5207 21.0295 44.5831 21.1319L44.8688 21.5559C44.9478 21.691 45.0719 21.7944 45.2197 21.8482C45.3438 21.8944 45.4781 21.9067 45.6087 21.8839C45.7392 21.8612 45.8612 21.8042 45.962 21.7188L49.262 18.6303C49.8401 18.1393 49.6714 17.6885 49.6714 17.6885L48.8751 15.8899C48.8751 15.8899 48.6569 15.4592 47.9055 15.5574L43.4786 15.9613C43.3749 15.9756 43.2755 16.0118 43.187 16.0673C43.0985 16.1229 43.023 16.1965 42.9655 16.2834C42.908 16.3702 42.8698 16.4682 42.8536 16.5708C42.8373 16.6735 42.8434 16.7783 42.8713 16.8785L43.031 17.3851C43.0625 17.4899 43.0625 17.6082 43.0197 17.7153C42.9951 17.7784 42.9576 17.8357 42.9096 17.8837C42.8616 17.9317 42.8041 17.9693 42.7408 17.9943L41.4901 18.5187C40.1809 19.2797 38.6918 18.7932 37.6975 17.5881L36.5615 16.093L33.3268 11.8306C32.538 10.7914 31.5498 9.91724 30.419 9.25849C29.2882 8.59974 28.0373 8.16941 26.7382 7.99226C21.2585 7.22459 16.1747 10.9893 15.3784 16.3898C14.9758 19.1123 15.7991 21.6898 17.3017 23.7585C18.3927 25.2626 20.3902 26.124 21.4722 26.3918L24.311 27.1952L27.0284 27.8133C27.4018 27.9026 28.4545 28.1592 29.0754 28.3824C29.6512 28.5877 30.9762 29.0742 32.0536 29.9467C33.3403 31.2455 34.0219 33.1 33.7317 35.0437C33.5517 36.2341 33.0221 37.3455 32.2089 38.2389C31.3958 39.1324 30.3353 39.7682 29.1599 40.0671C27.9845 40.3659 26.7464 40.3144 25.6004 39.9191C24.4543 39.5238 23.4511 38.8021 22.7162 37.8443L18.8336 32.7295C18.0079 31.6466 16.7833 30.9325 15.4279 30.7434C14.754 30.6479 14.0678 30.6853 13.4085 30.8534C12.7492 31.0215 12.1298 31.317 11.5858 31.7231L3.41583 37.7707C1.31384 34.08 0.211049 29.9122 0.214854 25.6732C0.214854 11.8328 11.7613 0.60791 26.0049 0.60791C36.611 0.60791 45.7123 6.8296 49.6759 15.7158L50.9828 15.1133L51.8668 12.721L52.7914 13.0424L51.9973 15.1847L54.2018 15.9367L53.8689 16.8338L51.4057 15.9814L50.0493 16.5995C51.174 19.4158 51.7994 22.4731 51.7994 25.6732C51.7994 39.5158 40.2484 50.7385 26.0049 50.7385C21.9651 50.7515 17.9781 49.8282 14.3617 48.0421C10.7453 46.256 7.59945 43.6565 5.1749 40.4508L13.5451 34.2291C13.9528 33.9534 14.4517 33.8437 14.9386 33.9226C15.4255 34.0015 15.8632 34.2631 16.1612 34.6531L20.2687 40.1317C21.7756 41.9608 23.9231 43.1579 26.2815 43.4836C31.4598 44.2021 36.2669 40.6427 37.0182 35.5324C37.3585 33.25 36.8257 30.924 35.5245 29.0117Z" fill="#0D56A6"/>
</svg>
