<svg width="79" height="80" viewBox="0 0 79 80" fill="none" xmlns="http://www.w3.org/2000/svg">
<g clip-path="url(#clip0_65_731)">
<path d="M60.5347 54.8038C70.1407 45.204 71.7386 31.2284 64.0993 23.5953C56.4601 15.9622 42.4844 17.5601 32.8785 27.1599C23.2725 36.7597 26.0505 55.1111 29.3139 58.3684C31.9505 61.005 50.9288 64.4036 60.5347 54.8038Z" fill="#F89939"/>
<path d="M21.1156 40.9325C15.5414 35.3644 7.42885 34.4364 2.99771 38.8614C-1.43344 43.2925 -0.505416 51.3989 5.06885 56.967C10.6431 62.5413 21.2939 60.9249 23.1868 59.0381C24.7171 57.5078 26.696 46.5006 21.1156 40.9325Z" fill="#3499CD"/>
<path d="M76.2951 53.2981C75.9386 53.2981 75.7604 53.083 75.7604 52.6466C75.7604 52.3209 75.9755 51.608 76.3996 50.5202C77.0203 48.9284 77.3338 47.7853 77.3338 47.0908C77.3338 46.6729 77.2108 46.3226 76.965 46.046C76.7192 45.7694 76.4119 45.6281 76.0431 45.6281C75.5023 45.6281 74.8816 45.8801 74.1809 46.3902C73.4803 46.9003 72.54 47.816 71.3539 49.1435C71.5259 48.2831 71.8947 47.1031 72.4478 45.6035L69.799 46.1136C69.1967 47.4165 68.7603 48.5904 68.4899 49.6352C68.3547 50.1453 68.2564 50.6738 68.1888 51.2085C67.3591 52.0136 66.8182 52.4991 66.5847 52.6774C66.345 52.8556 66.093 52.9416 65.8349 52.9416C65.5952 52.9416 65.4047 52.8494 65.2633 52.6712C65.122 52.493 65.0544 52.2471 65.0544 51.946C65.0544 51.6203 65.1158 51.2454 65.2388 50.8213C65.4231 50.1852 65.6321 49.5983 66.0561 48.4244L67.0641 45.6465L66.0746 45.6895C65.1773 47.3981 64.1264 48.32 62.9218 48.449C63.2475 47.6009 63.4134 46.9494 63.4134 46.4946C63.4134 45.9169 63.1307 45.6281 62.5653 45.6281C61.8954 45.6281 61.373 45.9415 60.9981 46.5745C60.6171 47.2076 60.4266 47.8037 60.4266 48.363C60.4266 49.2019 60.74 49.3156 61.3607 49.5921C60.9551 50.1883 60.5003 50.7476 60.0086 51.2761C59.4248 51.8538 58.97 52.2963 58.6381 52.5852C58.3001 52.8863 57.9867 53.0338 57.704 53.0338C57.2615 53.0338 57.0402 52.7204 57.0402 52.0996C57.0402 51.4789 57.286 50.4095 57.7777 48.8116L58.7365 45.6281H58.128L55.9094 46.8572C55.5468 46.0276 54.9137 45.6096 54.0103 45.6096C53.2913 45.6096 52.4677 45.9169 51.5335 46.5254C50.5994 47.1338 49.8311 47.9266 49.235 48.9161C48.7741 49.6782 48.4914 50.4771 48.3869 51.3007C47.551 52.1365 46.9242 52.6774 46.5062 52.9293C46.0699 53.1875 45.6151 53.3165 45.1357 53.3165C43.9127 53.3165 43.1568 52.6098 42.8679 51.1962C46.0576 50.262 47.6494 49.0452 47.6494 47.5456C47.6494 46.9802 47.4466 46.5254 47.0409 46.1751C46.6353 45.8247 46.0945 45.6527 45.4246 45.6527C44.1278 45.6527 42.9478 46.2734 41.8846 47.5149C40.9197 48.6395 40.3973 49.8871 40.3051 51.2577C39.4263 52.1242 38.7625 52.6958 38.3323 52.9724C37.8898 53.2551 37.4719 53.3964 37.0847 53.3964C36.6975 53.3964 36.3902 53.212 36.1628 52.8433C35.9293 52.4745 35.8125 51.9767 35.8125 51.3437C35.8125 51.061 35.8432 50.5448 35.8985 49.7888C37.349 48.2155 38.4122 46.7405 39.0944 45.3577C39.7766 43.9749 40.1146 42.5429 40.1146 41.0679C40.1146 40.5455 40.047 40.1337 39.9118 39.8264C39.7766 39.5191 39.6045 39.3655 39.3955 39.3655C39.3525 39.3655 39.2849 39.3778 39.1989 39.4085L36.4394 40.4287C35.4991 42.2233 34.694 44.1838 34.0364 46.3164C33.3788 48.4429 33.0469 50.2682 33.0469 51.7862C33.0469 52.8003 33.2804 53.6054 33.7598 54.2077C34.233 54.81 34.8599 55.1111 35.6343 55.1111C36.3103 55.1111 37.0171 54.896 37.7607 54.4658C38.5044 54.0356 39.3648 53.3657 40.3543 52.4622C41.3437 51.5588 40.3543 52.45 40.3543 52.45C40.471 53.1321 40.7537 53.7037 41.1962 54.1708C41.8047 54.7977 42.5975 55.1172 43.5808 55.1172C44.4658 55.1172 45.2709 54.9021 46.0023 54.4719C46.7091 54.0602 47.5019 53.4149 48.3869 52.5606C48.4606 53.1998 48.6696 53.7529 49.0199 54.2261C49.4685 54.8223 50.0094 55.1234 50.6424 55.1234C51.2754 55.1234 51.9269 54.8776 52.5415 54.3859C53.156 53.8942 53.8198 53.126 54.545 52.0935C54.4774 54.1155 55.0182 55.1234 56.1614 55.1234C56.6161 55.1234 57.0955 54.9575 57.5933 54.6256C58.0911 54.2937 58.9208 53.5746 60.0824 52.4745C61.0903 51.4789 61.8278 50.5447 62.301 49.672C62.9402 49.5614 63.5241 49.3709 64.0588 49.0943C62.9648 50.809 62.4178 52.1795 62.4178 53.1997C62.4178 53.7529 62.5715 54.2138 62.8726 54.5826C63.1738 54.9513 63.5486 55.1418 63.9911 55.1418C64.956 55.1418 66.3266 54.2753 68.0966 52.5606C68.0966 52.6958 68.0843 52.8249 68.0843 52.9601C68.0843 53.4394 68.1273 54.1646 68.201 55.1418L70.6041 54.5764C70.6041 53.925 70.6164 53.4087 70.6348 53.0215C70.6717 52.5053 70.7454 51.9399 70.8499 51.3253C70.9175 50.9627 71.0834 50.6185 71.3477 50.2928L71.9562 49.586C72.1774 49.3279 72.3925 49.0943 72.583 48.8915C72.8104 48.6518 73.0132 48.449 73.1915 48.2831C73.3943 48.1049 73.5725 47.9574 73.7262 47.859C73.8921 47.7607 74.0273 47.7054 74.1256 47.7054C74.3039 47.7054 74.396 47.8221 74.396 48.0557C74.396 48.2892 74.224 48.8301 73.8859 49.6843C73.2468 51.2761 72.9272 52.4623 72.9272 53.2366C72.9272 53.8082 73.0747 54.263 73.3758 54.6071C73.6708 54.9452 74.0642 55.1172 74.5497 55.1172C75.742 55.1172 77.1801 54.2323 78.8518 52.4684V51.2208C77.6656 52.6159 76.8114 53.3165 76.2828 53.3165L76.2951 53.2981ZM36.1874 48.2032C36.6791 45.8002 37.183 43.938 37.6931 42.6043C38.2032 41.2707 38.5966 40.6008 38.8608 40.6008C38.9837 40.6008 39.0882 40.6807 39.1681 40.8466C39.248 41.0064 39.2849 41.2277 39.2849 41.4919C39.2849 42.4077 39.0022 43.4955 38.4245 44.7677C37.8529 46.0337 37.1031 47.183 36.1874 48.2032ZM43.4333 47.6009C43.8697 46.8695 44.3245 46.5069 44.8039 46.5069C45.3078 46.5069 45.5659 46.8573 45.5659 47.5517C45.5659 48.9591 44.6379 49.9179 42.7819 50.4403C42.7819 49.2726 42.997 48.3261 43.4333 47.6009ZM54.1763 51.1962C53.5371 52.4315 52.8488 53.0461 52.1297 53.0461C51.8347 53.0461 51.5889 52.9232 51.3983 52.6835C51.2078 52.4438 51.1095 52.1242 51.1095 51.7309C51.1095 50.6984 51.4352 49.5614 52.0805 48.3322C52.7258 47.1031 53.4142 46.4885 54.1394 46.4885C54.4405 46.4885 54.6864 46.5991 54.8646 46.8327C55.0428 47.0601 55.135 47.3796 55.135 47.7853C55.135 48.8301 54.8154 49.967 54.1763 51.2024V51.1962Z" fill="#010101"/>
<path d="M46.5722 40.5147C46.6643 40.6438 46.7074 40.8097 46.7074 41.0064C46.7074 41.2031 46.6521 41.3813 46.5414 41.5472C46.4308 41.7132 46.271 41.8484 46.0559 41.9406C45.847 42.0327 45.6073 42.0819 45.343 42.0819C44.9005 42.0819 44.5686 41.9897 44.3351 41.8054C44.1015 41.621 43.954 41.3506 43.8926 40.988L44.4641 40.8958C44.4949 41.1232 44.5871 41.3014 44.7284 41.4182C44.8759 41.5411 45.0787 41.6025 45.343 41.6025C45.6073 41.6025 45.8039 41.5472 45.933 41.4427C46.0621 41.3383 46.1235 41.2092 46.1235 41.0617C46.1235 40.9326 46.0682 40.8282 45.9514 40.7544C45.8715 40.7052 45.6749 40.6376 45.3614 40.5577C44.9374 40.4533 44.6485 40.3611 44.4826 40.2812C44.3166 40.2013 44.1937 40.0968 44.1138 39.9555C44.0339 39.8141 43.9848 39.6666 43.9848 39.5007C43.9848 39.347 44.0216 39.2118 44.0892 39.0827C44.1568 38.9537 44.2552 38.8492 44.372 38.7632C44.4641 38.6956 44.5809 38.6402 44.7346 38.5972C44.8882 38.5542 45.0541 38.5296 45.2324 38.5296C45.4966 38.5296 45.7302 38.5665 45.933 38.6464C46.1358 38.7201 46.2833 38.8246 46.3816 38.9598C46.48 39.0889 46.5414 39.2671 46.5783 39.4884L46.0129 39.5621C45.9883 39.39 45.9146 39.2487 45.7916 39.1503C45.6687 39.052 45.4966 39.0028 45.2692 39.0028C45.005 39.0028 44.8145 39.0459 44.7038 39.1319C44.5932 39.218 44.5317 39.3224 44.5317 39.4392C44.5317 39.513 44.5563 39.5806 44.5993 39.642C44.6485 39.7035 44.7223 39.7526 44.8206 39.7957C44.8759 39.8141 45.048 39.8633 45.3307 39.9432C45.7363 40.0538 46.019 40.1398 46.185 40.2074C46.3448 40.275 46.4738 40.3795 46.566 40.5086L46.5722 40.5147ZM49.3193 41.3997C49.1657 41.5411 48.9813 41.6087 48.7539 41.6087C48.4712 41.6087 48.2438 41.5042 48.0717 41.3014C47.8997 41.0986 47.8075 40.7606 47.8075 40.3058C47.8075 39.851 47.8997 39.5252 48.0779 39.3224C48.2561 39.1196 48.4958 39.009 48.7847 39.009C48.9752 39.009 49.1411 39.0643 49.2763 39.1811C49.4115 39.2978 49.5037 39.4699 49.559 39.6973L50.1183 39.6113C50.0507 39.2671 49.9032 39.0028 49.6697 38.8185C49.4361 38.6341 49.135 38.5419 48.7662 38.5419C48.4712 38.5419 48.207 38.6095 47.955 38.7509C47.7091 38.8861 47.5186 39.095 47.4018 39.3716C47.2789 39.6482 47.2175 39.9677 47.2175 40.3365C47.2175 40.9019 47.3588 41.3383 47.6415 41.6394C47.9242 41.9406 48.2991 42.0942 48.7601 42.0942C49.1288 42.0942 49.4423 41.9836 49.7004 41.7623C49.9524 41.5411 50.1122 41.2338 50.1736 40.8466L49.6082 40.7729C49.5652 41.0617 49.473 41.2707 49.3193 41.412V41.3997ZM50.6653 42.002H51.243V38.6095H50.6653V42.002ZM50.6653 37.9765H51.243V37.3127H50.6653V37.9765ZM54.8014 38.6034H54.0578L52.6934 39.9862V37.3127H52.1157V41.9959H52.6934V40.6499L53.099 40.2627L54.2237 41.9959H54.9366L53.5047 39.8633L54.8014 38.6034ZM55.3914 37.9765H55.9691V37.3127H55.3914V37.9765ZM55.3914 42.002H55.9691V38.6095H55.3914V42.002ZM58.1017 41.4858C57.9973 41.4981 57.9112 41.5103 57.8498 41.5103C57.7637 41.5103 57.6961 41.4981 57.6531 41.4673C57.6101 41.4366 57.5732 41.3997 57.5548 41.3567C57.5363 41.3075 57.524 41.2031 57.524 41.0433V39.0582H58.1017V38.6095H57.524V37.4234L56.9525 37.7675V38.6095H56.5284V39.0582H56.9525V41.0125C56.9525 41.3567 56.9771 41.5841 57.0201 41.6886C57.0692 41.7992 57.1491 41.8852 57.2598 41.9467C57.3765 42.0143 57.5363 42.045 57.7453 42.045C57.8743 42.045 58.0157 42.0266 58.1816 41.9959L58.0956 41.4858H58.1017Z" fill="white"/>
</g>
<defs>
<clipPath id="clip0_65_731">
<rect width="78.6667" height="78.6667" fill="white" transform="translate(0.195312 0.640625)"/>
</clipPath>
</defs>
</svg>
