<svg width="119" height="40" viewBox="0 0 119 40" fill="none" xmlns="http://www.w3.org/2000/svg">
<path fill-rule="evenodd" clip-rule="evenodd" d="M115.891 7.0551C114.265 7.0551 113.065 8.22872 113.065 9.73716C113.065 11.2456 114.265 12.4192 115.891 12.4192C117.433 12.4192 118.632 11.2463 118.632 9.73716C118.632 8.22804 117.433 7.0551 115.891 7.0551ZM115.807 7.4745H115.891C117.09 7.4745 118.033 8.48035 118.033 9.73716C118.033 10.9946 117.089 11.9998 115.891 11.9998C114.607 11.9998 113.666 10.9946 113.666 9.73716C113.666 8.48035 114.522 7.55769 115.807 7.4745ZM114.778 8.22871V11.3295H115.292V9.98879H115.807L116.663 11.3295H117.176L116.319 9.90491C116.834 9.90491 117.089 9.5694 117.089 9.06682C117.089 8.48035 116.748 8.22871 115.976 8.22871H114.778ZM115.292 9.57008V8.56355H115.977C116.405 8.56355 116.662 8.7313 116.662 9.06682C116.662 9.40165 116.405 9.5694 116.062 9.5694L115.292 9.57008ZM29.1385 18.9562C27.6828 17.8665 25.8843 16.9452 23.4865 16.2742C20.4038 15.2677 16.0361 14.2625 14.2369 13.6753C13.124 13.2566 12.6105 12.5856 12.6105 11.6643C12.6105 10.4075 14.1519 9.65328 16.0368 9.5694C19.1195 9.65328 20.0616 11.3295 20.2323 12.5863H29.1391L29.1385 18.9562ZM40.2716 27.0863H46.8657C52.6033 27.0024 57.2281 24.1533 59.5402 20.1299C59.7116 19.7943 59.883 19.4595 60.053 19.124C60.3959 19.5427 60.7387 19.7943 61.0823 20.1299C62.7086 21.4705 64.6779 22.4764 66.8185 23.1474C70.2455 24.321 72.8997 25.1585 73.8411 25.494C75.5546 26.2475 76.6681 26.7501 76.6681 28.2592C76.6681 30.0186 74.6132 30.7742 72.5569 30.8581C69.7312 30.7742 66.8192 29.4328 66.9049 26.5837H55.601C56.2003 33.8743 63.565 39.5739 72.3011 39.7417C77.6102 39.6578 82.4922 38.1486 85.6606 34.4607C88.8291 37.6454 92.5118 39.6578 97.7366 39.7417C105.957 39.6578 114.522 35.7182 114.607 27.1695C114.607 24.4867 113.836 22.0563 112.124 20.1292C110.582 18.3691 108.355 17.1116 105.273 16.2742C102.189 15.2677 97.8216 14.2625 96.0238 13.6753C94.9103 13.2566 94.396 12.5856 94.396 11.6643C94.396 10.4075 95.9381 9.65328 97.8216 9.5694C100.906 9.65328 101.847 11.3295 102.019 12.5863H112.722C112.808 5.3789 106.643 0.518066 97.8209 0.518066C91.2269 0.518066 86.7735 2.94848 84.6328 6.46864C82.2351 2.78073 77.4388 0.518066 71.4447 0.518066C65.1064 0.518066 60.8251 2.86461 58.5124 6.21701C55.9425 2.94917 51.6605 0.8529 46.5221 0.8529H29.1385V6.38476C26.7407 2.69685 21.9444 0.518066 16.0361 0.518066C6.87214 0.518066 1.90518 5.46278 1.39092 11.1617C1.39092 14.6819 3.10371 17.8665 5.84432 20.1292C7.3857 21.4699 9.27061 22.4757 11.4113 23.1467C14.8368 24.3204 17.4917 25.1578 18.4338 25.4933C20.1466 26.2468 21.2602 26.7494 21.2602 28.2585C21.2602 30.0179 19.1188 30.7735 17.1496 30.8574C14.3233 30.7735 11.4119 29.4321 11.4977 26.583H0.192383C0.791651 33.8736 8.15708 39.5732 16.8925 39.741C21.688 39.6571 26.1414 38.3996 29.1391 35.6337V39.1538H40.2723V27.0863H40.2716ZM40.2716 9.90491H46.2664C48.4934 9.90491 50.377 11.7489 50.377 14.0115C50.377 16.2742 48.4934 18.1175 46.2664 18.1175H40.2716V9.90491ZM85.747 20.1299C84.205 18.3698 81.9786 17.1123 78.8959 16.2749C75.8131 15.2683 71.4461 14.2632 69.7326 13.676C68.5334 13.2573 68.0191 12.5863 68.0191 11.665C68.0191 10.4082 69.5612 9.65396 71.4461 9.57008C74.6146 9.65396 75.4703 11.3302 75.6417 12.587H83.1772C83.6057 15.5207 85.1464 18.1181 87.5449 20.1305C89.1726 21.4712 91.0561 22.4771 93.1968 23.1481C96.6224 24.3217 99.278 25.1591 100.134 25.4946C101.933 26.2482 103.046 26.7508 103.046 28.2599C103.046 30.0193 100.906 30.7749 98.9351 30.8588C96.1095 30.7749 93.1975 29.4335 93.2832 26.5844H88.2312C88.0591 24.0694 87.2884 21.8899 85.747 20.1299Z" fill="#CC1E4C"/>
</svg>
