<svg width="38" height="35" viewBox="0 0 38 35" fill="none" xmlns="http://www.w3.org/2000/svg">
<path d="M2.33333 34.75C1.74306 34.75 1.24861 34.55 0.85 34.15C0.451389 33.75 0.251389 33.2555 0.25 32.6666V30.5833C0.25 29.993 0.45 29.4986 0.85 29.1C1.25 28.7014 1.74444 28.5014 2.33333 28.5C2.92222 28.4986 3.41736 28.6986 3.81875 29.1C4.22014 29.5014 4.41944 29.9958 4.41667 30.5833V32.6666C4.41667 33.2569 4.21667 33.752 3.81667 34.152C3.41667 34.552 2.92222 34.7514 2.33333 34.75ZM10.6667 34.75C10.0764 34.75 9.58195 34.55 9.18333 34.15C8.78472 33.75 8.58472 33.2555 8.58333 32.6666V21.2083C8.58333 20.618 8.78333 20.1236 9.18333 19.725C9.58333 19.3264 10.0778 19.1264 10.6667 19.125C11.2556 19.1236 11.7507 19.3236 12.1521 19.725C12.5535 20.1264 12.7528 20.6208 12.75 21.2083V32.6666C12.75 33.2569 12.55 33.752 12.15 34.152C11.75 34.552 11.2556 34.7514 10.6667 34.75ZM19 34.75C18.4097 34.75 17.9153 34.55 17.5167 34.15C17.1181 33.75 16.9181 33.2555 16.9167 32.6666V25.375C16.9167 24.7847 17.1167 24.2902 17.5167 23.8916C17.9167 23.493 18.4111 23.293 19 23.2916C19.5889 23.2902 20.084 23.4902 20.4854 23.8916C20.8868 24.293 21.0861 24.7875 21.0833 25.375V32.6666C21.0833 33.2569 20.8833 33.752 20.4833 34.152C20.0833 34.552 19.5889 34.7514 19 34.75ZM27.3333 34.75C26.7431 34.75 26.2486 34.55 25.85 34.15C25.4514 33.75 25.2514 33.2555 25.25 32.6666V22.25C25.25 21.6597 25.45 21.1652 25.85 20.7666C26.25 20.368 26.7444 20.168 27.3333 20.1666C27.9222 20.1652 28.4174 20.3652 28.8188 20.7666C29.2201 21.168 29.4194 21.6625 29.4167 22.25V32.6666C29.4167 33.2569 29.2167 33.752 28.8167 34.152C28.4167 34.552 27.9222 34.7514 27.3333 34.75ZM35.6667 34.75C35.0764 34.75 34.5819 34.55 34.1833 34.15C33.7847 33.75 33.5847 33.2555 33.5833 32.6666V13.9166C33.5833 13.3264 33.7833 12.8319 34.1833 12.4333C34.5833 12.0347 35.0778 11.8347 35.6667 11.8333C36.2556 11.8319 36.7507 12.0319 37.1521 12.4333C37.5535 12.8347 37.7528 13.3291 37.75 13.9166V32.6666C37.75 33.2569 37.55 33.752 37.15 34.152C36.75 34.552 36.2556 34.7514 35.6667 34.75ZM23.1667 15.9479C22.6111 15.9479 22.0813 15.8437 21.5771 15.6354C21.0729 15.4271 20.6132 15.1319 20.1979 14.75L14.8333 9.38538L3.79167 20.427C3.375 20.8437 2.88056 21.0437 2.30833 21.0271C1.73611 21.0104 1.24097 20.793 0.822917 20.375C0.440972 19.9583 0.259028 19.4639 0.277083 18.8916C0.295139 18.3194 0.494444 17.8416 0.875 17.4583L11.8646 6.46872C12.2813 6.05205 12.7417 5.74858 13.2458 5.5583C13.75 5.36802 14.2792 5.27219 14.8333 5.2708C15.3875 5.26941 15.9257 5.36525 16.4479 5.5583C16.9701 5.75136 17.4215 6.05483 17.8021 6.46872L23.1667 11.8333L34.2083 0.791635C34.625 0.374968 35.1201 0.174969 35.6938 0.191635C36.2674 0.208302 36.7618 0.425663 37.1771 0.843718C37.559 1.26038 37.7417 1.75552 37.725 2.32914C37.7083 2.90275 37.5083 3.37983 37.125 3.76039L26.1354 14.75C25.7535 15.1319 25.3021 15.4271 24.7813 15.6354C24.2604 15.8437 23.7222 15.9479 23.1667 15.9479Z" fill="black"/>
</svg>
