<svg width="50" height="50" viewBox="0 0 50 50" fill="none" xmlns="http://www.w3.org/2000/svg">
<path d="M44.3538 41.4167L36.0622 33.1251C37.4779 31.3188 38.5018 29.2374 39.0685 27.0135C39.6353 24.7895 39.7324 22.472 39.3538 20.2084C38.2288 13.1042 32.4163 7.41674 25.2913 6.41674C15.7705 5.08341 7.52051 11.8542 6.39551 20.8334H10.6038C11.1559 17.5897 12.9626 14.6937 15.6332 12.7717C18.3037 10.8496 21.6236 10.0561 24.8747 10.5626C30.3122 11.3959 34.6663 15.9167 35.333 21.3959C35.5447 23.1528 35.3816 24.9346 34.8545 26.6239C34.3274 28.3131 33.4483 29.8715 32.2751 31.1963C31.1019 32.5211 29.6612 33.5822 28.0481 34.3096C26.4349 35.0371 24.6859 35.4144 22.9163 35.4167C17.8747 35.4167 13.5413 32.4167 11.5622 28.1251H7.08301C9.27051 34.7709 15.5413 39.5834 22.9163 39.5834C26.7705 39.5834 30.3122 38.2709 33.1247 36.0626L41.4163 44.3542C41.8059 44.7438 42.3342 44.9626 42.8851 44.9626C43.436 44.9626 43.9643 44.7438 44.3538 44.3542C44.7434 43.9647 44.9622 43.4364 44.9622 42.8855C44.9622 42.3346 44.7434 41.8063 44.3538 41.4167Z" fill="black"/>
<path d="M17.5622 20.1874L19.708 29.4999C19.9372 30.5208 20.8538 31.2499 21.8955 31.2499C22.8538 31.2499 23.708 30.6249 24.0205 29.7083L26.1247 23.3749L27.5622 26.8333C27.8955 27.6041 28.6455 28.1249 29.4788 28.1249H30.6872C31.5413 28.1249 32.2497 27.4166 32.2497 26.5624C32.2497 25.7083 31.5413 24.9999 30.6872 24.9999H30.208L28.1872 20.1249C27.833 19.2916 27.0205 18.7499 26.1038 18.7499H25.9997C25.0413 18.7499 24.1872 19.3749 23.8747 20.2916L22.0413 25.7708L19.8747 16.3124C19.6455 15.3124 18.7288 14.5833 17.6872 14.5833C16.708 14.5833 15.833 15.2291 15.5413 16.1666L13.4372 22.9166H3.64551C2.79134 22.9166 2.08301 23.6249 2.08301 24.4791C2.08301 25.3333 2.79134 26.0416 3.64551 26.0416H14.208C15.1247 26.0416 15.9163 25.4583 16.1872 24.5833L17.5622 20.1874Z" fill="black"/>
</svg>
