<svg width="38" height="38" viewBox="0 0 38 38" fill="none" xmlns="http://www.w3.org/2000/svg">
<path d="M12.7501 15.875C12.7501 15.4606 12.9147 15.0632 13.2077 14.7702C13.5008 14.4772 13.8982 14.3125 14.3126 14.3125H23.6876C24.102 14.3125 24.4994 14.4772 24.7925 14.7702C25.0855 15.0632 25.2501 15.4606 25.2501 15.875C25.2501 16.2894 25.0855 16.6869 24.7925 16.9799C24.4994 17.2729 24.102 17.4375 23.6876 17.4375H14.3126C13.8982 17.4375 13.5008 17.2729 13.2077 16.9799C12.9147 16.6869 12.7501 16.2894 12.7501 15.875ZM14.3126 20.5625C13.8982 20.5625 13.5008 20.7272 13.2077 21.0202C12.9147 21.3132 12.7501 21.7106 12.7501 22.125C12.7501 22.5394 12.9147 22.9369 13.2077 23.2299C13.5008 23.5229 13.8982 23.6875 14.3126 23.6875H20.5626C20.977 23.6875 21.3744 23.5229 21.6675 23.2299C21.9605 22.9369 22.1251 22.5394 22.1251 22.125C22.1251 21.7106 21.9605 21.3132 21.6675 21.0202C21.3744 20.7272 20.977 20.5625 20.5626 20.5625H14.3126ZM0.250102 19C0.2509 14.8721 1.61393 10.8597 4.12775 7.58545C6.64158 4.31117 10.1657 1.95798 14.1534 0.890924C18.141 -0.176131 22.3694 0.102596 26.1825 1.68387C29.9956 3.26514 33.1803 6.06056 35.2426 9.63649C37.3049 13.2124 38.1294 17.369 37.5883 21.4613C37.0473 25.5537 35.1708 29.3531 32.2501 32.2702C29.3293 35.1873 25.5275 37.059 21.4345 37.595C17.3415 38.1309 13.1859 37.3012 9.6126 35.2344L2.30635 37.6719C2.03642 37.7621 1.747 37.7767 1.46933 37.7144C1.19167 37.6521 0.936288 37.5151 0.730766 37.3183C0.525244 37.1214 0.377382 36.8722 0.303137 36.5975C0.228892 36.3228 0.231085 36.033 0.309478 35.7594L2.53448 27.975C1.03454 25.2215 0.249125 22.1357 0.250102 19ZM19.0001 3.37505C16.2413 3.37487 13.5316 4.10514 11.1465 5.49163C8.76143 6.87811 6.78595 8.87137 5.42089 11.2688C4.05583 13.6662 3.34986 16.3823 3.37476 19.141C3.39965 21.8997 4.15451 24.6026 5.5626 26.975C5.67094 27.1583 5.74068 27.3618 5.76755 27.573C5.79442 27.7842 5.77785 27.9986 5.71885 28.2032L4.12823 33.7657L9.30948 32.0407C9.52952 31.9672 9.76316 31.9437 9.99342 31.9718C10.2237 31.9999 10.4448 32.079 10.6407 32.2032C12.6884 33.4991 15.0095 34.301 17.4205 34.5454C19.8315 34.7898 22.2663 34.4701 24.5324 33.6115C26.7985 32.7529 28.8339 31.379 30.4776 29.5983C32.1213 27.8177 33.3284 25.6791 34.0033 23.3516C34.6782 21.0242 34.8025 18.5716 34.3663 16.1879C33.9301 13.8041 32.9455 11.5545 31.4902 9.61675C30.0349 7.67905 28.1489 6.1064 25.9812 5.02312C23.8134 3.93984 21.4234 3.37561 19.0001 3.37505Z" fill="black"/>
</svg>
