<svg width="70" height="70" viewBox="0 0 70 70" fill="none" xmlns="http://www.w3.org/2000/svg">
<circle cx="35" cy="35" r="35" fill="#0291EB"/>
<path d="M50 50H35C27.929 50 24.3935 50 22.196 47.8025C20 45.608 20 42.071 20 35V20" stroke="white" stroke-width="3" stroke-linecap="round"/>
<path d="M45.5 27.5L40.823 33.389C40.1075 34.292 39.749 34.7435 39.338 34.964C39.026 35.1308 38.6791 35.2216 38.3255 35.2292C37.9718 35.2367 37.6213 35.1608 37.3025 35.0075C36.8825 34.805 36.506 34.37 35.75 33.5C34.994 32.63 34.6175 32.195 34.1975 31.9925C33.8788 31.8397 33.5285 31.7642 33.1751 31.772C32.8217 31.7798 32.4752 31.8708 32.1635 32.0375C31.7525 32.2565 31.394 32.708 30.6785 33.6095L26 39.5" stroke="white" stroke-width="3" stroke-linecap="round"/>
</svg>
