<svg width="70" height="70" viewBox="0 0 70 70" fill="none" xmlns="http://www.w3.org/2000/svg">
<circle cx="35" cy="35" r="35" fill="#0291EB"/>
<path d="M50 50L40 40M20 31.6667C20 33.1988 20.3018 34.7158 20.8881 36.1313C21.4744 37.5468 22.3337 38.8329 23.4171 39.9162C24.5004 40.9996 25.7866 41.859 27.202 42.4453C28.6175 43.0316 30.1346 43.3333 31.6667 43.3333C33.1988 43.3333 34.7158 43.0316 36.1313 42.4453C37.5468 41.859 38.8329 40.9996 39.9162 39.9162C40.9996 38.8329 41.859 37.5468 42.4453 36.1313C43.0316 34.7158 43.3333 33.1988 43.3333 31.6667C43.3333 30.1346 43.0316 28.6175 42.4453 27.202C41.859 25.7866 40.9996 24.5004 39.9162 23.4171C38.8329 22.3337 37.5468 21.4744 36.1313 20.8881C34.7158 20.3018 33.1988 20 31.6667 20C30.1346 20 28.6175 20.3018 27.202 20.8881C25.7866 21.4744 24.5004 22.3337 23.4171 23.4171C22.3337 24.5004 21.4744 25.7866 20.8881 27.202C20.3018 28.6175 20 30.1346 20 31.6667Z" stroke="white" stroke-width="3" stroke-linecap="round" stroke-linejoin="round"/>
</svg>
