<svg width="70" height="70" viewBox="0 0 70 70" fill="none" xmlns="http://www.w3.org/2000/svg">
<circle cx="35" cy="35" r="35" fill="#0291EB"/>
<path d="M20 35C20 36.9698 20.388 38.9204 21.1418 40.7403C21.8956 42.5601 23.0005 44.2137 24.3934 45.6066C25.7863 46.9995 27.4399 48.1044 29.2597 48.8582C31.0796 49.612 33.0302 50 35 50C36.9698 50 38.9204 49.612 40.7403 48.8582C42.5601 48.1044 44.2137 46.9995 45.6066 45.6066C46.9995 44.2137 48.1044 42.5601 48.8582 40.7403C49.612 38.9204 50 36.9698 50 35C50 33.0302 49.612 31.0796 48.8582 29.2597C48.1044 27.4399 46.9995 25.7863 45.6066 24.3934C44.2137 23.0005 42.5601 21.8956 40.7403 21.1418C38.9204 20.388 36.9698 20 35 20C33.0302 20 31.0796 20.388 29.2597 21.1418C27.4399 21.8956 25.7863 23.0005 24.3934 24.3934C23.0005 25.7863 21.8956 27.4399 21.1418 29.2597C20.388 31.0796 20 33.0302 20 35Z" stroke="white" stroke-width="2" stroke-linecap="round" stroke-linejoin="round"/>
<path d="M26.667 31.6667V35.0001C26.667 35.8841 27.0182 36.732 27.6433 37.3571C28.2684 37.9822 29.1163 38.3334 30.0003 38.3334C30.8844 38.3334 31.7322 37.9822 32.3573 37.3571C32.9825 36.732 33.3337 35.8841 33.3337 35.0001V31.6667M38.3337 31.6667L43.3337 38.3334M38.3337 38.3334L43.3337 31.6667" stroke="white" stroke-width="2" stroke-linecap="round" stroke-linejoin="round"/>
</svg>
