<svg width="387" height="80" viewBox="0 0 387 80" fill="none" xmlns="http://www.w3.org/2000/svg">
<path d="M19.7835 6.79852V0.908936H21.4314V6.7999C22.6031 7.15583 23.4601 8.24814 23.4601 9.53508C23.4601 10.8213 22.6031 11.9136 21.4314 12.2696V60.2451H19.7835V12.2709C18.6096 11.9164 17.75 10.8234 17.75 9.53508C17.75 8.24675 18.6096 7.1531 19.7835 6.79852Z" fill="white"/>
<path d="M17.8068 60.2438V13.9451C17.7398 13.9743 17.6726 14.0033 17.6056 14.0322L17.4844 14.0846L17.1825 14.2193C16.9084 14.35 16.6344 14.48 16.3603 14.61C16.2676 14.6567 16.1734 14.7041 16.0814 14.7515C16.0186 14.7835 15.9562 14.8158 15.8935 14.8482L15.8291 14.8815V60.2438H17.8068Z" fill="white"/>
<path d="M14.5115 60.2437V15.6213C14.421 15.6772 14.3299 15.7323 14.2388 15.7874L14.1717 15.829C14.1154 15.8639 14.0594 15.8986 14.0034 15.9337L12.9344 16.6422C12.8738 16.6844 12.814 16.7266 12.7534 16.7694C12.6808 16.8211 12.6082 16.8734 12.5356 16.9257L12.5352 60.2437H14.5115Z" fill="white"/>
<path d="M11.0279 18.0988L11.2095 17.9484C11.3217 17.8585 11.4339 17.768 11.5454 17.6775V60.2453H9.23926V19.7253C9.29231 19.6722 9.34607 19.6191 9.3998 19.5675C9.47911 19.4907 9.55849 19.414 9.63849 19.3375L11.0279 18.0988Z" fill="white"/>
<path d="M8.58095 60.2444V20.3975L8.38848 20.6031L8.3054 20.6933C8.24993 20.7535 8.19446 20.8136 8.13959 20.8746C6.95013 22.188 5.8953 23.5853 4.95069 25.1002L4.82214 25.3084L4.62695 25.6316V60.2444H8.58095Z" fill="white"/>
<path d="M3.45889 27.7738L3.61329 27.467L3.9676 26.7932V60.2461L3.91333 60.2463C3.52232 60.2467 1.39041 60.2485 1.21395 60.2218C0.607316 60.2218 0 59.565 0 58.8681C0 58.0772 0.00339879 57.4005 0.00680121 56.7238C0.0101964 56.0476 0.0136024 55.3694 0.0136024 54.5792C0.0136024 53.6369 0.0117291 52.6945 0.00985578 51.7519V51.7496C0.00544604 49.5292 0.00103631 47.3088 0.0210813 45.0889C0.0503262 41.9127 0.168661 38.7819 0.784816 35.6434C1.33296 32.8481 2.21368 30.2748 3.45889 27.7738Z" fill="white"/>
<path d="M36.5879 25.6323V60.245C36.7828 60.245 37.0541 60.2456 37.3563 60.2461H37.3624C38.2905 60.248 39.5086 60.25 39.7182 60.2403C40.5011 60.2403 41.1676 59.6829 41.1874 58.907C41.1837 58.8276 41.1886 57.7612 41.1936 56.7045V56.7021C41.1972 55.906 41.2008 55.1147 41.2008 54.7563C41.2008 53.7863 41.2032 52.8165 41.2054 51.8465C41.2108 49.4838 41.2164 47.121 41.1892 44.7581C41.1512 41.4078 40.9955 38.1214 40.2584 34.826C39.534 31.5914 38.2698 28.452 36.5879 25.6323Z" fill="white"/>
<path d="M35.9291 60.2448H33.293V21.1179C33.3569 21.1916 33.4212 21.2652 33.485 21.3381L33.5079 21.3643L33.5201 21.3783C33.6004 21.4717 33.6814 21.5657 33.761 21.6603C34.3811 22.3961 34.9627 23.159 35.5109 23.9545C35.5706 24.0416 35.6304 24.1286 35.6896 24.2172L35.9291 24.5774V60.2448Z" fill="white"/>
<path d="M32.3041 60.2459V20.0568L32.0402 19.7906C31.9852 19.7355 31.9298 19.6812 31.8744 19.6268L31.8729 19.6253L31.8715 19.6241L31.8151 19.5688C31.4467 19.2095 31.0691 18.8603 30.6821 18.5228C30.5638 18.4194 30.4441 18.3172 30.3244 18.2159L29.998 17.9436V60.2459H32.3041Z" fill="white"/>
<path d="M28.6801 16.926V60.2437H26.7031V15.6213L26.9989 15.801L27.0954 15.8611C27.1377 15.8875 27.1815 15.9146 27.2235 15.9412C27.5907 16.1726 27.9524 16.4128 28.3082 16.6612L28.4891 16.7885C28.5524 16.8348 28.6161 16.8804 28.6801 16.926Z" fill="white"/>
<path d="M24.4196 60.2461V14.2645C24.1477 14.1243 23.8722 13.9855 23.5928 13.8494V60.2461H24.4196Z" fill="white"/>
<path d="M0.521484 62.0559H40.6853V62.8174H0.521484V62.0559Z" fill="white"/>
<path d="M0.521484 78.6113H40.6851V79.3722H0.521484V78.6113Z" fill="white"/>
<path d="M40.6831 69.9145H38.334V69.6538L38.4875 69.6415L38.6209 69.6315C38.7468 69.6225 38.8345 69.6069 38.8854 69.5871C38.9657 69.5558 39.025 69.5115 39.0624 69.4565C39.0991 69.4015 39.1167 69.3251 39.1167 69.2271V65.4473C39.1167 65.3615 39.1038 65.29 39.0766 65.2322C39.05 65.1749 38.9863 65.1275 38.8854 65.0865C38.812 65.058 38.7203 65.0307 38.6087 65.0042C38.4971 64.9789 38.4054 64.9642 38.334 64.9595V64.698H40.6831V64.9595C40.606 64.9613 40.5157 64.9702 40.4109 64.9865C40.3055 65.0016 40.2137 65.0225 40.1347 65.0471C40.0417 65.0771 39.9792 65.1245 39.9478 65.19C39.915 65.256 39.9002 65.3302 39.9002 65.4105V69.1869C39.9002 69.2673 39.9178 69.3387 39.9525 69.4015C39.9879 69.464 40.0499 69.5144 40.1347 69.5504C40.1865 69.5707 40.2703 69.5918 40.3865 69.6151C40.5019 69.638 40.6013 69.6511 40.6831 69.6538V69.9145Z" fill="white"/>
<path d="M38.0497 68.3635L37.9387 69.9145H33.8643V69.6538C33.9237 69.6484 34.0092 69.6395 34.1208 69.6273C34.2324 69.6156 34.3098 69.5993 34.3541 69.5795C34.426 69.5484 34.4805 69.502 34.5131 69.4402C34.5465 69.3787 34.5634 69.3007 34.5634 69.206V65.4696C34.5634 65.3867 34.5492 65.3131 34.5207 65.2485C34.4927 65.1845 34.4364 65.1335 34.3541 65.094C34.2978 65.0655 34.218 65.0369 34.1166 65.0076C34.0154 64.9805 33.9309 64.9642 33.8643 64.9595V64.698H36.0658V64.9595C35.9964 64.9613 35.9086 64.9729 35.8 64.9953C35.6904 65.0178 35.6116 65.0369 35.5625 65.0545C35.4789 65.0831 35.4224 65.1335 35.3906 65.2049C35.3607 65.2765 35.3456 65.352 35.3456 65.4329V68.9371C35.3456 69.0991 35.3532 69.2244 35.3696 69.3136C35.3859 69.4027 35.4224 69.4715 35.4809 69.5218C35.5374 69.566 35.6217 69.5945 35.7333 69.6069C35.8449 69.6211 36.0006 69.6273 36.2012 69.6273C36.2924 69.6273 36.3868 69.626 36.484 69.6211C36.5822 69.6156 36.6752 69.6062 36.7635 69.5905C36.8492 69.5756 36.9283 69.5558 37.001 69.5307C37.0724 69.504 37.126 69.4715 37.1599 69.4325C37.2608 69.3196 37.3769 69.1487 37.5111 68.9209C37.6443 68.6907 37.7368 68.5051 37.7884 68.3635H38.0497Z" fill="white"/>
<path fill-rule="evenodd" clip-rule="evenodd" d="M30.8541 65.3163C31.0832 65.5559 31.2644 65.8457 31.3936 66.1861C31.524 66.5248 31.5882 66.9012 31.5882 67.313C31.5882 67.7268 31.5228 68.1039 31.3894 68.4412C31.258 68.7797 31.0738 69.0675 30.8392 69.3057C30.6107 69.5405 30.3463 69.7223 30.0454 69.8494C29.7444 69.9774 29.4233 70.0414 29.0825 70.0414C28.72 70.0414 28.3848 69.9721 28.0781 69.8365C27.7707 69.7012 27.5074 69.5112 27.2865 69.2683C27.0661 69.0308 26.8927 68.7423 26.7661 68.4019C26.6411 68.0637 26.5771 67.6996 26.5771 67.313C26.5771 66.889 26.6431 66.5114 26.7765 66.1785C26.9076 65.8457 27.0906 65.5585 27.3232 65.3163C27.5537 65.0766 27.8212 64.8921 28.1257 64.7643C28.4304 64.637 28.7502 64.5737 29.0825 64.5737C29.428 64.5737 29.7545 64.6385 30.0605 64.7677C30.3665 64.8985 30.6312 65.0799 30.8541 65.3163ZM30.3062 69.0145C30.4428 68.7912 30.5434 68.5386 30.6059 68.2575C30.6686 67.9752 30.6984 67.6606 30.6984 67.313C30.6984 66.955 30.6652 66.6263 30.5943 66.3276C30.5244 66.0281 30.423 65.773 30.2878 65.5626C30.153 65.3543 29.9838 65.1923 29.7811 65.0752C29.5778 64.9588 29.3445 64.9012 29.0825 64.9012C28.7889 64.9012 28.5392 64.9685 28.3339 65.1032C28.1277 65.2372 27.9598 65.4176 27.8299 65.6437C27.708 65.8599 27.6162 66.1119 27.5565 66.4003C27.496 66.6903 27.466 66.9946 27.466 67.313C27.466 67.6654 27.4987 67.9841 27.5626 68.2679C27.6253 68.553 27.7258 68.8048 27.8633 69.0261C27.9951 69.2416 28.1617 69.4099 28.3623 69.5316C28.563 69.6534 28.8038 69.7134 29.0825 69.7134C29.3445 69.7134 29.581 69.6521 29.792 69.5288C30.0027 69.407 30.1748 69.2356 30.3062 69.0145Z" fill="white"/>
<path d="M26.4839 64.9595C26.4416 64.9613 26.3765 64.9776 26.2846 65.0076C26.1941 65.0396 26.1296 65.0695 26.09 65.0982C25.9948 65.1573 25.9297 65.2024 25.8963 65.2349C25.8622 65.2662 25.7955 65.3493 25.6977 65.4845C25.5059 65.7547 25.3305 66.0271 25.1686 66.304C25.0068 66.5818 24.8047 66.9329 24.5618 67.3596C24.4715 67.5162 24.411 67.6422 24.3823 67.7387C24.3525 67.834 24.3389 67.9722 24.3389 68.154V69.1504C24.3389 69.238 24.3559 69.3149 24.3912 69.3804C24.4266 69.4442 24.4878 69.4967 24.5729 69.5355C24.6245 69.5558 24.7155 69.5795 24.8489 69.6069C24.981 69.6362 25.0869 69.6511 25.1686 69.6538V69.9145H22.7284V69.6538C22.7972 69.6484 22.8999 69.6395 23.038 69.626C23.1744 69.6122 23.2698 69.5945 23.3241 69.5735C23.4119 69.5355 23.4731 69.4856 23.5058 69.4209C23.5385 69.3584 23.5561 69.2796 23.5561 69.1869V67.9176C23.5561 67.8789 23.5322 67.8075 23.4847 67.7035C23.4357 67.5993 23.3794 67.4829 23.3127 67.3555C23.1657 67.0711 23.0031 66.7635 22.825 66.4335C22.6453 66.102 22.4903 65.8189 22.3586 65.584C22.2769 65.4433 22.2055 65.3391 22.143 65.2675C22.0797 65.196 22.009 65.1334 21.9286 65.0791C21.8695 65.0431 21.7994 65.0151 21.7165 64.9953C21.6349 64.9749 21.5606 64.9642 21.4941 64.9595V64.698H23.718V64.9595C23.4671 64.9642 23.2916 64.9805 23.1882 65.0104C23.0854 65.0396 23.0345 65.0805 23.0345 65.1349C23.0345 65.1498 23.042 65.1765 23.0556 65.2124C23.0685 65.2436 23.0865 65.2829 23.1079 65.3296L23.1181 65.352C23.1462 65.4093 23.1802 65.4733 23.2187 65.5456L23.2324 65.5711C23.2765 65.6527 23.3174 65.7318 23.3568 65.8085C23.4718 66.0256 23.5901 66.2442 23.7104 66.4613C23.8296 66.6769 23.9858 66.9595 24.1804 67.308C24.564 66.6878 24.8578 66.204 25.0598 65.8576C25.2611 65.5113 25.3632 65.3029 25.3632 65.2335C25.3632 65.1784 25.3412 65.1322 25.3005 65.0982C25.2591 65.0642 25.2039 65.0369 25.1347 65.0178C25.0645 64.9982 24.987 64.9853 24.9039 64.9789C24.8203 64.9729 24.7435 64.9667 24.6721 64.9595V64.698H26.4839V64.9595Z" fill="white"/>
<path d="M18.2232 69.9145H16.761C16.4801 69.4775 16.1666 69.0447 15.8232 68.6145C15.4784 68.1851 15.1186 67.7673 14.7412 67.3631H14.6453V69.1793C14.6453 69.2611 14.6602 69.3325 14.6908 69.3965C14.7221 69.4605 14.7772 69.5115 14.8588 69.5504C14.8976 69.5682 14.9704 69.5885 15.0771 69.6136C15.1832 69.6375 15.2723 69.6511 15.343 69.6538V69.9145H13.1797V69.6538C13.2361 69.6484 13.3178 69.6409 13.4252 69.6315C13.5333 69.6225 13.6095 69.6069 13.6537 69.5871C13.7265 69.5558 13.7802 69.5082 13.8128 69.4455C13.8469 69.3835 13.8632 69.308 13.8632 69.2196V65.4547C13.8632 65.3716 13.8496 65.2989 13.8203 65.2376C13.7924 65.1771 13.736 65.1275 13.6537 65.0865C13.5871 65.0553 13.5095 65.0267 13.4177 65.0029C13.3273 64.9776 13.2484 64.9642 13.1797 64.9595V64.698H15.343V64.9595C15.275 64.9613 15.1887 64.9729 15.086 64.9913C14.9826 65.0116 14.9078 65.0293 14.8588 65.0471C14.7745 65.0771 14.7181 65.1262 14.6895 65.1935C14.6602 65.2627 14.6453 65.3376 14.6453 65.4178V67.2202H14.7181C14.9391 67.0336 15.156 66.8389 15.3689 66.6369C15.5824 66.4347 15.7756 66.2327 15.9497 66.0318C16.1428 65.81 16.2843 65.6302 16.3734 65.4969C16.4625 65.3644 16.508 65.2451 16.508 65.1424C16.508 65.1056 16.4849 65.0756 16.44 65.0518C16.3951 65.0293 16.3421 65.0104 16.2836 64.9953C16.2156 64.9805 16.1544 64.9715 16.1 64.9676L15.9673 64.9595V64.698H17.9219V64.9595L17.9102 64.9596C17.9018 64.9602 17.89 64.9611 17.8743 64.9625C17.8569 64.9647 17.8378 64.9662 17.817 64.968L17.7907 64.9702C17.7553 64.9729 17.7213 64.9764 17.688 64.9836C17.6526 64.9913 17.6091 65 17.5547 65.0104C17.4697 65.0293 17.3806 65.0607 17.2888 65.1029C17.1963 65.1473 17.1208 65.1995 17.063 65.2635C16.81 65.55 16.5468 65.8473 16.2734 66.1536C15.9986 66.4598 15.7266 66.7396 15.4566 66.9922C15.8293 67.4135 16.1374 67.7762 16.3808 68.0796C16.6243 68.3833 16.8841 68.7085 17.1582 69.0535C17.2636 69.1869 17.369 69.2925 17.4744 69.3727C17.5798 69.4516 17.6703 69.5115 17.7451 69.5504C17.8097 69.5824 17.8893 69.6069 17.9852 69.6245C18.0804 69.6409 18.1606 69.6511 18.2232 69.6538V69.9145Z" fill="white"/>
<path fill-rule="evenodd" clip-rule="evenodd" d="M12.9751 69.9138H10.8043V69.6533C10.9947 69.6404 11.1532 69.6166 11.2797 69.5791C11.4062 69.5424 11.4687 69.4975 11.4687 69.4438C11.4687 69.4206 11.4667 69.3947 11.4612 69.3633C11.4565 69.3307 11.449 69.3029 11.4388 69.2777L11.0063 68.1098H9.18025C9.11156 68.28 9.05647 68.4298 9.01226 68.5577C8.97011 68.6842 8.93134 68.802 8.89733 68.9102C8.86604 69.0157 8.84293 69.1022 8.83068 69.1673C8.81913 69.234 8.813 69.2878 8.813 69.3293C8.813 69.4275 8.88984 69.5037 9.04355 69.5573C9.19793 69.6118 9.37205 69.6431 9.56518 69.6533V69.9138H7.60449V69.6533C7.66843 69.648 7.74732 69.6342 7.84252 69.6106C7.93775 69.588 8.01664 69.5567 8.0785 69.5171C8.17576 69.4511 8.25125 69.3818 8.30498 69.3089C8.35938 69.2367 8.41176 69.1375 8.46343 69.0097C8.72527 68.3555 9.01499 67.6198 9.33124 66.8031L9.51273 66.334C9.75559 65.7064 9.97631 65.136 10.1759 64.6233H10.4697L12.208 69.1233C12.244 69.2191 12.2855 69.2966 12.3318 69.356C12.3794 69.4146 12.4433 69.4709 12.5276 69.5275C12.5841 69.5627 12.6568 69.5913 12.7466 69.6146C12.8384 69.6377 12.9139 69.6506 12.9751 69.6533V69.9138ZM10.8737 67.7818L10.0834 65.7591L9.30811 67.7818H10.8737Z" fill="white"/>
<path fill-rule="evenodd" clip-rule="evenodd" d="M7.51913 65.9842C7.51913 66.2565 7.46541 66.4973 7.35863 66.7071C7.25254 66.9165 7.10564 67.0895 6.91657 67.2262C6.73023 67.3644 6.52619 67.4651 6.30313 67.5291C6.08007 67.5918 5.84408 67.6244 5.59449 67.6244H5.0103V69.206C5.0103 69.2911 5.02389 69.3658 5.05178 69.4313C5.08034 69.4953 5.13815 69.5455 5.22724 69.5795C5.27075 69.5975 5.34897 69.6136 5.46051 69.6273C5.57203 69.6422 5.6734 69.6511 5.76655 69.6538V69.9145H3.52907V69.6538C3.58825 69.6484 3.67326 69.6395 3.7848 69.6273C3.89701 69.6156 3.97454 69.5993 4.01805 69.5795C4.09082 69.5484 4.14522 69.502 4.17789 69.4402C4.21121 69.3787 4.22752 69.3007 4.22752 69.206V65.4411C4.22752 65.354 4.2153 65.2778 4.19011 65.2084C4.16631 65.1396 4.1085 65.0878 4.01805 65.0545C3.92555 65.0225 3.8324 64.9995 3.74127 64.9865C3.64808 64.9729 3.56919 64.9642 3.50391 64.9595V64.698H5.88419C6.3698 64.698 6.76355 64.8144 7.06551 65.0491C7.36815 65.2825 7.51913 65.5949 7.51913 65.9842ZM6.40174 66.8738C6.48608 66.7558 6.5398 66.6342 6.56769 66.5089C6.5942 66.3824 6.60781 66.2685 6.60781 66.1687C6.60781 66.0285 6.59149 65.8862 6.55886 65.7418C6.52485 65.5978 6.46838 65.4711 6.3868 65.3627C6.30179 65.2478 6.18889 65.1585 6.05015 65.094C5.91072 65.0307 5.73595 64.9995 5.52783 64.9995H5.0103V67.3045H5.38504C5.64958 67.3045 5.86448 67.2629 6.02974 67.1813C6.19499 67.0982 6.31945 66.9969 6.40174 66.8738Z" fill="white"/>
<path d="M2.8744 69.9145H0.525391V69.6538C0.592042 69.6484 0.687253 69.6409 0.812388 69.6315C0.938205 69.6225 1.02593 69.6069 1.07694 69.5871C1.15719 69.5558 1.21636 69.5115 1.25376 69.4565C1.29049 69.4015 1.30817 69.3251 1.30817 69.2271V65.4473C1.30817 65.3615 1.29525 65.29 1.26804 65.2322C1.24152 65.1749 1.17759 65.1275 1.07694 65.0865C1.00281 65.058 0.91168 65.0307 0.800148 65.0042C0.688614 64.9789 0.596798 64.9642 0.525391 64.9595V64.698H2.8744V64.9595C2.79755 64.9613 2.7071 64.9702 2.60238 64.9865C2.49696 65.0016 2.40514 65.0225 2.32626 65.0471C2.23377 65.0771 2.17052 65.1245 2.13923 65.19C2.1066 65.256 2.09163 65.3302 2.09163 65.4105V69.1869C2.09163 69.2673 2.10931 69.3387 2.14399 69.4015C2.17935 69.464 2.24125 69.5144 2.32626 69.5504C2.37726 69.5707 2.4616 69.5918 2.57789 69.6151C2.6935 69.638 2.79279 69.6511 2.8744 69.6538V69.9145Z" fill="white"/>
<path d="M33.993 77.1254H32.5528C32.2766 76.6952 31.9672 76.2693 31.6293 75.8453C31.2899 75.4218 30.9347 75.0109 30.5635 74.6134H30.4697V76.4012C30.4697 76.4816 30.4846 76.5516 30.5144 76.6151C30.5451 76.6783 30.5996 76.7287 30.6797 76.7667C30.7179 76.7838 30.79 76.8042 30.8947 76.8287C30.9995 76.8523 31.0871 76.8662 31.1558 76.868V77.1254H29.0264V76.868L29.2686 76.8463C29.3747 76.8374 29.4495 76.8225 29.4929 76.8029C29.5644 76.7714 29.6174 76.7245 29.6501 76.6632C29.6828 76.6027 29.6992 76.5285 29.6992 76.4407V72.7338C29.6992 72.652 29.6863 72.58 29.657 72.52C29.6303 72.46 29.5747 72.4111 29.4929 72.3716C29.4277 72.3402 29.3509 72.3125 29.2611 72.2885C29.1719 72.2634 29.0945 72.2498 29.0264 72.2451V71.9885H31.1558V72.2451C31.0891 72.2478 31.0048 72.2593 30.9036 72.2776C30.802 72.2974 30.7281 72.3143 30.6797 72.332C30.5967 72.3614 30.5411 72.4098 30.5131 72.4763C30.4846 72.5443 30.4697 72.6187 30.4697 72.6976V74.472H30.5411C30.7586 74.2882 30.9721 74.0963 31.1825 73.8974C31.3925 73.6987 31.5824 73.4993 31.7543 73.302C31.9441 73.0836 32.0842 72.9065 32.1712 72.7753C32.259 72.6445 32.3031 72.5274 32.3031 72.4254C32.3031 72.39 32.2813 72.36 32.2365 72.3369C32.1923 72.3143 32.14 72.2962 32.0822 72.2811C32.0155 72.2669 31.9548 72.2574 31.9018 72.254C31.8742 72.2516 31.8491 72.2502 31.8266 72.2489L31.8244 72.2485L31.7713 72.2451V71.9885H33.6965V72.2451L33.6891 72.2454L33.676 72.2463L33.6491 72.2492L33.6259 72.2511C33.6077 72.2527 33.5881 72.2545 33.5668 72.2558C33.5321 72.2593 33.4989 72.2627 33.4654 72.2703C33.4307 72.2776 33.3878 72.2858 33.3341 72.2962C33.2505 72.3143 33.1627 72.3451 33.073 72.3873C32.981 72.4309 32.9078 72.4827 32.8506 72.546L32.8142 72.5869C32.5759 72.856 32.3289 73.1349 32.0726 73.4218C31.8019 73.7233 31.5346 73.9989 31.2686 74.2472C31.6353 74.6623 31.9392 75.0196 32.1787 75.3185C32.4187 75.6178 32.6738 75.9378 32.9445 76.2774C33.0477 76.4087 33.1518 76.5122 33.2552 76.5911C33.3593 76.6694 33.4485 76.7287 33.5225 76.7667C33.585 76.798 33.664 76.8225 33.7579 76.8403C33.8517 76.8558 33.9305 76.8662 33.993 76.868V77.1254Z" fill="white"/>
<path d="M24.5105 72.259C24.4424 72.262 24.3383 72.2809 24.1989 72.3176C24.0594 72.3538 23.9582 72.3905 23.8991 72.4287C23.8114 72.4898 23.7536 72.6054 23.7236 72.777C23.6931 72.9478 23.678 73.1658 23.678 73.4283V77.1905H23.3632L20.2524 72.9874V75.6367C20.2524 75.9334 20.2708 76.1621 20.3082 76.3214C20.3456 76.4805 20.4034 76.5943 20.4795 76.661C20.5353 76.714 20.6502 76.7638 20.8231 76.8092C20.9972 76.8563 21.112 76.8801 21.168 76.8821V77.1394H19.0622V76.8821C19.1263 76.8774 19.2364 76.8543 19.3907 76.8121C19.5451 76.77 19.6416 76.7318 19.6812 76.6985C19.7648 76.6303 19.8227 76.5261 19.8538 76.388C19.886 76.25 19.9007 76.0123 19.9007 75.6763V73.1465C19.9007 73.0356 19.8818 72.9247 19.8431 72.813C19.8042 72.7021 19.7526 72.6165 19.6872 72.5558C19.6002 72.4769 19.4832 72.4076 19.3351 72.3511C19.1874 72.2952 19.0669 72.2645 18.9746 72.259V72.0027H20.4401L23.3272 75.92V73.4754C23.3272 73.1765 23.3074 72.9465 23.2694 72.7858C23.2312 72.6252 23.1755 72.5192 23.1028 72.4661C23.0348 72.4198 22.9246 72.3754 22.7714 72.3312C22.6186 72.2878 22.5023 72.2645 22.4218 72.259V72.0027H24.5105V72.259Z" fill="white"/>
<path fill-rule="evenodd" clip-rule="evenodd" d="M14.4707 77.1314H12.3332V76.8742C12.5209 76.8618 12.6766 76.8382 12.801 76.8014C12.9262 76.7653 12.9874 76.7209 12.9874 76.668C12.9874 76.6454 12.9854 76.6196 12.9806 76.5891C12.9751 76.5564 12.9684 76.5298 12.9581 76.5047L12.5324 75.3538H10.7343C10.6663 75.5218 10.6119 75.6694 10.569 75.7956C10.5269 75.92 10.4881 76.0364 10.4555 76.1425C10.4242 76.246 10.4024 76.3318 10.3902 76.3956C10.3786 76.4611 10.3725 76.5149 10.3725 76.5551C10.3725 76.6516 10.448 76.7271 10.5996 76.7804C10.7513 76.8333 10.9227 76.8647 11.1131 76.8742V77.1314H9.18164V76.8742C9.24489 76.8694 9.32309 76.8558 9.41697 76.832C9.51012 76.8102 9.58834 76.7789 9.64886 76.7407C9.74544 76.6747 9.81888 76.6073 9.87192 76.536C9.92564 76.4638 9.97733 76.3664 10.0277 76.2398C10.2861 75.5967 10.571 74.872 10.8825 74.0682L11.1666 73.3345C11.3649 72.8224 11.5473 72.3513 11.7149 71.9209H12.0033L13.7151 76.3529C13.7505 76.4469 13.7919 76.5236 13.8375 76.5814C13.8844 76.6394 13.947 76.6951 14.03 76.7511C14.0851 76.7851 14.1571 76.8136 14.2462 76.8354C14.336 76.8593 14.4101 76.8714 14.4707 76.8742V77.1314ZM12.4012 75.0318L11.6231 73.04L10.8601 75.0318H12.4012Z" fill="white"/>
<path fill-rule="evenodd" clip-rule="evenodd" d="M4.1754 74.7417C4.32502 74.8432 4.44948 74.9765 4.54877 75.1414C4.64737 75.3052 4.69703 75.5047 4.69703 75.7381C4.69703 75.977 4.64465 76.1839 4.54128 76.3608C4.43723 76.5379 4.30258 76.6821 4.13597 76.7956C3.97477 76.9054 3.79114 76.991 3.58781 77.0488C3.38446 77.1067 3.17432 77.1359 2.95669 77.1359H0.525391V76.8787C0.583201 76.8734 0.668888 76.8637 0.778385 76.8474C0.889917 76.8317 0.969487 76.8136 1.01777 76.7925C1.09258 76.7576 1.14495 76.7128 1.17759 76.6563C1.20819 76.599 1.22452 76.5263 1.22452 76.4376V72.7437C1.22452 72.6627 1.21091 72.5899 1.18235 72.5257C1.15515 72.4647 1.10006 72.4134 1.01777 72.3747C0.945002 72.3388 0.864753 72.3108 0.774982 72.2917C0.685892 72.2721 0.611764 72.2605 0.551234 72.2557V71.999H2.92064C3.10359 71.999 3.27905 72.0161 3.44702 72.0528C3.61503 72.089 3.77413 72.1536 3.92581 72.2448C4.06796 72.3285 4.18561 72.4436 4.27674 72.5885C4.36922 72.7327 4.41546 72.909 4.41546 73.1172C4.41546 73.2983 4.38147 73.4588 4.31753 73.6005C4.25225 73.7407 4.16112 73.8632 4.04209 73.9645C3.93124 74.0612 3.80408 74.1428 3.66058 74.2083C3.51708 74.275 3.36201 74.3267 3.19472 74.3627V74.3948C3.34366 74.4125 3.50756 74.4492 3.68914 74.5056C3.87208 74.5616 4.03395 74.6403 4.1754 74.7417ZM3.80408 75.6081C3.80408 75.3039 3.70138 75.0536 3.49804 74.8581C3.294 74.6628 3.00293 74.5656 2.6248 74.5656C2.47043 74.5656 2.33918 74.5668 2.23307 74.5703C2.16134 74.5725 2.10206 74.5752 2.05476 74.5772L1.99504 74.5797V76.3894C1.99504 76.5427 2.05625 76.6563 2.17935 76.7345C2.30246 76.8107 2.47247 76.8501 2.69282 76.8501C3.0519 76.8501 3.32734 76.7454 3.51708 76.535C3.70751 76.3247 3.80408 76.0157 3.80408 75.6081ZM3.30354 73.9687C3.39398 73.8645 3.45589 73.7508 3.49055 73.6277C3.52593 73.5052 3.54293 73.3576 3.54293 73.1896C3.54293 72.907 3.46541 72.6857 3.31101 72.5252C3.15731 72.3647 2.91385 72.2843 2.57994 72.2843C2.50376 72.2843 2.4065 72.2863 2.2902 72.2905L1.99504 72.2985V74.2721H2.45412C2.65202 74.2721 2.82066 74.2463 2.96145 74.1959C3.10359 74.145 3.21783 74.0701 3.30354 73.9687Z" fill="white"/>
<path d="M40.6831 77.1374H38.334V76.8762C38.4007 76.8714 38.4959 76.864 38.6211 76.8536C38.7468 76.8449 38.8345 76.83 38.8854 76.8102C38.9659 76.7789 39.025 76.7347 39.0624 76.6796C39.0991 76.6244 39.1167 76.5474 39.1167 76.4494V72.6704C39.1167 72.5847 39.1038 72.5131 39.0766 72.4551C39.05 72.3974 38.9863 72.3498 38.8854 72.3096C38.812 72.2811 38.7203 72.2531 38.6087 72.2273C38.4971 72.2022 38.4054 72.1871 38.334 72.1816V71.9209H40.6831V72.1816C40.606 72.1845 40.5157 72.1933 40.4109 72.2096C40.3055 72.2245 40.2137 72.2456 40.1347 72.2694C40.0417 72.3 39.9792 72.3478 39.9478 72.4124C39.915 72.4791 39.9002 72.5533 39.9002 72.6334V76.4094C39.9002 76.4896 39.9178 76.5618 39.9525 76.6244C39.9879 76.6869 40.0499 76.7373 40.1347 76.7734C40.1865 76.7938 40.2703 76.8149 40.3865 76.8373C40.5019 76.8613 40.6013 76.8742 40.6831 76.8762V77.1374Z" fill="white"/>
<path d="M33.3415 64.6011C33.2234 64.6684 33.1293 64.7255 33.0561 64.7731C32.9838 64.8215 32.9105 64.8855 32.8349 64.9651C32.7655 65.0366 32.7125 65.1133 32.6738 65.1959C32.6371 65.2788 32.6106 65.3857 32.5955 65.5135H32.7732C32.9269 65.5135 33.0457 65.5519 33.1335 65.6281C33.2205 65.703 33.2654 65.8146 33.2654 65.9601C33.2654 66.0657 33.2261 66.1622 33.1485 66.2535C33.0702 66.3439 32.9621 66.3895 32.8268 66.3895C32.6118 66.3895 32.4596 66.3195 32.3686 66.1799C32.2761 66.039 32.2305 65.8551 32.2305 65.6281C32.2305 65.4666 32.2657 65.3197 32.3359 65.1877C32.4053 65.0542 32.4901 64.9359 32.5902 64.8317C32.6936 64.7255 32.8024 64.6351 32.918 64.5602C33.0323 64.4866 33.1287 64.4253 33.2071 64.3784L33.3415 64.6011Z" fill="white"/>
<path d="M53.5186 77.651H65.7445V76.2782C65.3262 76.2653 64.8106 76.1999 64.2032 76.0761C63.596 75.9584 63.1648 75.8466 62.897 75.7426C62.4459 75.5528 62.1325 75.2913 61.9433 74.9648C61.7604 74.6443 61.6694 74.2721 61.6694 73.8473V54.2001C61.6694 53.7823 61.7542 53.3964 61.9168 53.0501C62.0809 52.7103 62.4072 52.4621 62.897 52.3048C63.3017 52.1808 63.7782 52.0761 64.3271 51.991C64.876 51.9064 65.3459 51.8603 65.7445 51.8473V50.4753H53.5186V51.8473C53.8914 51.8741 54.3611 51.9521 54.9426 52.0895C55.5233 52.2204 56.0063 52.3639 56.3858 52.5143C56.9149 52.7232 57.2412 52.9717 57.3847 53.2724C57.5223 53.5733 57.5935 53.9455 57.5935 54.3899V74.0563C57.5935 74.5659 57.4956 74.9648 57.3066 75.2521C57.1169 75.5399 56.8101 75.7686 56.3858 75.9319C56.1178 76.0366 55.6607 76.115 55.014 76.1606C54.3611 76.2128 53.8647 76.2524 53.5186 76.2782V77.651Z" fill="white"/>
<path fill-rule="evenodd" clip-rule="evenodd" d="M89.0789 60.9452C89.6345 59.8541 89.9085 58.5986 89.9085 57.181C89.9085 55.1483 89.125 53.527 87.5507 52.3048C85.9769 51.0832 83.9265 50.4753 81.4054 50.4753H69.0225V51.8473C69.3686 51.8741 69.7732 51.9197 70.2569 51.991C70.7334 52.0632 71.2104 52.1808 71.6938 52.3441C72.1639 52.5206 72.4644 52.7886 72.5948 53.1479C72.7188 53.5072 72.784 53.9061 72.784 54.3504V73.9452C72.784 74.4413 72.6997 74.8472 72.5296 75.1668C72.3597 75.4873 72.0856 75.729 71.6998 75.893C71.4782 75.9972 71.073 76.0823 70.4983 76.1475L70.3606 76.1617C69.8531 76.2141 69.4612 76.2544 69.1794 76.2782V77.651H80.8171V76.2782C80.3343 76.2653 79.7985 76.2197 79.2109 76.1475C78.6293 76.0693 78.2247 75.9843 77.9961 75.893C77.5323 75.7161 77.2256 75.4615 77.0815 75.1212C76.9313 74.7817 76.8597 74.3957 76.8597 73.9452V65.7295H79.8963C81.1966 65.7295 82.4243 65.5662 83.5866 65.2326C84.7425 64.8992 85.807 64.3766 86.7741 63.6579C87.7534 62.9452 88.524 62.0435 89.0789 60.9452ZM84.9581 59.8997C84.8139 60.5599 84.5337 61.1935 84.0958 61.8013C83.6645 62.4424 83.0184 62.9712 82.1561 63.4026C81.3007 63.8273 80.1839 64.0432 78.8063 64.0432H76.8597V52.0433H79.5501C80.6341 52.0433 81.536 52.2066 82.2671 52.5401C82.9921 52.8735 83.5737 53.3379 84.0244 53.9388C84.442 54.501 84.7358 55.1548 84.9125 55.913C85.0821 56.6644 85.1669 57.4028 85.1669 58.1283C85.1669 58.651 85.095 59.2397 84.9581 59.8997Z" fill="white"/>
<path fill-rule="evenodd" clip-rule="evenodd" d="M107.065 77.6499H118.351V76.2772C118.031 76.2643 117.64 76.1988 117.163 76.0752C116.692 75.9574 116.307 75.8068 116.02 75.6237C115.582 75.3299 115.242 75.0352 115.001 74.7283C114.76 74.4214 114.544 74.0157 114.355 73.519L105.302 50.0815H103.768C103.213 51.5126 102.625 53.0297 102.003 54.6332C101.182 56.7499 100.302 59.0172 99.3658 61.4348C97.7199 65.689 96.2175 69.5192 94.8528 72.9248C94.5846 73.591 94.3106 74.1075 94.0305 74.4866C93.7496 74.8655 93.3509 75.2252 92.8417 75.5715C92.5214 75.7743 92.1167 75.9377 91.6202 76.0554C91.1169 76.1794 90.7063 76.2514 90.373 76.2772V77.6499H100.607V76.2772C99.6009 76.2246 98.693 76.0614 97.8898 75.7804C97.0869 75.4992 96.6813 75.1005 96.6813 74.5908C96.6813 74.375 96.714 74.0939 96.7793 73.7483C96.8447 73.4079 96.9622 72.9574 97.1256 72.4081C97.3013 71.847 97.5037 71.2401 97.7257 70.5743L97.7266 70.5714C97.9552 69.9112 98.2422 69.1341 98.602 68.2383H108.13L110.377 74.3232C110.429 74.4541 110.468 74.5975 110.495 74.7677C110.52 74.931 110.527 75.0685 110.527 75.1855C110.527 75.4666 110.201 75.7021 109.547 75.8921C108.888 76.0881 108.065 76.2117 107.065 76.2772V77.6499ZM103.317 55.9964L107.438 66.5519H99.2608L103.317 55.9964Z" fill="white"/>
<path d="M138.048 77.651H145.657V76.2782C145.323 76.2653 144.913 76.2128 144.416 76.1279C143.92 76.0366 143.508 75.9121 143.175 75.7426C142.783 75.5399 142.307 75.2323 141.765 74.8212C141.216 74.4026 140.667 73.8533 140.119 73.1673C138.695 71.3701 137.343 69.6775 136.076 68.095C134.802 66.5141 133.202 64.6183 131.263 62.4226C132.66 61.1084 134.071 59.6575 135.495 58.0561C136.893 56.4897 138.235 54.9739 139.533 53.5079L139.602 53.429C139.91 53.1023 140.302 52.8213 140.785 52.5995C141.261 52.3768 141.725 52.2135 142.169 52.1153C142.45 52.0632 142.685 52.0175 142.861 51.9781C143.038 51.9455 143.22 51.9193 143.397 51.9064C143.567 51.8935 143.711 51.8801 143.841 51.8672C143.965 51.8543 144.05 51.8473 144.09 51.8473V50.4753H133.92V51.8473C134.008 51.8539 134.11 51.8603 134.225 51.8677C134.341 51.8753 134.471 51.8837 134.613 51.8935C134.894 51.9128 135.207 51.965 135.566 52.0373C135.874 52.1153 136.141 52.2135 136.376 52.3312C136.611 52.4552 136.735 52.6124 136.735 52.8015C136.735 53.3379 136.5 53.9524 136.037 54.6444C135.573 55.3373 134.835 56.2657 133.829 57.4293C132.921 58.4746 131.916 59.5206 130.806 60.5797C129.702 61.6319 128.572 62.6444 127.429 63.6115H127.043V54.2395C127.043 53.8148 127.122 53.429 127.273 53.0695C127.423 52.7166 127.717 52.4621 128.141 52.3048C128.395 52.2204 128.787 52.1217 129.323 52.0175C129.852 51.9193 130.296 51.8603 130.648 51.8473V50.4753H119.363V51.8473C119.722 51.8741 120.147 51.9521 120.623 52.0761C121.101 52.2066 121.512 52.351 121.864 52.5143C122.302 52.7232 122.596 52.9846 122.747 53.2983C122.897 53.6188 122.968 53.9979 122.968 54.4293V74.0235C122.968 74.481 122.883 74.873 122.707 75.2003C122.531 75.5201 122.25 75.7686 121.864 75.9319C121.629 76.0366 121.231 76.115 120.663 76.1606C120.095 76.2128 119.664 76.2524 119.363 76.2782V77.651H130.648V76.2782C130.283 76.2653 129.826 76.1932 129.271 76.0693C128.722 75.9386 128.344 75.8337 128.141 75.7426C127.73 75.5399 127.442 75.2715 127.279 74.9381C127.122 74.6055 127.043 74.2324 127.043 73.8077V64.3568H127.54C129.499 66.4619 131.38 68.6383 133.17 70.8799C134.959 73.1219 136.585 75.3766 138.048 77.651Z" fill="white"/>
<path d="M178.189 52.1088C178.659 51.9453 179.006 51.8603 179.221 51.8473V50.4753H169.79V51.8473C170.157 51.887 170.561 51.9193 170.992 51.9521C171.43 51.9848 171.828 52.0503 172.201 52.1481C172.559 52.2523 172.847 52.3897 173.062 52.5668C173.278 52.7499 173.389 52.9777 173.389 53.2724C173.389 53.625 172.86 54.7106 171.802 56.5139C170.751 58.3183 169.216 60.8343 167.204 64.0628C166.599 62.9655 166.063 61.9932 165.596 61.147C165.293 60.597 165.019 60.1004 164.775 59.6575C164.155 58.5272 163.547 57.3961 162.953 56.2657C162.897 56.1584 162.84 56.0508 162.783 55.9424C162.627 55.6472 162.468 55.3459 162.306 55.0303C162.078 54.6057 161.882 54.2266 161.712 53.8932C161.574 53.6059 161.463 53.3637 161.391 53.1677C161.313 52.9777 161.274 52.841 161.274 52.7688C161.274 52.4879 161.542 52.2661 162.078 52.1153C162.613 51.965 163.534 51.8741 164.833 51.8473V50.4753H153.241V51.8473C153.588 51.8741 153.973 51.9392 154.397 52.0373C154.828 52.1415 155.194 52.2855 155.501 52.4815C155.919 52.7559 156.291 53.0826 156.617 53.4555C156.944 53.8217 157.316 54.3703 157.741 55.1026C158.427 56.3243 159.237 57.7948 160.171 59.5206C161.104 61.2399 161.947 62.8404 162.718 64.3181C163.057 64.9843 163.358 65.5859 163.606 66.1284C163.854 66.6708 163.978 67.043 163.978 67.2459V73.8473C163.978 74.3304 163.894 74.7421 163.717 75.0755C163.547 75.4024 163.234 75.6635 162.77 75.8595C162.489 75.9713 161.993 76.0624 161.274 76.1346C160.562 76.2068 160.027 76.2524 159.667 76.2782V77.651H172.363V76.2782C171.946 76.2653 171.391 76.187 170.705 76.0366C170.019 75.893 169.542 75.7686 169.275 75.6635C168.83 75.4615 168.517 75.1935 168.328 74.8537C168.145 74.5135 168.054 74.1148 168.054 73.6573V68.475C168.054 67.5268 168.132 66.8083 168.282 66.3115C168.438 65.8146 168.746 65.1544 169.222 64.337C170.483 62.1219 171.534 60.2917 172.377 58.8477C173.219 57.4097 174.134 55.9844 175.126 54.5861C175.636 53.8803 175.982 53.4488 176.158 53.2853C176.341 53.1152 176.68 52.8804 177.177 52.5728C177.38 52.4224 177.719 52.2661 178.189 52.1088Z" fill="white"/>
<path fill-rule="evenodd" clip-rule="evenodd" d="M204.82 58.2135C204.142 56.4426 203.206 54.9326 202.007 53.6844C200.843 52.4553 199.465 51.5011 197.87 50.8219C196.277 50.1482 194.58 49.8086 192.783 49.8086C191.048 49.8086 189.387 50.142 187.801 50.8084C186.213 51.4684 184.816 52.4295 183.622 53.6844C182.406 54.9455 181.459 56.4426 180.767 58.1746C180.081 59.9062 179.734 61.8797 179.734 64.089C179.734 66.1088 180.061 68.0042 180.72 69.7755C181.374 71.5464 182.281 73.0499 183.424 74.2917C184.574 75.5597 185.953 76.5466 187.552 77.2522C189.153 77.9648 190.895 78.3173 192.783 78.3173C194.56 78.3173 196.226 77.9846 197.799 77.3177C199.367 76.6575 200.744 75.7093 201.927 74.4811C203.154 73.2459 204.108 71.7424 204.802 69.9777C205.487 68.2131 205.832 66.2524 205.832 64.089C205.832 61.9451 205.492 59.9851 204.82 58.2135ZM200.719 69.0235C200.392 70.501 199.878 71.8146 199.158 72.9844C198.472 74.1346 197.576 75.0304 196.48 75.6706C195.383 76.3111 194.149 76.6315 192.783 76.6315C191.326 76.6315 190.079 76.3179 189.029 75.6835C187.983 75.0499 187.114 74.1673 186.429 73.043C185.71 71.8868 185.188 70.5724 184.854 69.0828C184.521 67.5993 184.36 65.9326 184.36 64.089C184.36 62.429 184.516 60.8411 184.828 59.3311C185.143 57.8215 185.619 56.5011 186.253 55.377C186.932 54.1941 187.806 53.2528 188.878 52.5531C189.948 51.8475 191.248 51.4951 192.783 51.4951C194.149 51.4951 195.363 51.8019 196.422 52.4097C197.48 53.0175 198.361 53.8606 199.066 54.9522C199.765 56.05 200.301 57.3833 200.659 58.9457C201.026 60.5077 201.208 62.2201 201.208 64.089C201.208 65.9128 201.046 67.5528 200.719 69.0235Z" fill="white"/>
<path d="M213.069 50.4702C213.447 50.2216 213.932 49.9278 214.539 49.5814L213.847 48.4373C213.441 48.6794 212.944 48.9925 212.357 49.3716C211.763 49.7576 211.201 50.2216 210.672 50.7709C210.156 51.3065 209.72 51.9143 209.361 52.6011C208.999 53.2803 208.817 54.0383 208.817 54.8685C208.817 56.0385 209.054 56.9865 209.53 57.712C209.998 58.4307 210.783 58.79 211.888 58.79C212.584 58.79 213.142 58.5545 213.547 58.0911C213.945 57.6202 214.146 57.1233 214.146 56.5809C214.146 55.8296 213.917 55.2538 213.469 54.8685C213.016 54.4765 212.402 54.2807 211.612 54.2807H210.698C210.776 53.6203 210.914 53.0711 211.103 52.6467C211.301 52.222 211.574 51.8231 211.933 51.4569C212.319 51.0453 212.696 50.7185 213.069 50.4702Z" fill="white"/>
<path d="M239.337 77.651L239.912 69.5726H238.542C238.274 70.3112 237.789 71.2788 237.099 72.4746C236.405 73.6703 235.8 74.5592 235.277 75.1479C235.1 75.3506 234.819 75.5201 234.446 75.6506C234.068 75.7882 233.663 75.893 233.211 75.9713C232.755 76.0426 232.271 76.0952 231.763 76.1217C231.252 76.1475 230.763 76.1606 230.293 76.1606C229.246 76.1606 228.438 76.1279 227.856 76.0564C227.282 75.9843 226.844 75.8337 226.552 75.6052C226.243 75.3506 226.054 74.9906 225.97 74.5264C225.885 74.0563 225.845 73.4028 225.845 72.5597V54.3179C225.845 53.8932 225.925 53.5012 226.087 53.1281C226.243 52.7628 226.543 52.5013 226.975 52.3441C227.237 52.2523 227.647 52.155 228.216 52.0373C228.783 51.9257 229.246 51.8603 229.608 51.8473V50.4753H218.165V51.8473C218.503 51.8741 218.943 51.959 219.462 52.1088C219.987 52.2523 220.398 52.4026 220.685 52.553C221.116 52.7628 221.405 53.0308 221.555 53.3575C221.697 53.6903 221.77 54.0693 221.77 54.5077V73.9452C221.77 74.4413 221.686 74.8472 221.515 75.1668C221.346 75.4873 221.07 75.729 220.685 75.893C220.465 75.9972 220.058 76.0823 219.484 76.1475L219.346 76.1619C218.837 76.2141 218.447 76.2544 218.165 76.2782V77.651H239.337Z" fill="white"/>
<path d="M241.421 77.651H253.647V76.2782C253.229 76.2653 252.713 76.1999 252.106 76.0761C251.497 75.9584 251.067 75.8466 250.798 75.7426C250.349 75.5528 250.035 75.2913 249.846 74.9648C249.662 74.6443 249.572 74.2721 249.572 73.8473V54.2001C249.572 53.7823 249.657 53.3964 249.82 53.0501C249.984 52.7103 250.309 52.4621 250.798 52.3048C251.205 52.1808 251.681 52.0761 252.23 51.991C252.778 51.9064 253.247 51.8603 253.647 51.8473V50.4753H241.421V51.8473C241.793 51.8741 242.264 51.9521 242.845 52.0895C243.427 52.2204 243.908 52.3639 244.288 52.5143C244.817 52.7232 245.144 52.9717 245.287 53.2724C245.425 53.5733 245.496 53.9455 245.496 54.3899V74.0563C245.496 74.5659 245.398 74.9648 245.209 75.2521C245.02 75.5399 244.713 75.7686 244.288 75.9319C244.021 76.0366 243.563 76.115 242.916 76.1606C242.264 76.2128 241.768 76.2524 241.421 76.2782V77.651Z" fill="white"/>
<path fill-rule="evenodd" clip-rule="evenodd" d="M287.733 67.115C287.211 66.2461 286.55 65.5464 285.76 65.0108C285.009 64.4744 284.148 64.0566 283.189 63.7559C282.22 63.4552 281.352 63.2592 280.576 63.1739V62.9977C281.457 62.8079 282.273 62.5337 283.038 62.1804C283.794 61.8339 284.466 61.4026 285.057 60.8866C285.683 60.3503 286.165 59.7101 286.512 58.9584C286.859 58.2133 287.028 57.3572 287.028 56.4032C287.028 55.2986 286.786 54.3703 286.296 53.5992C285.814 52.8343 285.193 52.2264 284.435 51.7753C283.63 51.2921 282.782 50.9524 281.895 50.7626C281.005 50.5728 280.073 50.4753 279.106 50.4753H266.533V51.8473C266.855 51.8741 267.258 51.9392 267.736 52.0373C268.212 52.1415 268.65 52.2855 269.035 52.4815C269.473 52.6844 269.767 52.9519 269.916 53.2853C270.067 53.6121 270.14 53.9979 270.14 54.4293V73.9452C270.14 74.4155 270.054 74.8015 269.891 75.1015C269.727 75.4024 269.448 75.6377 269.048 75.8208C268.793 75.9319 268.376 76.0297 267.794 76.115C267.205 76.1999 266.764 76.2524 266.455 76.2782V77.651H279.315C280.463 77.651 281.575 77.5006 282.653 77.1935C283.73 76.8861 284.697 76.4415 285.551 75.8535C286.434 75.2521 287.146 74.4875 287.695 73.5593C288.242 72.625 288.518 71.5333 288.518 70.2655C288.518 69.0303 288.254 67.9781 287.733 67.115ZM282.129 59.0959C281.941 59.7493 281.613 60.3503 281.145 60.8995C280.678 61.4359 280.078 61.8408 279.333 62.109C278.588 62.377 277.689 62.5139 276.644 62.5139H274.213V52.0433C274.389 52.0381 274.582 52.0326 274.791 52.0266C275.085 52.0184 275.414 52.0093 275.776 51.9977C276.395 51.9779 276.906 51.965 277.317 51.965C279.073 51.965 280.365 52.3897 281.183 53.2461C281.999 54.0959 282.404 55.2719 282.404 56.7692C282.404 57.6641 282.313 58.4421 282.129 59.0959ZM282.162 65.6315C283.24 66.6579 283.776 67.9781 283.776 69.5793C283.776 71.7293 283.272 73.3566 282.268 74.4612C281.254 75.5657 279.806 76.1217 277.903 76.1217C276.748 76.1217 275.839 75.919 275.187 75.5132C274.54 75.1015 274.213 74.5004 274.213 73.697V64.1608C274.413 64.1517 274.682 64.1426 275.022 64.131C275.16 64.1262 275.312 64.1208 275.474 64.1152C276.036 64.0953 276.73 64.0824 277.538 64.0824C279.542 64.0824 281.085 64.5992 282.162 65.6315Z" fill="white"/>
<path fill-rule="evenodd" clip-rule="evenodd" d="M306.144 77.6499H317.427V76.2772C317.109 76.2643 316.714 76.1988 316.238 76.0752C315.77 75.9574 315.383 75.8068 315.096 75.6237C314.658 75.3299 314.32 75.0352 314.078 74.7283C313.837 74.4214 313.62 74.0157 313.43 73.519L304.378 50.0815H302.842C302.221 51.6881 301.558 53.4034 300.849 55.227C300.093 57.1726 299.292 59.2417 298.442 61.4348C296.796 65.689 295.293 69.5192 293.929 72.9248C293.662 73.591 293.389 74.1075 293.107 74.4866C292.826 74.8655 292.426 75.2252 291.917 75.5715C291.599 75.7743 291.192 75.9377 290.696 76.0554C290.193 76.1794 289.783 76.2514 289.448 76.2772V77.6499H299.683V76.2772C298.676 76.2246 297.77 76.0614 296.965 75.7804C296.163 75.4992 295.758 75.1005 295.758 74.5908C295.758 74.375 295.791 74.0939 295.856 73.7483C295.92 73.4079 296.038 72.9574 296.202 72.4081C296.369 71.8774 296.56 71.3057 296.767 70.6821L296.801 70.5714C297.032 69.9112 297.319 69.1341 297.677 68.2383H307.207L309.454 74.3232C309.505 74.4541 309.545 74.5975 309.572 74.7677C309.596 74.931 309.603 75.0685 309.603 75.1855C309.603 75.4666 309.278 75.7021 308.624 75.8921C307.964 76.0881 307.143 76.2117 306.144 76.2772V77.6499ZM302.394 55.9964L306.513 66.5519H298.337L302.394 55.9964Z" fill="white"/>
<path d="M344.584 52.155C345.322 51.965 345.864 51.8603 346.222 51.8473V50.4753H335.211V51.8473C335.629 51.8741 336.25 51.9977 337.061 52.2264C337.871 52.4621 338.452 52.6973 338.812 52.939C339.19 53.2201 339.484 53.7823 339.686 54.6253C339.888 55.4748 339.993 56.6904 339.993 58.2719V71.1741L324.731 50.4753H316.991V51.8473C317.473 51.8741 318.109 52.0373 318.899 52.3375C319.684 52.6321 320.302 52.9975 320.759 53.4161C321.107 53.7366 321.379 54.1872 321.583 54.7757C321.784 55.3637 321.888 55.9457 321.888 56.5337V69.9063C321.888 71.6837 321.804 72.9319 321.642 73.6643C321.479 74.4026 321.17 74.945 320.727 75.3043C320.525 75.4813 320.015 75.6833 319.199 75.9061C318.381 76.1279 317.809 76.2524 317.46 76.2782V77.651H328.588V76.2782C328.296 76.2653 327.689 76.1415 326.768 75.893C325.847 75.6506 325.233 75.3895 324.94 75.1083C324.535 74.7559 324.228 74.1541 324.032 73.311C323.828 72.4677 323.732 71.2653 323.732 69.6964V55.6837L340.18 77.9252H341.834V58.0303C341.834 56.6384 341.912 55.4946 342.075 54.5861C342.233 53.6773 342.54 53.0695 342.997 52.7499C343.318 52.5401 343.845 52.3441 344.584 52.155Z" fill="white"/>
<path d="M367.186 77.651H374.795V76.2782C374.463 76.2653 374.05 76.2128 373.554 76.1279C373.058 76.0366 372.646 75.9121 372.315 75.7426C371.921 75.5399 371.445 75.2323 370.903 74.8212C370.353 74.4026 369.804 73.8533 369.255 73.1673C367.833 71.3701 366.483 69.6775 365.215 68.095C363.941 66.5141 362.34 64.6183 360.402 62.4226C361.799 61.1084 363.209 59.6575 364.633 58.0561C366.032 56.4895 367.373 54.9737 368.67 53.5075L368.741 53.429C369.048 53.1023 369.441 52.8213 369.922 52.5995C370.4 52.3768 370.863 52.2135 371.307 52.1153C371.588 52.0632 371.825 52.0175 372.001 51.9781C372.175 51.9455 372.361 51.9193 372.535 51.9064C372.706 51.8935 372.847 51.8801 372.978 51.8672C373.104 51.8543 373.187 51.8473 373.227 51.8473V50.4753H363.058V51.8473C363.145 51.8539 363.247 51.8603 363.361 51.8677C363.48 51.8753 363.61 51.8837 363.752 51.8935C364.034 51.9128 364.344 51.965 364.704 52.0373C365.011 52.1153 365.28 52.2135 365.514 52.3312C365.751 52.4552 365.874 52.6124 365.874 52.8015C365.874 53.3379 365.638 53.9524 365.175 54.6444C364.711 55.3373 363.974 56.2657 362.967 57.4293C362.059 58.4746 361.054 59.5206 359.946 60.5797C358.841 61.6319 357.711 62.6444 356.568 63.6115H356.181V54.2395C356.181 53.8148 356.261 53.429 356.412 53.0695C356.561 52.7166 356.857 52.4621 357.28 52.3048C357.535 52.2204 357.925 52.1217 358.461 52.0175C358.992 51.9193 359.433 51.8603 359.788 51.8473V50.4753H348.501V51.8473C348.861 51.8741 349.286 51.9521 349.762 52.0761C350.24 52.2066 350.65 52.351 351.003 52.5143C351.441 52.7232 351.735 52.9846 351.884 53.2983C352.035 53.6188 352.108 53.9979 352.108 54.4293V74.0235C352.108 74.481 352.022 74.873 351.846 75.2003C351.67 75.5201 351.388 75.7686 351.003 75.9319C350.767 76.0366 350.371 76.115 349.802 76.1606C349.235 76.2128 348.803 76.2524 348.501 76.2782V77.651H359.788V76.2782C359.421 76.2653 358.965 76.1932 358.41 76.0693C357.862 75.9386 357.482 75.8337 357.28 75.7426C356.868 75.5399 356.581 75.2715 356.417 74.9381C356.261 74.6055 356.181 74.2324 356.181 73.8077V64.3568H356.679C358.637 66.4619 360.518 68.6383 362.308 70.8799C364.097 73.1219 365.723 75.3766 367.186 77.651Z" fill="white"/>
<path d="M375.319 77.651H387.545V76.2782C387.127 76.2653 386.611 76.1999 386.003 76.0761C385.396 75.9584 384.965 75.8466 384.698 75.7426C384.248 75.5528 383.933 75.2913 383.744 74.9648C383.561 74.6443 383.468 74.2721 383.468 73.8473V54.2001C383.468 53.7823 383.554 53.3964 383.717 53.0501C383.881 52.7103 384.208 52.4621 384.698 52.3048C385.102 52.1808 385.579 52.0761 386.128 51.991C386.675 51.9064 387.146 51.8603 387.545 51.8473V50.4753H375.319V51.8473C375.692 51.8741 376.161 51.9521 376.744 52.0895C377.325 52.2204 377.807 52.3639 378.185 52.5143C378.715 52.7232 379.042 52.9717 379.184 53.2724C379.322 53.5733 379.393 53.9455 379.393 54.3899V74.0563C379.393 74.5659 379.297 74.9648 379.106 75.2521C378.917 75.5399 378.612 75.7686 378.185 75.9319C377.917 76.0366 377.461 76.115 376.813 76.1606C376.161 76.2128 375.665 76.2524 375.319 76.2782V77.651Z" fill="white"/>
</svg>
