<svg width="693" height="397" viewBox="0 0 693 397" fill="none" xmlns="http://www.w3.org/2000/svg">
<rect width="693" height="397" rx="15" fill="#02425D"/>
<path d="M885.423 610.23C795.784 711.22 417.391 535.764 316.401 446.124C215.412 356.485 405.955 403.981 495.594 302.992C585.233 202.002 603.099 -121.72 704.088 -32.0808C805.078 57.5584 975.062 509.24 885.423 610.23Z" fill="#35687D"/>
<g clip-path="url(#clip0_2002_87)">
<path d="M786.186 251.437C778.03 259.594 768.274 264.245 756.92 265.389C745.566 266.534 735.152 263.886 725.678 257.446L649.937 333.187C636.693 346.431 620.797 353.053 602.249 353.053C583.701 353.053 567.805 346.431 554.562 333.187C541.318 319.944 534.696 304.048 534.696 285.5C534.696 266.952 541.318 251.056 554.562 237.812L581.812 210.562C591.176 201.198 595.859 189.839 595.859 176.486C595.841 163.134 591.14 151.766 581.757 142.383C572.374 133 561.029 128.322 547.722 128.349C534.415 128.377 523.07 133.073 513.687 142.437L437.932 218.192C444.335 227.685 446.979 238.103 445.861 249.448C444.744 260.793 440.102 270.54 431.937 278.687C422.472 288.152 411.127 292.885 397.901 292.885C384.649 292.894 373.295 288.17 363.839 278.715C354.383 269.259 349.655 257.9 349.655 244.639C349.655 231.377 354.374 220.018 363.812 210.563C371.968 202.406 381.719 197.769 393.064 196.651C404.391 195.534 414.81 198.168 424.32 204.554L500.062 128.813C513.305 115.569 529.201 108.947 547.749 108.947C566.297 108.947 582.193 115.569 595.436 128.813C608.68 142.056 615.302 157.952 615.302 176.5C615.302 195.048 608.68 210.944 595.437 224.187L568.187 251.437C558.822 260.802 554.144 272.166 554.153 285.527C554.162 298.871 558.858 310.234 568.241 319.617C577.624 329 588.974 333.673 602.29 333.637C615.606 333.619 626.947 328.927 636.311 319.562L712.066 243.807C705.663 234.315 703.024 223.901 704.15 212.565C705.277 201.229 709.914 191.478 718.061 183.312C727.526 173.848 738.876 169.12 752.11 169.129C765.354 169.111 776.703 173.829 786.159 183.285C795.615 192.741 800.343 204.1 800.343 217.361C800.343 230.623 795.624 241.982 786.186 251.437ZM418.312 265.062C423.916 259.458 426.723 252.646 426.732 244.625C426.723 236.604 423.916 229.792 418.312 224.187C412.707 218.583 405.895 215.776 397.874 215.767C389.853 215.776 383.041 218.583 377.437 224.187C371.832 229.792 369.025 236.604 369.016 244.625C369.025 252.646 371.832 259.458 377.437 265.062C383.041 270.667 389.853 273.474 397.874 273.483C405.895 273.474 412.707 270.667 418.312 265.062Z" fill="#0291EB"/>
</g>
<defs>
<clipPath id="clip0_2002_87">
<rect width="462.448" height="462.448" fill="white" transform="translate(248 231) rotate(-45)"/>
</clipPath>
</defs>
</svg>
