<svg width="693" height="397" viewBox="0 0 693 397" fill="none" xmlns="http://www.w3.org/2000/svg">
<rect width="693" height="397" rx="15" fill="#EFFCFF"/>
<path d="M371 347C538.088 256.728 371 -85 727.001 -39C1012.98 -152 710.937 143.597 710.937 250.113C710.937 356.629 815.693 513.839 709.253 513.839C514.345 603.641 121.983 535.621 371 347Z" fill="#E4FAFF"/>
<path d="M504.504 345.071L510.038 317.4H520.202L514.668 345.071H504.504ZM496.993 336.035L498.913 326.435H527.713L525.793 336.035H496.993ZM526.336 351L527.973 342.812L544.519 330.106C545.724 329.165 546.646 328.355 547.286 327.678C547.964 327 548.434 326.36 548.698 325.758C548.961 325.155 549.093 324.553 549.093 323.951C549.093 323.085 548.754 322.388 548.077 321.861C547.437 321.334 546.571 321.071 545.479 321.071C544.312 321.071 543.183 321.409 542.091 322.087C541.037 322.727 540.077 323.649 539.211 324.854L530.345 319.376C531.889 316.704 534.166 314.576 537.178 312.995C540.227 311.376 543.672 310.567 547.512 310.567C550.449 310.567 553.065 311.056 555.361 312.035C557.696 313.014 559.521 314.351 560.839 316.045C562.157 317.739 562.816 319.678 562.816 321.861C562.816 323.48 562.514 325.042 561.912 326.548C561.347 328.016 560.369 329.522 558.976 331.066C557.62 332.572 555.757 334.228 553.385 336.035L541.187 345.296L539.606 340.666H560.105L558.016 351H526.336ZM561.765 344.224L563.459 335.753L584.636 311.471H598.753L578.198 335.753L571.93 333.889H602.537L600.448 344.224H561.765ZM580.909 351L582.264 344.224L584.975 333.889L586.16 327.847H598.471L593.84 351H580.909ZM605.227 351L639.561 311.471H649.67L615.335 351H605.227ZM613.585 332.929C610.837 332.929 608.578 332.139 606.808 330.558C605.077 328.939 604.211 326.642 604.211 323.668C604.211 321.221 604.681 319.038 605.623 317.118C606.564 315.198 607.919 313.692 609.688 312.6C611.458 311.471 613.585 310.906 616.07 310.906C618.855 310.906 621.114 311.715 622.846 313.334C624.578 314.915 625.444 317.193 625.444 320.167C625.444 322.614 624.973 324.798 624.032 326.718C623.091 328.638 621.735 330.162 619.966 331.292C618.234 332.384 616.107 332.929 613.585 332.929ZM614.319 326.831C615.147 326.831 615.768 326.492 616.183 325.814C616.634 325.136 616.935 324.308 617.086 323.329C617.274 322.313 617.368 321.372 617.368 320.506C617.368 319.188 617.161 318.285 616.747 317.795C616.333 317.268 615.863 317.005 615.335 317.005C614.507 317.005 613.867 317.344 613.415 318.021C613.001 318.699 612.7 319.527 612.512 320.506C612.361 321.485 612.286 322.426 612.286 323.329C612.286 324.647 612.493 325.569 612.907 326.096C613.321 326.586 613.792 326.831 614.319 326.831ZM638.827 351.565C636.079 351.565 633.82 350.774 632.051 349.193C630.319 347.574 629.453 345.278 629.453 342.304C629.453 339.856 629.924 337.673 630.865 335.753C631.806 333.833 633.161 332.327 634.931 331.235C636.7 330.106 638.827 329.541 641.312 329.541C644.098 329.541 646.357 330.351 648.088 331.969C649.82 333.551 650.686 335.828 650.686 338.802C650.686 341.249 650.215 343.433 649.274 345.353C648.333 347.273 646.978 348.798 645.208 349.927C643.477 351.019 641.35 351.565 638.827 351.565ZM639.561 345.466C640.39 345.466 641.011 345.127 641.425 344.449C641.877 343.772 642.178 342.944 642.328 341.965C642.517 340.948 642.611 340.007 642.611 339.141C642.611 337.824 642.404 336.92 641.99 336.431C641.575 335.904 641.105 335.64 640.578 335.64C639.75 335.64 639.11 335.979 638.658 336.656C638.244 337.334 637.943 338.162 637.754 339.141C637.604 340.12 637.528 341.061 637.528 341.965C637.528 343.282 637.735 344.205 638.15 344.732C638.564 345.221 639.034 345.466 639.561 345.466Z" fill="#0291EB"/>
<path d="M298.812 492.875C251.952 492.875 207.011 474.26 173.876 441.124C140.74 407.989 122.125 363.048 122.125 316.188C122.125 269.327 140.74 224.386 173.876 191.251C207.011 158.115 251.952 139.5 298.812 139.5C303.073 139.5 307.158 141.192 310.17 144.205C313.183 147.217 314.875 151.302 314.875 155.562V300.125H459.438C463.698 300.125 467.783 301.817 470.795 304.83C473.808 307.842 475.5 311.927 475.5 316.188C475.5 363.048 456.885 407.989 423.749 441.124C390.614 474.26 345.673 492.875 298.812 492.875ZM282.75 172.589C255.688 175.6 230.027 186.192 208.72 203.147C187.414 220.102 171.33 242.729 162.319 268.424C153.307 294.118 151.736 321.835 157.786 348.384C163.836 374.932 177.26 399.232 196.514 418.486C215.768 437.74 240.068 451.164 266.616 457.214C293.165 463.264 320.882 461.693 346.576 452.681C372.271 443.67 394.898 427.586 411.853 406.28C428.808 384.973 439.4 359.312 442.411 332.25H314.875C306.355 332.25 298.184 328.865 292.159 322.841C286.135 316.816 282.75 308.645 282.75 300.125V172.589Z" fill="#0291EB" fill-opacity="0.09"/>
<path d="M539.75 235.875H395.188C386.667 235.875 378.496 232.49 372.472 226.466C366.447 220.441 363.062 212.27 363.062 203.75V59.1875C363.062 54.9275 364.755 50.8419 367.767 47.8296C370.779 44.8173 374.865 43.125 379.125 43.125C425.985 43.125 470.927 61.7402 504.062 94.8756C537.197 128.011 555.812 172.952 555.812 219.812C555.812 224.073 554.12 228.158 551.108 231.17C548.096 234.183 544.01 235.875 539.75 235.875ZM395.188 203.75H522.724C519.069 171.184 504.457 140.826 481.284 117.653C458.112 94.4806 427.754 79.8689 395.188 76.2137V203.75Z" fill="#0291EB" fill-opacity="0.09"/>
</svg>
