<svg width="149" height="109" viewBox="0 0 149 109" fill="none" xmlns="http://www.w3.org/2000/svg">
<path d="M0 17.2499V33.8054H149V17.2499C149 12.8591 147.256 8.64811 144.151 5.54334C141.046 2.43858 136.835 0.694336 132.444 0.694336H16.5556C12.1647 0.694336 7.95378 2.43858 4.84901 5.54334C1.74424 8.64811 0 12.8591 0 17.2499Z" fill="#0099B5"/>
<path d="M149 91.7499V75.1943H0V91.7499C0 96.1407 1.74424 100.352 4.84901 103.456C7.95378 106.561 12.1647 108.305 16.5556 108.305H132.444C136.835 108.305 141.046 106.561 144.151 103.456C147.256 100.352 149 96.1407 149 91.7499Z" fill="#1EB53A"/>
<path d="M0 33.8057H149V40.014H0V33.8057ZM0 68.9862H149V75.1946H0V68.9862Z" fill="#CE1126"/>
<path d="M0 54.5V68.9861H149V40.0139H0V54.5Z" fill="#EEEEEE"/>
<path d="M17.3846 17.9124C17.3849 14.8609 18.4658 11.9082 20.4357 9.57776C22.4055 7.24731 25.1369 5.68971 28.1457 5.18114C26.2935 4.86673 24.395 4.96026 22.5827 5.4552C20.7703 5.95013 19.0878 6.83455 17.6525 8.04675C16.2172 9.25894 15.0637 10.7697 14.2725 12.4737C13.4812 14.1776 13.0713 16.0337 13.0713 17.9124C13.0713 19.791 13.4812 21.6471 14.2725 23.3511C15.0637 25.055 16.2172 26.5658 17.6525 27.778C19.0878 28.9902 20.7703 29.8746 22.5827 30.3695C24.395 30.8644 26.2935 30.958 28.1457 30.6436C25.1369 30.135 22.4055 28.5774 20.4357 26.247C18.4658 23.9165 17.3849 20.9638 17.3846 17.9124ZM36.767 27.4442L36.1875 25.6604L35.6081 27.4442H33.729L35.248 28.5493L34.6686 30.3332L36.1875 29.2281L37.7024 30.3332L37.1229 28.5493L38.6419 27.4442H36.767ZM47.9503 27.4442L47.3708 25.6604L46.7914 27.4442H44.9165L46.4354 28.5493L45.856 30.3332L47.3708 29.2281L48.8898 30.3332L48.3103 28.5493L49.8293 27.4442H47.9503ZM47.3708 15.3297L46.7914 17.1136H44.9165L46.4354 18.2186L45.856 20.0025L47.3708 18.8974L48.8898 20.0025L48.3103 18.2186L49.8293 17.1136H47.9503L47.3708 15.3297ZM59.1377 27.4442L58.5582 25.6604L57.9788 27.4442H56.1039L57.6187 28.5493L57.0393 30.3332L58.5582 29.2281L60.0772 30.3332L59.4978 28.5493L61.0126 27.4442H59.1377ZM58.5582 15.3297L57.9788 17.1136H56.1039L57.6187 18.2186L57.0393 20.0025L58.5582 18.8974L60.0772 20.0025L59.4978 18.2186L61.0126 17.1136H59.1377L58.5582 15.3297ZM58.5582 4.99902L57.9788 6.78289H56.1039L57.6187 7.88797L57.0393 9.67183L58.5582 8.56675L60.0772 9.67183L59.4978 7.88797L61.0126 6.78289H59.1377L58.5582 4.99902ZM70.3251 27.4442L69.7457 25.6604L69.1662 27.4442H67.2872L68.8061 28.5493L68.2267 30.3332L69.7457 29.2281L71.2605 30.3332L70.681 28.5493L72.2 27.4442H70.3251ZM69.7457 15.3297L69.1662 17.1136H67.2872L68.8061 18.2186L68.2267 20.0025L69.7457 18.8974L71.2605 20.0025L70.681 18.2186L72.2 17.1136H70.3251L69.7457 15.3297ZM69.7457 4.99902L69.1662 6.78289H67.2872L68.8061 7.88797L68.2267 9.67183L69.7457 8.56675L71.2605 9.67183L70.681 7.88797L72.2 6.78289H70.3251L69.7457 4.99902ZM81.5084 27.4442L80.9289 25.6604L80.3495 27.4442H78.4746L79.9935 28.5493L79.4141 30.3332L80.9289 29.2281L82.4479 30.3332L81.8685 28.5493L83.3874 27.4442H81.5084ZM80.9289 15.3297L80.3495 17.1136H78.4746L79.9935 18.2186L79.4141 20.0025L80.9289 18.8974L82.4479 20.0025L81.8685 18.2186L83.3874 17.1136H81.5084L80.9289 15.3297ZM80.9289 4.99902L80.3495 6.78289H78.4746L79.9935 7.88797L79.4141 9.67183L80.9289 8.56675L82.4479 9.67183L81.8685 7.88797L83.3874 6.78289H81.5084L80.9289 4.99902Z" fill="white"/>
</svg>
