<svg width="695" height="279" viewBox="0 0 695 279" fill="none" xmlns="http://www.w3.org/2000/svg">
<rect width="695" height="279" rx="30" fill="#0065A4"/>
<g opacity="0.25">
<g filter="url(#filter0_f_2008_91)">
<path d="M268.287 77.3103C183.783 82.4355 79.345 163.989 37.6891 204.126C17.1607 221.013 -22.4266 263.584 -16.5492 298.77C-9.20244 342.752 105.694 386.854 190.52 403.989C275.346 421.125 366.362 324.453 421.107 281.654C475.852 238.855 574.346 188.077 676.865 205.75C779.385 223.422 752.863 49.8245 693.593 -33.6091C634.323 -117.043 522.959 -101.728 481.229 -80.2554C439.5 -58.783 373.918 70.9037 268.287 77.3103Z" fill="url(#paint0_linear_2008_91)"/>
<path d="M268.287 77.3103C183.783 82.4355 79.345 163.989 37.6891 204.126C17.1607 221.013 -22.4266 263.584 -16.5492 298.77C-9.20244 342.752 105.694 386.854 190.52 403.989C275.346 421.125 366.362 324.453 421.107 281.654C475.852 238.855 574.346 188.077 676.865 205.75C779.385 223.422 752.863 49.8245 693.593 -33.6091C634.323 -117.043 522.959 -101.728 481.229 -80.2554C439.5 -58.783 373.918 70.9037 268.287 77.3103Z" fill="url(#paint1_linear_2008_91)"/>
</g>
<g opacity="0.5" filter="url(#filter1_f_2008_91)">
<path d="M295.948 105.7C227.137 109.857 142.11 176.252 108.198 208.929C91.4854 222.678 59.2581 257.339 64.0511 285.994C70.0424 321.814 163.611 357.752 232.688 371.724C301.765 385.696 375.86 306.987 420.43 272.144C465 237.3 608.02 252.135 691.505 266.547C774.989 280.96 690.531 83.4138 642.251 15.4556C593.97 -52.5025 503.29 -40.0527 469.314 -22.5746C435.338 -5.09635 381.961 100.504 295.948 105.7Z" fill="url(#paint2_linear_2008_91)"/>
<path d="M295.948 105.7C227.137 109.857 142.11 176.252 108.198 208.929C91.4854 222.678 59.2581 257.339 64.0511 285.994C70.0424 321.814 163.611 357.752 232.688 371.724C301.765 385.696 375.86 306.987 420.43 272.144C465 237.3 608.02 252.135 691.505 266.547C774.989 280.96 690.531 83.4138 642.251 15.4556C593.97 -52.5025 503.29 -40.0527 469.314 -22.5746C435.338 -5.09635 381.961 100.504 295.948 105.7Z" fill="url(#paint3_linear_2008_91)"/>
</g>
<g filter="url(#filter2_f_2008_91)">
<path d="M133.642 195.301C49.8282 198.642 31.1831 269.043 32.3372 303.825C22.8986 307.001 13.4925 328.759 51.3763 390.381C98.731 467.409 217.25 367.568 237.735 346.324C258.219 325.079 229.049 228.406 267.032 238.164C305.015 247.922 368.515 224.974 392.388 205.336C416.26 185.698 432.799 183.515 546.64 185.347C660.481 187.18 709.221 88.2142 730.876 63.3704C752.532 38.5266 652.505 -56.3848 569.325 -35.6992C486.145 -15.0136 457.926 92.2593 427.644 128.592C397.363 164.925 301.779 141.337 265.988 163.751C230.196 186.165 238.408 191.125 133.642 195.301Z" fill="url(#paint4_linear_2008_91)"/>
</g>
<g filter="url(#filter3_f_2008_91)">
<path d="M133.642 195.301C49.8282 198.642 31.1831 269.043 32.3372 303.825C22.8986 307.001 13.4925 328.759 51.3763 390.381C98.731 467.409 217.25 367.568 237.735 346.324C258.219 325.079 229.049 228.406 267.032 238.164C305.015 247.922 368.515 224.974 392.388 205.336C416.26 185.698 432.799 183.515 546.64 185.347C660.481 187.18 709.221 88.2142 730.876 63.3704C752.532 38.5266 652.505 -56.3848 569.325 -35.6992C486.145 -15.0136 457.926 92.2593 427.644 128.592C397.363 164.925 301.779 141.337 265.988 163.751C230.196 186.165 238.408 191.125 133.642 195.301Z" fill="url(#paint5_linear_2008_91)"/>
</g>
<g filter="url(#filter4_f_2008_91)">
<path d="M133.642 195.301C49.8282 198.642 31.1831 269.043 32.3372 303.825C22.8986 307.001 13.4925 328.759 51.3763 390.381C98.731 467.409 217.25 367.568 237.735 346.324C258.219 325.079 229.049 228.406 267.032 238.164C305.015 247.922 368.515 224.974 392.388 205.336C416.26 185.698 432.799 183.515 546.64 185.347C660.481 187.18 709.221 88.2142 730.876 63.3704C752.532 38.5266 652.505 -56.3848 569.325 -35.6992C486.145 -15.0136 457.926 92.2593 427.644 128.592C397.363 164.925 301.779 141.337 265.988 163.751C230.196 186.165 238.408 191.125 133.642 195.301Z" fill="url(#paint6_linear_2008_91)"/>
</g>
</g>
<defs>
<filter id="filter0_f_2008_91" x="-170.956" y="-251.01" width="1070.73" height="810.831" filterUnits="userSpaceOnUse" color-interpolation-filters="sRGB">
<feFlood flood-opacity="0" result="BackgroundImageFix"/>
<feBlend mode="normal" in="SourceGraphic" in2="BackgroundImageFix" result="shape"/>
<feGaussianBlur stdDeviation="76.909" result="effect1_foregroundBlur_2008_91"/>
</filter>
<filter id="filter1_f_2008_91" x="-90.2477" y="-190.169" width="970.882" height="717.355" filterUnits="userSpaceOnUse" color-interpolation-filters="sRGB">
<feFlood flood-opacity="0" result="BackgroundImageFix"/>
<feBlend mode="normal" in="SourceGraphic" in2="BackgroundImageFix" result="shape"/>
<feGaussianBlur stdDeviation="76.909" result="effect1_foregroundBlur_2008_91"/>
</filter>
<filter id="filter2_f_2008_91" x="-129.898" y="-192.443" width="1017.59" height="765.382" filterUnits="userSpaceOnUse" color-interpolation-filters="sRGB">
<feFlood flood-opacity="0" result="BackgroundImageFix"/>
<feBlend mode="normal" in="SourceGraphic" in2="BackgroundImageFix" result="shape"/>
<feGaussianBlur stdDeviation="76.909" result="effect1_foregroundBlur_2008_91"/>
</filter>
<filter id="filter3_f_2008_91" x="-129.898" y="-192.443" width="1017.59" height="765.382" filterUnits="userSpaceOnUse" color-interpolation-filters="sRGB">
<feFlood flood-opacity="0" result="BackgroundImageFix"/>
<feBlend mode="normal" in="SourceGraphic" in2="BackgroundImageFix" result="shape"/>
<feGaussianBlur stdDeviation="76.909" result="effect1_foregroundBlur_2008_91"/>
</filter>
<filter id="filter4_f_2008_91" x="-129.898" y="-192.443" width="1017.59" height="765.382" filterUnits="userSpaceOnUse" color-interpolation-filters="sRGB">
<feFlood flood-opacity="0" result="BackgroundImageFix"/>
<feBlend mode="normal" in="SourceGraphic" in2="BackgroundImageFix" result="shape"/>
<feGaussianBlur stdDeviation="76.909" result="effect1_foregroundBlur_2008_91"/>
</filter>
<linearGradient id="paint0_linear_2008_91" x1="167.475" y1="120.124" x2="600.487" y2="341.922" gradientUnits="userSpaceOnUse">
<stop stop-color="#5B69FD"/>
<stop offset="0.244264" stop-color="#5282FF" stop-opacity="0.88"/>
<stop offset="1" stop-color="#33D8FC" stop-opacity="0.22"/>
</linearGradient>
<linearGradient id="paint1_linear_2008_91" x1="33.1838" y1="132.351" x2="247.533" y2="304.141" gradientUnits="userSpaceOnUse">
<stop stop-color="#8EF8FF"/>
<stop offset="1" stop-color="#8EF8FF" stop-opacity="0"/>
</linearGradient>
<linearGradient id="paint2_linear_2008_91" x1="406.483" y1="89.3407" x2="556.395" y2="394.623" gradientUnits="userSpaceOnUse">
<stop stop-color="#2356F5" stop-opacity="0.51"/>
<stop offset="1" stop-color="white" stop-opacity="0.14"/>
</linearGradient>
<linearGradient id="paint3_linear_2008_91" x1="140.913" y1="218.758" x2="484.246" y2="214.316" gradientUnits="userSpaceOnUse">
<stop stop-color="#4BF4FF"/>
<stop offset="1" stop-color="#4BF4FF" stop-opacity="0"/>
</linearGradient>
<linearGradient id="paint4_linear_2008_91" x1="607.988" y1="60.8421" x2="448.325" y2="293.888" gradientUnits="userSpaceOnUse">
<stop stop-color="white"/>
<stop offset="1" stop-color="white" stop-opacity="0"/>
</linearGradient>
<linearGradient id="paint5_linear_2008_91" x1="100.986" y1="232.771" x2="664.848" y2="72.2576" gradientUnits="userSpaceOnUse">
<stop offset="0.27244" stop-color="#C0F0FF"/>
<stop offset="1" stop-color="white" stop-opacity="0"/>
</linearGradient>
<linearGradient id="paint6_linear_2008_91" x1="225.799" y1="190.999" x2="367.719" y2="312.167" gradientUnits="userSpaceOnUse">
<stop stop-color="#C8E2FF"/>
<stop offset="0.954181" stop-color="white" stop-opacity="0"/>
</linearGradient>
</defs>
</svg>
