<svg width="695" height="279" viewBox="0 0 695 279" fill="none" xmlns="http://www.w3.org/2000/svg">
<rect width="695" height="279" rx="30" fill="#0291EB"/>
<g opacity="0.25">
<g filter="url(#filter0_f_2008_92)">
<path d="M466.411 41.3547C435.511 -27.9514 334.197 -89.9302 287.402 -112.256C266.768 -124.169 218.581 -143.993 190.902 -127.986C156.303 -107.977 155.454 2.32904 167.772 78.9118C180.091 155.494 289.868 201.451 343.018 233.924C396.167 266.397 469.783 333.074 487.22 424.674C504.656 516.274 641.998 439.377 693.363 363.375C744.729 287.372 696.824 198.732 665.669 170.469C634.514 142.207 505.034 127.987 466.411 41.3547Z" fill="url(#paint0_linear_2008_92)"/>
<path d="M466.411 41.3547C435.511 -27.9514 334.197 -89.9302 287.402 -112.256C266.768 -124.169 218.581 -143.993 190.902 -127.986C156.303 -107.977 155.454 2.32904 167.772 78.9118C180.091 155.494 289.868 201.451 343.018 233.924C396.167 266.397 469.783 333.074 487.22 424.674C504.656 516.274 641.998 439.377 693.363 363.375C744.729 287.372 696.824 198.732 665.669 170.469C634.514 142.207 505.034 127.987 466.411 41.3547Z" fill="url(#paint1_linear_2008_92)"/>
</g>
<g opacity="0.5" filter="url(#filter1_f_2008_92)">
<path d="M451.291 73.5042C426.144 17.0642 343.661 -33.3958 305.563 -51.5708C288.764 -61.2694 249.532 -77.4062 226.992 -64.3644C198.817 -48.0622 198.107 41.7753 208.123 104.145C218.14 166.515 307.516 203.924 350.786 230.362C394.057 256.8 426.623 381.497 440.804 456.096C454.985 530.696 594.19 397.637 636.026 335.729C677.863 273.821 638.873 201.637 613.511 178.625C588.149 155.612 482.724 144.054 451.291 73.5042Z" fill="url(#paint2_linear_2008_92)"/>
<path d="M451.291 73.5042C426.144 17.0642 343.661 -33.3958 305.563 -51.5708C288.764 -61.2694 249.532 -77.4062 226.992 -64.3644C198.817 -48.0622 198.107 41.7753 208.123 104.145C218.14 166.515 307.516 203.924 350.786 230.362C394.057 256.8 426.623 381.497 440.804 456.096C454.985 530.696 594.19 397.637 636.026 335.729C677.863 273.821 638.873 201.637 613.511 178.625C588.149 155.612 482.724 144.054 451.291 73.5042Z" fill="url(#paint3_linear_2008_92)"/>
</g>
<g filter="url(#filter2_f_2008_92)">
<path d="M325.008 -34.5073C295.825 -103.795 230.873 -97.2839 202.045 -85.3674C196.409 -92.289 175.189 -93.3349 135.397 -42.1458C85.6578 21.8406 206.752 89.8813 231.028 100.386C255.305 110.891 327.255 55.9821 331.021 90.9302C334.787 125.878 374.033 171.947 398.027 185.8C422.022 199.653 429.06 212.847 463.353 308.963C497.647 405.079 596.043 414.834 623.709 425.188C651.375 435.543 699.545 321.723 656.004 258.426C612.463 195.13 513.553 205.211 473.531 191.234C433.508 177.257 423.218 89.6149 393.142 66.6321C363.066 43.6493 361.488 52.1024 325.008 -34.5073Z" fill="url(#paint4_linear_2008_92)"/>
</g>
<g filter="url(#filter3_f_2008_92)">
<path d="M325.008 -34.5073C295.825 -103.795 230.873 -97.2839 202.045 -85.3674C196.409 -92.289 175.189 -93.3349 135.397 -42.1458C85.6578 21.8406 206.752 89.8813 231.028 100.386C255.305 110.891 327.255 55.9821 331.021 90.9302C334.787 125.878 374.033 171.947 398.027 185.8C422.022 199.653 429.06 212.847 463.353 308.963C497.647 405.079 596.043 414.834 623.709 425.188C651.375 435.543 699.545 321.723 656.004 258.426C612.463 195.13 513.553 205.211 473.531 191.234C433.508 177.257 423.218 89.6149 393.142 66.6321C363.066 43.6493 361.488 52.1024 325.008 -34.5073Z" fill="url(#paint5_linear_2008_92)"/>
</g>
<g filter="url(#filter4_f_2008_92)">
<path d="M325.008 -34.5073C295.825 -103.795 230.873 -97.2839 202.045 -85.3674C196.409 -92.289 175.189 -93.3349 135.397 -42.1458C85.6578 21.8406 206.752 89.8813 231.028 100.386C255.305 110.891 327.255 55.9821 331.021 90.9302C334.787 125.878 374.033 171.947 398.027 185.8C422.022 199.653 429.06 212.847 463.353 308.963C497.647 405.079 596.043 414.834 623.709 425.188C651.375 435.543 699.545 321.723 656.004 258.426C612.463 195.13 513.553 205.211 473.531 191.234C433.508 177.257 423.218 89.6149 393.142 66.6321C363.066 43.6493 361.488 52.1024 325.008 -34.5073Z" fill="url(#paint6_linear_2008_92)"/>
</g>
</g>
<defs>
<filter id="filter0_f_2008_92" x="6.72887" y="-287.795" width="863.07" height="908.02" filterUnits="userSpaceOnUse" color-interpolation-filters="sRGB">
<feFlood flood-opacity="0" result="BackgroundImageFix"/>
<feBlend mode="normal" in="SourceGraphic" in2="BackgroundImageFix" result="shape"/>
<feGaussianBlur stdDeviation="76.909" result="effect1_foregroundBlur_2008_92"/>
</filter>
<filter id="filter1_f_2008_92" x="48.4379" y="-223.067" width="759.835" height="855.088" filterUnits="userSpaceOnUse" color-interpolation-filters="sRGB">
<feFlood flood-opacity="0" result="BackgroundImageFix"/>
<feBlend mode="normal" in="SourceGraphic" in2="BackgroundImageFix" result="shape"/>
<feGaussianBlur stdDeviation="76.909" result="effect1_foregroundBlur_2008_92"/>
</filter>
<filter id="filter2_f_2008_92" x="-30.2936" y="-246.699" width="857.595" height="826.366" filterUnits="userSpaceOnUse" color-interpolation-filters="sRGB">
<feFlood flood-opacity="0" result="BackgroundImageFix"/>
<feBlend mode="normal" in="SourceGraphic" in2="BackgroundImageFix" result="shape"/>
<feGaussianBlur stdDeviation="76.909" result="effect1_foregroundBlur_2008_92"/>
</filter>
<filter id="filter3_f_2008_92" x="-30.2936" y="-246.699" width="857.595" height="826.366" filterUnits="userSpaceOnUse" color-interpolation-filters="sRGB">
<feFlood flood-opacity="0" result="BackgroundImageFix"/>
<feBlend mode="normal" in="SourceGraphic" in2="BackgroundImageFix" result="shape"/>
<feGaussianBlur stdDeviation="76.909" result="effect1_foregroundBlur_2008_92"/>
</filter>
<filter id="filter4_f_2008_92" x="-30.2936" y="-246.699" width="857.595" height="826.366" filterUnits="userSpaceOnUse" color-interpolation-filters="sRGB">
<feFlood flood-opacity="0" result="BackgroundImageFix"/>
<feBlend mode="normal" in="SourceGraphic" in2="BackgroundImageFix" result="shape"/>
<feGaussianBlur stdDeviation="76.909" result="effect1_foregroundBlur_2008_92"/>
</filter>
<linearGradient id="paint0_linear_2008_92" x1="398.749" y1="-29.7753" x2="348.899" y2="403.435" gradientUnits="userSpaceOnUse">
<stop stop-color="#5B69FD"/>
<stop offset="0.244264" stop-color="#5282FF" stop-opacity="0.88"/>
<stop offset="1" stop-color="#33D8FC" stop-opacity="0.22"/>
</linearGradient>
<linearGradient id="paint1_linear_2008_92" x1="346.22" y1="-138.629" x2="269.514" y2="95.332" gradientUnits="userSpaceOnUse">
<stop stop-color="#8EF8FF"/>
<stop offset="1" stop-color="#8EF8FF" stop-opacity="0"/>
</linearGradient>
<linearGradient id="paint2_linear_2008_92" x1="499.811" y1="161.12" x2="290.792" y2="383.019" gradientUnits="userSpaceOnUse">
<stop stop-color="#2356F5" stop-opacity="0.51"/>
<stop offset="1" stop-color="white" stop-opacity="0.14"/>
</linearGradient>
<linearGradient id="paint3_linear_2008_92" x1="307.611" y1="-21.0217" x2="419.404" y2="265.717" gradientUnits="userSpaceOnUse">
<stop stop-color="#4BF4FF"/>
<stop offset="1" stop-color="#4BF4FF" stop-opacity="0"/>
</linearGradient>
<linearGradient id="paint4_linear_2008_92" x1="587.152" y1="321.26" x2="341.317" y2="260.617" gradientUnits="userSpaceOnUse">
<stop stop-color="white"/>
<stop offset="1" stop-color="white" stop-opacity="0"/>
</linearGradient>
<linearGradient id="paint5_linear_2008_92" x1="283.284" y1="-50.1198" x2="595.468" y2="372.572" gradientUnits="userSpaceOnUse">
<stop offset="0.27244" stop-color="#C0F0FF"/>
<stop offset="1" stop-color="white" stop-opacity="0"/>
</linearGradient>
<linearGradient id="paint6_linear_2008_92" x1="357.626" y1="41.4801" x2="300.606" y2="198.723" gradientUnits="userSpaceOnUse">
<stop stop-color="#C8E2FF"/>
<stop offset="0.954181" stop-color="white" stop-opacity="0"/>
</linearGradient>
</defs>
</svg>
