<svg width="1401" height="581" viewBox="0 0 1401 581" fill="none" xmlns="http://www.w3.org/2000/svg">
<rect y="-3" width="1401" height="584" rx="30" fill="#E6EBFF"/>
<g opacity="0.72">
<g filter="url(#filter0_f_2002_84)">
<path d="M674.927 79.0608C527.545 102.48 358.24 263.392 292.01 340.92C258.878 374.053 196.693 455.499 213.012 516.227C233.41 592.136 442.517 649.893 594.264 665.474C746.012 681.054 889.188 495.912 977.927 411.477C1066.67 327.042 1230.8 221.139 1413.68 234.641C1596.56 248.142 1520.39 -51.8941 1402.16 -188.153C1283.93 -324.412 1091.16 -278.53 1021.62 -233.733C952.071 -188.937 859.155 49.7863 674.927 79.0608Z" fill="url(#paint0_linear_2002_84)"/>
<path d="M674.927 79.0608C527.545 102.48 358.24 263.392 292.01 340.92C258.878 374.053 196.693 455.499 213.012 516.227C233.41 592.136 442.517 649.893 594.264 665.474C746.012 681.054 889.188 495.912 977.927 411.477C1066.67 327.042 1230.8 221.139 1413.68 234.641C1596.56 248.142 1520.39 -51.8941 1402.16 -188.153C1283.93 -324.412 1091.16 -278.53 1021.62 -233.733C952.071 -188.937 859.155 49.7863 674.927 79.0608Z" fill="url(#paint1_linear_2002_84)"/>
</g>
<g opacity="0.5" filter="url(#filter1_f_2002_84)">
<path d="M728.302 124.146C608.288 143.188 470.45 274.189 416.532 337.31C389.558 364.284 338.936 430.596 352.237 480.052C368.864 541.871 539.159 588.948 662.735 601.667C786.312 614.385 902.867 463.646 975.113 394.906C1047.36 326.166 1300.81 327.774 1449.74 338.807C1598.67 349.839 1416.76 17.6779 1320.46 -93.3069C1224.15 -204.292 1067.18 -166.967 1010.56 -130.502C953.935 -94.0371 878.319 100.345 728.302 124.146Z" fill="url(#paint2_linear_2002_84)"/>
<path d="M728.302 124.146C608.288 143.188 470.45 274.189 416.532 337.31C389.558 364.284 338.936 430.596 352.237 480.052C368.864 541.871 539.159 588.948 662.735 601.667C786.312 614.385 902.867 463.646 975.113 394.906C1047.36 326.166 1300.81 327.774 1449.74 338.807C1598.67 349.839 1416.76 17.6779 1320.46 -93.3069C1224.15 -204.292 1067.18 -166.967 1010.56 -130.502C953.935 -94.0371 878.319 100.345 728.302 124.146Z" fill="url(#paint3_linear_2002_84)"/>
</g>
<g filter="url(#filter2_f_2002_84)">
<path d="M458.845 309.055C312.371 329.226 291.679 455.922 299.642 516.749C283.625 523.933 270.838 563.71 347.823 665.354C444.055 792.409 634.942 597.011 667.254 556.242C699.565 515.472 631.883 350.846 700.188 361.481C768.493 372.116 875.981 321.013 914.51 282.484C953.039 243.955 981.683 237.301 1181.72 221.08C1381.76 204.858 1450.37 22.9084 1484.13 -24.3756C1517.88 -71.6596 1326.18 -221.097 1183.78 -170.604C1041.38 -120.111 1010.19 72.9096 963.263 141.823C916.34 210.736 744.618 185.673 685.651 231.107C626.683 276.542 641.938 283.842 458.845 309.055Z" fill="url(#paint4_linear_2002_84)"/>
</g>
<g filter="url(#filter3_f_2002_84)">
<path d="M458.845 309.055C312.371 329.226 291.679 455.922 299.642 516.749C283.625 523.933 270.838 563.71 347.823 665.354C444.055 792.409 634.942 597.011 667.254 556.242C699.565 515.472 631.883 350.846 700.188 361.481C768.493 372.116 875.981 321.013 914.51 282.484C953.039 243.955 981.683 237.301 1181.72 221.08C1381.76 204.858 1450.37 22.9084 1484.13 -24.3756C1517.88 -71.6596 1326.18 -221.097 1183.78 -170.604C1041.38 -120.111 1010.19 72.9096 963.263 141.823C916.34 210.736 744.618 185.673 685.651 231.107C626.683 276.542 641.938 283.842 458.845 309.055Z" fill="url(#paint5_linear_2002_84)"/>
</g>
<g filter="url(#filter4_f_2002_84)">
<path d="M458.845 309.055C312.371 329.226 291.679 455.922 299.642 516.749C283.625 523.933 270.838 563.71 347.823 665.354C444.055 792.409 634.942 597.011 667.254 556.242C699.565 515.472 631.883 350.846 700.188 361.481C768.493 372.116 875.981 321.013 914.51 282.484C953.039 243.955 981.683 237.301 1181.72 221.08C1381.76 204.858 1450.37 22.9084 1484.13 -24.3756C1517.88 -71.6596 1326.18 -221.097 1183.78 -170.604C1041.38 -120.111 1010.19 72.9096 963.263 141.823C916.34 210.736 744.618 185.673 685.651 231.107C626.683 276.542 641.938 283.842 458.845 309.055Z" fill="url(#paint6_linear_2002_84)"/>
</g>
</g>
<defs>
<filter id="filter0_f_2002_84" x="56.514" y="-432.657" width="1620.45" height="1252.87" filterUnits="userSpaceOnUse" color-interpolation-filters="sRGB">
<feFlood flood-opacity="0" result="BackgroundImageFix"/>
<feBlend mode="normal" in="SourceGraphic" in2="BackgroundImageFix" result="shape"/>
<feGaussianBlur stdDeviation="76.909" result="effect1_foregroundBlur_2002_84"/>
</filter>
<filter id="filter1_f_2002_84" x="196.232" y="-321.016" width="1463.8" height="1077.26" filterUnits="userSpaceOnUse" color-interpolation-filters="sRGB">
<feFlood flood-opacity="0" result="BackgroundImageFix"/>
<feBlend mode="normal" in="SourceGraphic" in2="BackgroundImageFix" result="shape"/>
<feGaussianBlur stdDeviation="76.909" result="effect1_foregroundBlur_2002_84"/>
</filter>
<filter id="filter2_f_2002_84" x="133.689" y="-334.703" width="1508.17" height="1196.23" filterUnits="userSpaceOnUse" color-interpolation-filters="sRGB">
<feFlood flood-opacity="0" result="BackgroundImageFix"/>
<feBlend mode="normal" in="SourceGraphic" in2="BackgroundImageFix" result="shape"/>
<feGaussianBlur stdDeviation="76.909" result="effect1_foregroundBlur_2002_84"/>
</filter>
<filter id="filter3_f_2002_84" x="133.689" y="-334.703" width="1508.17" height="1196.23" filterUnits="userSpaceOnUse" color-interpolation-filters="sRGB">
<feFlood flood-opacity="0" result="BackgroundImageFix"/>
<feBlend mode="normal" in="SourceGraphic" in2="BackgroundImageFix" result="shape"/>
<feGaussianBlur stdDeviation="76.909" result="effect1_foregroundBlur_2002_84"/>
</filter>
<filter id="filter4_f_2002_84" x="133.689" y="-334.703" width="1508.17" height="1196.23" filterUnits="userSpaceOnUse" color-interpolation-filters="sRGB">
<feFlood flood-opacity="0" result="BackgroundImageFix"/>
<feBlend mode="normal" in="SourceGraphic" in2="BackgroundImageFix" result="shape"/>
<feGaussianBlur stdDeviation="76.909" result="effect1_foregroundBlur_2002_84"/>
</filter>
<linearGradient id="paint0_linear_2002_84" x1="505.368" y1="171.387" x2="1302.93" y2="486.585" gradientUnits="userSpaceOnUse">
<stop stop-color="#5B69FD"/>
<stop offset="0.244264" stop-color="#5282FF" stop-opacity="0.88"/>
<stop offset="1" stop-color="#33D8FC" stop-opacity="0.22"/>
</linearGradient>
<linearGradient id="paint1_linear_2002_84" x1="271.852" y1="215.765" x2="677.243" y2="480.563" gradientUnits="userSpaceOnUse">
<stop stop-color="#8EF8FF"/>
<stop offset="1" stop-color="#8EF8FF" stop-opacity="0"/>
</linearGradient>
<linearGradient id="paint2_linear_2002_84" x1="919.434" y1="76.5726" x2="1234.57" y2="586.574" gradientUnits="userSpaceOnUse">
<stop stop-color="#2356F5" stop-opacity="0.51"/>
<stop offset="1" stop-color="white" stop-opacity="0.14"/>
</linearGradient>
<linearGradient id="paint3_linear_2002_84" x1="475.606" y1="348.968" x2="1077.2" y2="282.556" gradientUnits="userSpaceOnUse">
<stop stop-color="#4BF4FF"/>
<stop offset="1" stop-color="#4BF4FF" stop-opacity="0"/>
</linearGradient>
<linearGradient id="paint4_linear_2002_84" x1="1268.1" y1="-7.83026" x2="1027.77" y2="428.293" gradientUnits="userSpaceOnUse">
<stop stop-color="white"/>
<stop offset="1" stop-color="white" stop-opacity="0"/>
</linearGradient>
<linearGradient id="paint5_linear_2002_84" x1="407.95" y1="380.369" x2="1369.8" y2="2.48959" gradientUnits="userSpaceOnUse">
<stop offset="0.27244" stop-color="#C0F0FF"/>
<stop offset="1" stop-color="white" stop-opacity="0"/>
</linearGradient>
<linearGradient id="paint6_linear_2002_84" x1="619.794" y1="285.772" x2="889.47" y2="474.123" gradientUnits="userSpaceOnUse">
<stop stop-color="#C8E2FF"/>
<stop offset="0.954181" stop-color="white" stop-opacity="0"/>
</linearGradient>
</defs>
</svg>
