<svg width="178" height="61" viewBox="0 0 178 61" fill="none" xmlns="http://www.w3.org/2000/svg">
<path d="M11.8419 8.81165V38H5.82778V8.81165H11.8419ZM23.4691 21.2808V25.9718H10.198V21.2808H23.4691ZM24.8724 8.81165V13.5227H10.198V8.81165H24.8724ZM34.094 16.3092V38H28.3004V16.3092H34.094ZM27.9396 10.656C27.9396 9.814 28.2336 9.11904 28.8216 8.57109C29.4097 8.02314 30.1982 7.74916 31.1872 7.74916C32.1628 7.74916 32.9446 8.02314 33.5327 8.57109C34.1341 9.11904 34.4348 9.814 34.4348 10.656C34.4348 11.4979 34.1341 12.1929 33.5327 12.7409C32.9446 13.2888 32.1628 13.5628 31.1872 13.5628C30.1982 13.5628 29.4097 13.2888 28.8216 12.7409C28.2336 12.1929 27.9396 11.4979 27.9396 10.656ZM44.5184 20.9401V38H38.7449V16.3092H44.1575L44.5184 20.9401ZM43.6764 26.3928H42.1128C42.1128 24.7891 42.3199 23.3457 42.7342 22.0627C43.1485 20.7663 43.7299 19.6637 44.4783 18.7549C45.2267 17.8328 46.1155 17.1311 47.1445 16.65C48.187 16.1555 49.3497 15.9083 50.6327 15.9083C51.6484 15.9083 52.5773 16.0553 53.4192 16.3493C54.2612 16.6433 54.9829 17.1111 55.5843 17.7526C56.1991 18.3941 56.6668 19.2427 56.9876 20.2985C57.3217 21.3544 57.4888 22.644 57.4888 24.1676V38H51.6751V24.1476C51.6751 23.1853 51.5415 22.4369 51.2742 21.9023C51.0069 21.3677 50.6127 20.9935 50.0914 20.7797C49.5836 20.5525 48.9554 20.4389 48.207 20.4389C47.4319 20.4389 46.757 20.5926 46.1823 20.9C45.621 21.2073 45.1532 21.635 44.779 22.183C44.4181 22.7175 44.1442 23.3457 43.9571 24.0674C43.77 24.7891 43.6764 25.5642 43.6764 26.3928ZM73.5865 33.1085V23.4459C73.5865 22.751 73.4729 22.1562 73.2457 21.6617C73.0185 21.1539 72.6643 20.7596 72.1832 20.479C71.7154 20.1983 71.1073 20.058 70.3589 20.058C69.7174 20.058 69.1628 20.1716 68.695 20.3988C68.2272 20.6126 67.8664 20.9267 67.6125 21.341C67.3585 21.7419 67.2316 22.2164 67.2316 22.7643H61.458C61.458 21.8422 61.6719 20.9668 62.0996 20.1382C62.5272 19.3096 63.1487 18.5812 63.9639 17.9531C64.7792 17.3116 65.7481 16.8104 66.8707 16.4495C68.0067 16.0887 69.2764 15.9083 70.6796 15.9083C72.3636 15.9083 73.8604 16.1889 75.1702 16.7502C76.4799 17.3116 77.509 18.1535 78.2574 19.2762C79.0192 20.3988 79.4001 21.8021 79.4001 23.486V32.7677C79.4001 33.9572 79.4736 34.9328 79.6206 35.6946C79.7676 36.443 79.9814 37.0979 80.2621 37.6592V38H74.4284C74.1478 37.412 73.9339 36.6769 73.7869 35.7948C73.6533 34.8994 73.5865 34.004 73.5865 33.1085ZM74.3482 24.7891L74.3883 28.0567H71.1608C70.399 28.0567 69.7374 28.1436 69.1761 28.3173C68.6148 28.4911 68.1537 28.7383 67.7929 29.0591C67.432 29.3664 67.1647 29.7273 66.991 30.1416C66.8306 30.5559 66.7504 31.0103 66.7504 31.5048C66.7504 31.9993 66.864 32.447 67.0912 32.8479C67.3184 33.2355 67.6459 33.5429 68.0735 33.7701C68.5012 33.9839 69.0024 34.0908 69.5771 34.0908C70.4458 34.0908 71.2009 33.9171 71.8424 33.5696C72.4839 33.2221 72.9784 32.7945 73.3258 32.2866C73.6867 31.7788 73.8738 31.2976 73.8872 30.8432L75.4107 33.289C75.1969 33.8369 74.9029 34.4049 74.5287 34.993C74.1678 35.581 73.7067 36.1356 73.1454 36.6569C72.5841 37.1647 71.9092 37.5857 71.1207 37.9198C70.3322 38.2406 69.3966 38.4009 68.3141 38.4009C66.9375 38.4009 65.688 38.127 64.5653 37.579C63.4561 37.0177 62.574 36.2492 61.9191 35.2736C61.2776 34.2846 60.9569 33.162 60.9569 31.9057C60.9569 30.7697 61.1707 29.7607 61.5984 28.8786C62.026 27.9966 62.6542 27.2548 63.4828 26.6534C64.3248 26.0387 65.3739 25.5776 66.6302 25.2702C67.8864 24.9494 69.3432 24.7891 71.0004 24.7891H74.3482ZM89.5037 20.9401V38H83.7302V16.3092H89.1429L89.5037 20.9401ZM88.6618 26.3928H87.0981C87.0981 24.7891 87.3052 23.3457 87.7196 22.0627C88.1339 20.7663 88.7152 19.6637 89.4636 18.7549C90.2121 17.8328 91.1008 17.1311 92.1299 16.65C93.1723 16.1555 94.335 15.9083 95.618 15.9083C96.6338 15.9083 97.5626 16.0553 98.4046 16.3493C99.2465 16.6433 99.9682 17.1111 100.57 17.7526C101.184 18.3941 101.652 19.2427 101.973 20.2985C102.307 21.3544 102.474 22.644 102.474 24.1676V38H96.6605V24.1476C96.6605 23.1853 96.5268 22.4369 96.2595 21.9023C95.9923 21.3677 95.598 20.9935 95.0768 20.7797C94.5689 20.5525 93.9408 20.4389 93.1924 20.4389C92.4172 20.4389 91.7423 20.5926 91.1676 20.9C90.6063 21.2073 90.1385 21.635 89.7643 22.183C89.4035 22.7175 89.1295 23.3457 88.9424 24.0674C88.7553 24.7891 88.6618 25.5642 88.6618 26.3928ZM115.825 33.8904C116.534 33.8904 117.162 33.7567 117.71 33.4894C118.258 33.2088 118.685 32.8212 118.993 32.3267C119.314 31.8189 119.481 31.2241 119.494 30.5425H124.927C124.913 32.0661 124.506 33.4226 123.704 34.6121C122.902 35.7882 121.826 36.717 120.476 37.3986C119.126 38.0668 117.616 38.4009 115.946 38.4009C114.262 38.4009 112.792 38.1203 111.535 37.559C110.292 36.9977 109.257 36.2225 108.428 35.2335C107.599 34.2312 106.978 33.0685 106.564 31.7454C106.149 30.4089 105.942 28.9789 105.942 27.4553V26.8739C105.942 25.337 106.149 23.907 106.564 22.5839C106.978 21.2474 107.599 20.0847 108.428 19.0957C109.257 18.0934 110.292 17.3116 111.535 16.7502C112.778 16.1889 114.235 15.9083 115.906 15.9083C117.683 15.9083 119.24 16.2491 120.576 16.9307C121.926 17.6123 122.982 18.5879 123.744 19.8575C124.519 21.1138 124.913 22.6039 124.927 24.328H119.494C119.481 23.6063 119.327 22.9514 119.033 22.3634C118.752 21.7753 118.338 21.3076 117.79 20.9601C117.255 20.5993 116.594 20.4188 115.805 20.4188C114.963 20.4188 114.275 20.5993 113.74 20.9601C113.206 21.3076 112.792 21.7887 112.498 22.4035C112.204 23.0049 111.996 23.6932 111.876 24.4683C111.769 25.2301 111.716 26.032 111.716 26.8739V27.4553C111.716 28.2973 111.769 29.1058 111.876 29.881C111.983 30.6561 112.183 31.3444 112.478 31.9458C112.785 32.5472 113.206 33.0217 113.74 33.3692C114.275 33.7166 114.97 33.8904 115.825 33.8904ZM134.369 16.3092V38H128.575V16.3092H134.369ZM128.214 10.656C128.214 9.814 128.508 9.11904 129.096 8.57109C129.684 8.02314 130.473 7.74916 131.462 7.74916C132.438 7.74916 133.219 8.02314 133.807 8.57109C134.409 9.11904 134.71 9.814 134.71 10.656C134.71 11.4979 134.409 12.1929 133.807 12.7409C133.219 13.2888 132.438 13.5628 131.462 13.5628C130.473 13.5628 129.684 13.2888 129.096 12.7409C128.508 12.1929 128.214 11.4979 128.214 10.656ZM149.123 38.4009C147.439 38.4009 145.929 38.1336 144.593 37.5991C143.256 37.0511 142.12 36.296 141.185 35.3338C140.263 34.3715 139.554 33.2556 139.06 31.9859C138.565 30.7029 138.318 29.3397 138.318 27.8963V27.0945C138.318 25.4506 138.552 23.9471 139.02 22.5839C139.487 21.2207 140.156 20.0379 141.024 19.0356C141.906 18.0332 142.976 17.2648 144.232 16.7302C145.488 16.1822 146.905 15.9083 148.482 15.9083C150.019 15.9083 151.382 16.1622 152.571 16.6701C153.761 17.1779 154.757 17.8996 155.558 18.8351C156.374 19.7706 156.988 20.8933 157.403 22.203C157.817 23.4994 158.024 24.9428 158.024 26.5331V28.9388H140.784V25.0898H152.351V24.6487C152.351 23.8469 152.204 23.1319 151.91 22.5037C151.629 21.8622 151.202 21.3544 150.627 20.9801C150.052 20.6059 149.317 20.4188 148.422 20.4188C147.66 20.4188 147.005 20.5859 146.457 20.92C145.909 21.2541 145.461 21.7219 145.114 22.3233C144.78 22.9247 144.526 23.633 144.352 24.4483C144.192 25.2501 144.112 26.1322 144.112 27.0945V27.8963C144.112 28.765 144.232 29.5669 144.472 30.302C144.726 31.037 145.081 31.6718 145.535 32.2064C146.003 32.741 146.564 33.1553 147.219 33.4493C147.887 33.7434 148.642 33.8904 149.484 33.8904C150.527 33.8904 151.496 33.6899 152.391 33.289C153.3 32.8747 154.082 32.2532 154.736 31.4246L157.543 34.4717C157.089 35.1266 156.467 35.7547 155.679 36.3562C154.904 36.9576 153.968 37.4521 152.872 37.8396C151.776 38.2138 150.527 38.4009 149.123 38.4009ZM167.085 21.0403V38H161.312V16.3092H166.745L167.085 21.0403ZM173.621 16.1689L173.52 21.5214C173.24 21.4813 172.899 21.4479 172.498 21.4212C172.11 21.3811 171.756 21.361 171.436 21.361C170.62 21.361 169.912 21.468 169.311 21.6818C168.723 21.8823 168.228 22.183 167.827 22.5839C167.44 22.9848 167.146 23.4726 166.945 24.0473C166.758 24.622 166.651 25.2769 166.624 26.0119L165.462 25.6511C165.462 24.2478 165.602 22.9581 165.883 21.782C166.163 20.5926 166.571 19.5568 167.105 18.6747C167.653 17.7927 168.322 17.1111 169.11 16.63C169.899 16.1488 170.801 15.9083 171.816 15.9083C172.137 15.9083 172.465 15.935 172.799 15.9885C173.133 16.0285 173.407 16.0887 173.621 16.1689Z" fill="#0291EB"/>
<path d="M9.12766 53.0452C9.42296 53.0452 9.6959 52.9848 9.94646 52.864C10.197 52.7432 10.4028 52.5777 10.5639 52.3674C10.725 52.1526 10.8167 51.9088 10.8391 51.6358H12.0203C11.9979 52.0654 11.8525 52.4658 11.5841 52.8372C11.3201 53.2041 10.9733 53.5016 10.5438 53.7298C10.1142 53.9535 9.64221 54.0654 9.12766 54.0654C8.58179 54.0654 8.10528 53.9692 7.69811 53.7768C7.29542 53.5844 6.95985 53.3204 6.69139 52.9848C6.42741 52.6493 6.2283 52.2645 6.09407 51.8305C5.96431 51.392 5.89944 50.9289 5.89944 50.4412V50.1593C5.89944 49.6716 5.96431 49.2107 6.09407 48.7767C6.2283 48.3383 6.42741 47.9512 6.69139 47.6156C6.95985 47.2801 7.29542 47.0161 7.69811 46.8237C8.10528 46.6313 8.58179 46.5351 9.12766 46.5351C9.6959 46.5351 10.1925 46.6514 10.6176 46.8841C11.0427 47.1123 11.376 47.4255 11.6176 47.8237C11.8637 48.2174 11.9979 48.6649 12.0203 49.166H10.8391C10.8167 48.8662 10.7317 48.5955 10.5841 48.3539C10.4409 48.1123 10.244 47.9199 9.99344 47.7767C9.74735 47.6291 9.45876 47.5552 9.12766 47.5552C8.74734 47.5552 8.42743 47.6313 8.16792 47.7834C7.91288 47.9311 7.7093 48.1324 7.55717 48.3875C7.40952 48.638 7.30214 48.9177 7.23502 49.2264C7.17238 49.5307 7.14106 49.8416 7.14106 50.1593V50.4412C7.14106 50.7589 7.17238 51.0721 7.23502 51.3808C7.29766 51.6895 7.40281 51.9692 7.55046 52.2197C7.70259 52.4703 7.90617 52.6716 8.16121 52.8238C8.42072 52.9714 8.74287 53.0452 9.12766 53.0452ZM17.211 50.3808V50.2264C17.211 49.7029 17.287 49.2175 17.4392 48.77C17.5913 48.3181 17.8105 47.9266 18.0969 47.5955C18.3832 47.2599 18.73 47.0004 19.1372 46.817C19.5443 46.6291 20.0007 46.5351 20.5063 46.5351C21.0164 46.5351 21.475 46.6291 21.8822 46.817C22.2938 47.0004 22.6428 47.2599 22.9292 47.5955C23.22 47.9266 23.4415 48.3181 23.5936 48.77C23.7457 49.2175 23.8218 49.7029 23.8218 50.2264V50.3808C23.8218 50.9043 23.7457 51.3897 23.5936 51.8372C23.4415 52.2846 23.22 52.6761 22.9292 53.0117C22.6428 53.3428 22.296 53.6023 21.8889 53.7902C21.4862 53.9737 21.0298 54.0654 20.5197 54.0654C20.0097 54.0654 19.551 53.9737 19.1439 53.7902C18.7367 53.6023 18.3877 53.3428 18.0969 53.0117C17.8105 52.6761 17.5913 52.2846 17.4392 51.8372C17.287 51.3897 17.211 50.9043 17.211 50.3808ZM18.4526 50.2264V50.3808C18.4526 50.7432 18.4951 51.0855 18.5801 51.4076C18.6651 51.7253 18.7926 52.0072 18.9627 52.2533C19.1372 52.4994 19.3542 52.694 19.6137 52.8372C19.8732 52.9759 20.1752 53.0452 20.5197 53.0452C20.8598 53.0452 21.1573 52.9759 21.4124 52.8372C21.6719 52.694 21.8866 52.4994 22.0567 52.2533C22.2267 52.0072 22.3542 51.7253 22.4392 51.4076C22.5287 51.0855 22.5734 50.7432 22.5734 50.3808V50.2264C22.5734 49.8685 22.5287 49.5307 22.4392 49.213C22.3542 48.8908 22.2244 48.6067 22.0499 48.3606C21.8799 48.1101 21.6652 47.9132 21.4056 47.77C21.1506 47.6268 20.8508 47.5552 20.5063 47.5552C20.1663 47.5552 19.8665 47.6268 19.607 47.77C19.3519 47.9132 19.1372 48.1101 18.9627 48.3606C18.7926 48.6067 18.6651 48.8908 18.5801 49.213C18.4951 49.5307 18.4526 49.8685 18.4526 50.2264ZM30.744 48.2197V53.9312H29.5024V46.6693H30.6769L30.744 48.2197ZM30.4487 50.0251L29.9319 50.0049C29.9364 49.5083 30.0102 49.0497 30.1534 48.6291C30.2966 48.204 30.4979 47.8349 30.7574 47.5217C31.0169 47.2085 31.3257 46.9669 31.6836 46.7968C32.046 46.6223 32.4465 46.5351 32.885 46.5351C33.2429 46.5351 33.5651 46.5843 33.8514 46.6828C34.1378 46.7767 34.3816 46.9288 34.583 47.1391C34.7888 47.3494 34.9454 47.6224 35.0528 47.9579C35.1602 48.289 35.2138 48.694 35.2138 49.1727V53.9312H33.9655V49.1593C33.9655 48.779 33.9096 48.4747 33.7977 48.2465C33.6859 48.0139 33.5226 47.8461 33.3078 47.7432C33.093 47.6358 32.829 47.5821 32.5158 47.5821C32.2071 47.5821 31.9252 47.647 31.6702 47.7767C31.4196 47.9065 31.2026 48.0855 31.0192 48.3136C30.8402 48.5418 30.6993 48.8036 30.5963 49.0989C30.4979 49.3897 30.4487 49.6984 30.4487 50.0251ZM45.4515 52.005C45.4515 51.826 45.4113 51.6604 45.3307 51.5083C45.2547 51.3517 45.0958 51.2108 44.8542 51.0855C44.6171 50.9557 44.2591 50.8439 43.7804 50.7499C43.3777 50.6649 43.013 50.5642 42.6864 50.4479C42.3643 50.3316 42.0891 50.1906 41.8609 50.0251C41.6372 49.8595 41.4649 49.6649 41.3441 49.4412C41.2233 49.2175 41.1629 48.9557 41.1629 48.6559C41.1629 48.3696 41.2255 48.0989 41.3508 47.8438C41.4806 47.5888 41.6618 47.3628 41.8945 47.166C42.1316 46.9691 42.4157 46.8147 42.7468 46.7029C43.0779 46.591 43.447 46.5351 43.8542 46.5351C44.4359 46.5351 44.9325 46.638 45.3442 46.8438C45.7558 47.0496 46.0712 47.3248 46.2905 47.6693C46.5097 48.0094 46.6193 48.3875 46.6193 48.8036H45.3777C45.3777 48.6022 45.3173 48.4076 45.1965 48.2197C45.0802 48.0273 44.9079 47.8684 44.6797 47.7432C44.456 47.6179 44.1808 47.5552 43.8542 47.5552C43.5097 47.5552 43.23 47.6089 43.0153 47.7163C42.805 47.8192 42.6506 47.9512 42.5522 48.1123C42.4582 48.2734 42.4112 48.4434 42.4112 48.6224C42.4112 48.7566 42.4336 48.8774 42.4784 48.9848C42.5276 49.0877 42.6126 49.1839 42.7334 49.2734C42.8542 49.3584 43.0242 49.4389 43.2435 49.515C43.4627 49.5911 43.7424 49.6671 44.0824 49.7432C44.6775 49.8774 45.1674 50.0385 45.5522 50.2264C45.937 50.4143 46.2234 50.6448 46.4113 50.9177C46.5992 51.1906 46.6932 51.5217 46.6932 51.911C46.6932 52.2287 46.6261 52.5195 46.4918 52.7835C46.3621 53.0475 46.1719 53.2757 45.9213 53.4681C45.6753 53.656 45.38 53.8036 45.0354 53.911C44.6954 54.0139 44.3128 54.0654 43.8878 54.0654C43.2479 54.0654 42.7065 53.9513 42.2636 53.7231C41.8206 53.4949 41.4851 53.1996 41.2569 52.8372C41.0287 52.4748 40.9146 52.0922 40.9146 51.6895H42.1629C42.1808 52.0296 42.2792 52.3003 42.4582 52.5016C42.6372 52.6985 42.8564 52.8394 43.1159 52.9244C43.3755 53.005 43.6327 53.0452 43.8878 53.0452C44.2278 53.0452 44.5119 53.0005 44.7401 52.911C44.9728 52.8215 45.1495 52.6985 45.2703 52.5419C45.3911 52.3853 45.4515 52.2063 45.4515 52.005ZM56.8906 52.2533V46.6693H58.1389V53.9312H56.951L56.8906 52.2533ZM57.1255 50.7231L57.6423 50.7096C57.6423 51.1929 57.5908 51.6403 57.4879 52.0519C57.3895 52.4591 57.2284 52.8126 57.0047 53.1124C56.781 53.4121 56.4879 53.647 56.1255 53.8171C55.7631 53.9826 55.3223 54.0654 54.8033 54.0654C54.4498 54.0654 54.1255 54.0139 53.8302 53.911C53.5393 53.8081 53.2888 53.6493 53.0785 53.4345C52.8682 53.2197 52.7049 52.9401 52.5885 52.5956C52.4767 52.251 52.4207 51.8372 52.4207 51.3539V46.6693H53.6624V51.3674C53.6624 51.694 53.6982 51.9647 53.7698 52.1795C53.8458 52.3897 53.9465 52.5575 54.0718 52.6828C54.2015 52.8036 54.3447 52.8886 54.5013 52.9379C54.6624 52.9871 54.8279 53.0117 54.998 53.0117C55.5259 53.0117 55.9443 52.911 56.253 52.7097C56.5617 52.5038 56.7832 52.2287 56.9174 51.8842C57.0561 51.5352 57.1255 51.1481 57.1255 50.7231ZM65.5041 43.6223V53.9312H64.2558V43.6223H65.5041ZM74.6612 46.6693V47.6224H70.735V46.6693H74.6612ZM72.0639 44.9042H73.3055V52.1325C73.3055 52.3786 73.3436 52.5642 73.4196 52.6895C73.4957 52.8148 73.5941 52.8976 73.7149 52.9379C73.8357 52.9781 73.9655 52.9983 74.1042 52.9983C74.2071 52.9983 74.3145 52.9893 74.4263 52.9714C74.5427 52.949 74.6299 52.9311 74.6881 52.9177L74.6948 53.9312C74.5964 53.9625 74.4666 53.9916 74.3055 54.0184C74.1489 54.0497 73.9588 54.0654 73.7351 54.0654C73.4308 54.0654 73.1512 54.005 72.8961 53.8842C72.6411 53.7634 72.4375 53.562 72.2854 53.2801C72.1377 52.9938 72.0639 52.609 72.0639 52.1258V44.9042ZM81.5902 46.6693V53.9312H80.3418V46.6693H81.5902ZM80.2479 44.7431C80.2479 44.5418 80.3083 44.3718 80.4291 44.2331C80.5544 44.0944 80.7378 44.025 80.9794 44.025C81.2166 44.025 81.3978 44.0944 81.5231 44.2331C81.6528 44.3718 81.7177 44.5418 81.7177 44.7431C81.7177 44.9355 81.6528 45.1011 81.5231 45.2398C81.3978 45.374 81.2166 45.4411 80.9794 45.4411C80.7378 45.4411 80.5544 45.374 80.4291 45.2398C80.3083 45.1011 80.2479 44.9355 80.2479 44.7431ZM88.9487 48.2197V53.9312H87.707V46.6693H88.8815L88.9487 48.2197ZM88.6533 50.0251L88.1366 50.0049C88.141 49.5083 88.2149 49.0497 88.358 48.6291C88.5012 48.204 88.7026 47.8349 88.9621 47.5217C89.2216 47.2085 89.5303 46.9669 89.8883 46.7968C90.2507 46.6223 90.6511 46.5351 91.0896 46.5351C91.4476 46.5351 91.7697 46.5843 92.0561 46.6828C92.3424 46.7767 92.5863 46.9288 92.7876 47.1391C92.9934 47.3494 93.15 47.6224 93.2574 47.9579C93.3648 48.289 93.4185 48.694 93.4185 49.1727V53.9312H92.1702V49.1593C92.1702 48.779 92.1142 48.4747 92.0024 48.2465C91.8905 48.0139 91.7272 47.8461 91.5124 47.7432C91.2977 47.6358 91.0337 47.5821 90.7205 47.5821C90.4118 47.5821 90.1299 47.647 89.8748 47.7767C89.6243 47.9065 89.4073 48.0855 89.2238 48.3136C89.0449 48.5418 88.9039 48.8036 88.801 49.0989C88.7026 49.3897 88.6533 49.6984 88.6533 50.0251ZM104.133 46.6693H105.26V53.7768C105.26 54.4166 105.13 54.9625 104.871 55.4144C104.611 55.8663 104.249 56.2086 103.784 56.4412C103.323 56.6784 102.79 56.797 102.186 56.797C101.936 56.797 101.641 56.7567 101.3 56.6761C100.965 56.6001 100.634 56.4681 100.307 56.2802C99.985 56.0967 99.7143 55.8484 99.4951 55.5352L100.146 54.7969C100.45 55.1638 100.768 55.4189 101.099 55.562C101.435 55.7052 101.766 55.7768 102.092 55.7768C102.486 55.7768 102.826 55.703 103.113 55.5553C103.399 55.4077 103.62 55.1884 103.777 54.8976C103.938 54.6112 104.019 54.2578 104.019 53.8372V48.2667L104.133 46.6693ZM99.1327 50.3808V50.2398C99.1327 49.685 99.1975 49.1817 99.3273 48.7298C99.4615 48.2734 99.6517 47.8819 99.8978 47.5552C100.148 47.2286 100.45 46.9781 100.804 46.8036C101.157 46.6246 101.556 46.5351 101.998 46.5351C102.455 46.5351 102.853 46.6156 103.193 46.7767C103.538 46.9333 103.828 47.1637 104.066 47.468C104.307 47.7678 104.497 48.1302 104.636 48.5553C104.775 48.9803 104.871 49.4613 104.925 49.9982V50.6157C104.875 51.1481 104.779 51.6269 104.636 52.0519C104.497 52.477 104.307 52.8394 104.066 53.1392C103.828 53.439 103.538 53.6694 103.193 53.8305C102.849 53.9871 102.446 54.0654 101.985 54.0654C101.551 54.0654 101.157 53.9737 100.804 53.7902C100.455 53.6068 100.155 53.3495 99.9045 53.0184C99.6539 52.6873 99.4615 52.298 99.3273 51.8506C99.1975 51.3987 99.1327 50.9087 99.1327 50.3808ZM100.374 50.2398V50.3808C100.374 50.7432 100.41 51.0832 100.482 51.4009C100.558 51.7186 100.672 51.9982 100.824 52.2399C100.981 52.4815 101.18 52.6716 101.421 52.8103C101.663 52.9446 101.951 53.0117 102.287 53.0117C102.699 53.0117 103.039 52.9244 103.307 52.7499C103.576 52.5754 103.788 52.345 103.945 52.0586C104.106 51.7723 104.231 51.4613 104.321 51.1258V49.5083C104.271 49.2622 104.195 49.0251 104.092 48.7969C103.994 48.5642 103.864 48.3584 103.703 48.1794C103.547 47.996 103.352 47.8506 103.119 47.7432C102.887 47.6358 102.614 47.5821 102.3 47.5821C101.96 47.5821 101.667 47.6537 101.421 47.7969C101.18 47.9356 100.981 48.128 100.824 48.374C100.672 48.6157 100.558 48.8975 100.482 49.2197C100.41 49.5374 100.374 49.8774 100.374 50.2398ZM123.507 46.6693H124.635V53.7768C124.635 54.4166 124.505 54.9625 124.246 55.4144C123.986 55.8663 123.624 56.2086 123.158 56.4412C122.698 56.6784 122.165 56.797 121.561 56.797C121.311 56.797 121.015 56.7567 120.675 56.6761C120.34 56.6001 120.008 56.4681 119.682 56.2802C119.36 56.0967 119.089 55.8484 118.87 55.5352L119.521 54.7969C119.825 55.1638 120.143 55.4189 120.474 55.562C120.809 55.7052 121.14 55.7768 121.467 55.7768C121.861 55.7768 122.201 55.703 122.487 55.5553C122.774 55.4077 122.995 55.1884 123.152 54.8976C123.313 54.6112 123.393 54.2578 123.393 53.8372V48.2667L123.507 46.6693ZM118.507 50.3808V50.2398C118.507 49.685 118.572 49.1817 118.702 48.7298C118.836 48.2734 119.026 47.8819 119.272 47.5552C119.523 47.2286 119.825 46.9781 120.179 46.8036C120.532 46.6246 120.93 46.5351 121.373 46.5351C121.83 46.5351 122.228 46.6156 122.568 46.7767C122.912 46.9333 123.203 47.1637 123.44 47.468C123.682 47.7678 123.872 48.1302 124.011 48.5553C124.149 48.9803 124.246 49.4613 124.299 49.9982V50.6157C124.25 51.1481 124.154 51.6269 124.011 52.0519C123.872 52.477 123.682 52.8394 123.44 53.1392C123.203 53.439 122.912 53.6694 122.568 53.8305C122.223 53.9871 121.821 54.0654 121.36 54.0654C120.926 54.0654 120.532 53.9737 120.179 53.7902C119.83 53.6068 119.53 53.3495 119.279 53.0184C119.029 52.6873 118.836 52.298 118.702 51.8506C118.572 51.3987 118.507 50.9087 118.507 50.3808ZM119.749 50.2398V50.3808C119.749 50.7432 119.785 51.0832 119.856 51.4009C119.932 51.7186 120.047 51.9982 120.199 52.2399C120.355 52.4815 120.554 52.6716 120.796 52.8103C121.038 52.9446 121.326 53.0117 121.662 53.0117C122.073 53.0117 122.413 52.9244 122.682 52.7499C122.95 52.5754 123.163 52.345 123.319 52.0586C123.481 51.7723 123.606 51.4613 123.695 51.1258V49.5083C123.646 49.2622 123.57 49.0251 123.467 48.7969C123.369 48.5642 123.239 48.3584 123.078 48.1794C122.921 47.996 122.727 47.8506 122.494 47.7432C122.261 47.6358 121.988 47.5821 121.675 47.5821C121.335 47.5821 121.042 47.6537 120.796 47.7969C120.554 47.9356 120.355 48.128 120.199 48.374C120.047 48.6157 119.932 48.8975 119.856 49.2197C119.785 49.5374 119.749 49.8774 119.749 50.2398ZM131.886 47.8103V53.9312H130.644V46.6693H131.852L131.886 47.8103ZM134.155 46.6291L134.148 47.7834C134.045 47.7611 133.946 47.7476 133.852 47.7432C133.763 47.7342 133.66 47.7297 133.544 47.7297C133.257 47.7297 133.005 47.7745 132.785 47.864C132.566 47.9535 132.38 48.0787 132.228 48.2398C132.076 48.4009 131.955 48.5933 131.866 48.817C131.781 49.0362 131.725 49.2779 131.698 49.5418L131.349 49.7432C131.349 49.3047 131.392 48.8931 131.477 48.5083C131.566 48.1235 131.703 47.7834 131.886 47.4881C132.069 47.1884 132.302 46.9557 132.584 46.7901C132.87 46.6201 133.21 46.5351 133.604 46.5351C133.694 46.5351 133.797 46.5463 133.913 46.5687C134.029 46.5866 134.11 46.6067 134.155 46.6291ZM138.963 50.3808V50.2264C138.963 49.7029 139.039 49.2175 139.191 48.77C139.343 48.3181 139.562 47.9266 139.849 47.5955C140.135 47.2599 140.482 47.0004 140.889 46.817C141.296 46.6291 141.752 46.5351 142.258 46.5351C142.768 46.5351 143.227 46.6291 143.634 46.817C144.045 47.0004 144.394 47.2599 144.681 47.5955C144.972 47.9266 145.193 48.3181 145.345 48.77C145.497 49.2175 145.573 49.7029 145.573 50.2264V50.3808C145.573 50.9043 145.497 51.3897 145.345 51.8372C145.193 52.2846 144.972 52.6761 144.681 53.0117C144.394 53.3428 144.048 53.6023 143.641 53.7902C143.238 53.9737 142.781 54.0654 142.271 54.0654C141.761 54.0654 141.303 53.9737 140.896 53.7902C140.488 53.6023 140.139 53.3428 139.849 53.0117C139.562 52.6761 139.343 52.2846 139.191 51.8372C139.039 51.3897 138.963 50.9043 138.963 50.3808ZM140.204 50.2264V50.3808C140.204 50.7432 140.247 51.0855 140.332 51.4076C140.417 51.7253 140.544 52.0072 140.714 52.2533C140.889 52.4994 141.106 52.694 141.365 52.8372C141.625 52.9759 141.927 53.0452 142.271 53.0452C142.611 53.0452 142.909 52.9759 143.164 52.8372C143.424 52.694 143.638 52.4994 143.808 52.2533C143.978 52.0072 144.106 51.7253 144.191 51.4076C144.28 51.0855 144.325 50.7432 144.325 50.3808V50.2264C144.325 49.8685 144.28 49.5307 144.191 49.213C144.106 48.8908 143.976 48.6067 143.802 48.3606C143.632 48.1101 143.417 47.9132 143.157 47.77C142.902 47.6268 142.602 47.5552 142.258 47.5552C141.918 47.5552 141.618 47.6268 141.359 47.77C141.104 47.9132 140.889 48.1101 140.714 48.3606C140.544 48.6067 140.417 48.8908 140.332 49.213C140.247 49.5307 140.204 49.8685 140.204 50.2264ZM155.697 52.2533V46.6693H156.945V53.9312H155.757L155.697 52.2533ZM155.932 50.7231L156.449 50.7096C156.449 51.1929 156.397 51.6403 156.294 52.0519C156.196 52.4591 156.035 52.8126 155.811 53.1124C155.587 53.4121 155.294 53.647 154.932 53.8171C154.569 53.9826 154.129 54.0654 153.61 54.0654C153.256 54.0654 152.932 54.0139 152.637 53.911C152.346 53.8081 152.095 53.6493 151.885 53.4345C151.675 53.2197 151.511 52.9401 151.395 52.5956C151.283 52.251 151.227 51.8372 151.227 51.3539V46.6693H152.469V51.3674C152.469 51.694 152.505 51.9647 152.576 52.1795C152.652 52.3897 152.753 52.5575 152.878 52.6828C153.008 52.8036 153.151 52.8886 153.308 52.9379C153.469 52.9871 153.634 53.0117 153.804 53.0117C154.332 53.0117 154.751 52.911 155.059 52.7097C155.368 52.5038 155.59 52.2287 155.724 51.8842C155.863 51.5352 155.932 51.1481 155.932 50.7231ZM164.203 48.0653V56.7231H162.955V46.6693H164.096L164.203 48.0653ZM169.096 50.2398V50.3808C169.096 50.9087 169.033 51.3987 168.908 51.8506C168.783 52.298 168.599 52.6873 168.358 53.0184C168.12 53.3495 167.827 53.6068 167.478 53.7902C167.129 53.9737 166.729 54.0654 166.277 54.0654C165.816 54.0654 165.409 53.9893 165.056 53.8372C164.702 53.6851 164.402 53.4636 164.156 53.1728C163.91 52.8819 163.713 52.5329 163.566 52.1258C163.422 51.7186 163.324 51.26 163.27 50.7499V49.9982C163.324 49.4613 163.425 48.9803 163.572 48.5553C163.72 48.1302 163.915 47.7678 164.156 47.468C164.402 47.1637 164.7 46.9333 165.049 46.7767C165.398 46.6156 165.8 46.5351 166.257 46.5351C166.713 46.5351 167.118 46.6246 167.472 46.8036C167.825 46.9781 168.123 47.2286 168.364 47.5552C168.606 47.8819 168.787 48.2734 168.908 48.7298C169.033 49.1817 169.096 49.685 169.096 50.2398ZM167.847 50.3808V50.2398C167.847 49.8774 167.809 49.5374 167.733 49.2197C167.657 48.8975 167.539 48.6157 167.378 48.374C167.221 48.128 167.02 47.9356 166.774 47.7969C166.528 47.6537 166.234 47.5821 165.894 47.5821C165.581 47.5821 165.308 47.6358 165.076 47.7432C164.847 47.8506 164.653 47.996 164.492 48.1794C164.331 48.3584 164.199 48.5642 164.096 48.7969C163.997 49.0251 163.924 49.2622 163.874 49.5083V51.2466C163.964 51.5598 164.089 51.8551 164.25 52.1325C164.411 52.4054 164.626 52.6269 164.894 52.7969C165.163 52.9625 165.501 53.0452 165.908 53.0452C166.243 53.0452 166.532 52.9759 166.774 52.8372C167.02 52.694 167.221 52.4994 167.378 52.2533C167.539 52.0072 167.657 51.7253 167.733 51.4076C167.809 51.0855 167.847 50.7432 167.847 50.3808Z" fill="#C0C0C0"/>
</svg>
