<svg width="178" height="61" viewBox="0 0 178 61" fill="none" xmlns="http://www.w3.org/2000/svg">
<path d="M11.8419 8.81165V38H5.82778V8.81165H11.8419ZM23.4691 21.2808V25.9718H10.198V21.2808H23.4691ZM24.8724 8.81165V13.5227H10.198V8.81165H24.8724ZM34.094 16.3092V38H28.3004V16.3092H34.094ZM27.9396 10.656C27.9396 9.814 28.2336 9.11904 28.8216 8.57109C29.4097 8.02314 30.1982 7.74916 31.1872 7.74916C32.1628 7.74916 32.9446 8.02314 33.5327 8.57109C34.1341 9.11904 34.4348 9.814 34.4348 10.656C34.4348 11.4979 34.1341 12.1929 33.5327 12.7409C32.9446 13.2888 32.1628 13.5628 31.1872 13.5628C30.1982 13.5628 29.4097 13.2888 28.8216 12.7409C28.2336 12.1929 27.9396 11.4979 27.9396 10.656ZM44.5184 20.9401V38H38.7449V16.3092H44.1575L44.5184 20.9401ZM43.6764 26.3928H42.1128C42.1128 24.7891 42.3199 23.3457 42.7342 22.0627C43.1485 20.7663 43.7299 19.6637 44.4783 18.7549C45.2267 17.8328 46.1155 17.1311 47.1445 16.65C48.187 16.1555 49.3497 15.9083 50.6327 15.9083C51.6484 15.9083 52.5773 16.0553 53.4192 16.3493C54.2612 16.6433 54.9829 17.1111 55.5843 17.7526C56.1991 18.3941 56.6668 19.2427 56.9876 20.2985C57.3217 21.3544 57.4888 22.644 57.4888 24.1676V38H51.6751V24.1476C51.6751 23.1853 51.5415 22.4369 51.2742 21.9023C51.0069 21.3677 50.6127 20.9935 50.0914 20.7797C49.5836 20.5525 48.9554 20.4389 48.207 20.4389C47.4319 20.4389 46.757 20.5926 46.1823 20.9C45.621 21.2073 45.1532 21.635 44.779 22.183C44.4181 22.7175 44.1442 23.3457 43.9571 24.0674C43.77 24.7891 43.6764 25.5642 43.6764 26.3928ZM73.5865 33.1085V23.4459C73.5865 22.751 73.4729 22.1562 73.2457 21.6617C73.0185 21.1539 72.6643 20.7596 72.1832 20.479C71.7154 20.1983 71.1073 20.058 70.3589 20.058C69.7174 20.058 69.1628 20.1716 68.695 20.3988C68.2272 20.6126 67.8664 20.9267 67.6125 21.341C67.3585 21.7419 67.2316 22.2164 67.2316 22.7643H61.458C61.458 21.8422 61.6719 20.9668 62.0996 20.1382C62.5272 19.3096 63.1487 18.5812 63.9639 17.9531C64.7792 17.3116 65.7481 16.8104 66.8707 16.4495C68.0067 16.0887 69.2764 15.9083 70.6796 15.9083C72.3636 15.9083 73.8604 16.1889 75.1702 16.7502C76.4799 17.3116 77.509 18.1535 78.2574 19.2762C79.0192 20.3988 79.4001 21.8021 79.4001 23.486V32.7677C79.4001 33.9572 79.4736 34.9328 79.6206 35.6946C79.7676 36.443 79.9814 37.0979 80.2621 37.6592V38H74.4284C74.1478 37.412 73.9339 36.6769 73.7869 35.7948C73.6533 34.8994 73.5865 34.004 73.5865 33.1085ZM74.3482 24.7891L74.3883 28.0567H71.1608C70.399 28.0567 69.7374 28.1436 69.1761 28.3173C68.6148 28.4911 68.1537 28.7383 67.7929 29.0591C67.432 29.3664 67.1647 29.7273 66.991 30.1416C66.8306 30.5559 66.7504 31.0103 66.7504 31.5048C66.7504 31.9993 66.864 32.447 67.0912 32.8479C67.3184 33.2355 67.6459 33.5429 68.0735 33.7701C68.5012 33.9839 69.0024 34.0908 69.5771 34.0908C70.4458 34.0908 71.2009 33.9171 71.8424 33.5696C72.4839 33.2221 72.9784 32.7945 73.3258 32.2866C73.6867 31.7788 73.8738 31.2976 73.8872 30.8432L75.4107 33.289C75.1969 33.8369 74.9029 34.4049 74.5287 34.993C74.1678 35.581 73.7067 36.1356 73.1454 36.6569C72.5841 37.1647 71.9092 37.5857 71.1207 37.9198C70.3322 38.2406 69.3966 38.4009 68.3141 38.4009C66.9375 38.4009 65.688 38.127 64.5653 37.579C63.4561 37.0177 62.574 36.2492 61.9191 35.2736C61.2776 34.2846 60.9569 33.162 60.9569 31.9057C60.9569 30.7697 61.1707 29.7607 61.5984 28.8786C62.026 27.9966 62.6542 27.2548 63.4828 26.6534C64.3248 26.0387 65.3739 25.5776 66.6302 25.2702C67.8864 24.9494 69.3432 24.7891 71.0004 24.7891H74.3482ZM89.5037 20.9401V38H83.7302V16.3092H89.1429L89.5037 20.9401ZM88.6618 26.3928H87.0981C87.0981 24.7891 87.3052 23.3457 87.7196 22.0627C88.1339 20.7663 88.7152 19.6637 89.4636 18.7549C90.2121 17.8328 91.1008 17.1311 92.1299 16.65C93.1723 16.1555 94.335 15.9083 95.618 15.9083C96.6338 15.9083 97.5626 16.0553 98.4046 16.3493C99.2465 16.6433 99.9682 17.1111 100.57 17.7526C101.184 18.3941 101.652 19.2427 101.973 20.2985C102.307 21.3544 102.474 22.644 102.474 24.1676V38H96.6605V24.1476C96.6605 23.1853 96.5268 22.4369 96.2595 21.9023C95.9923 21.3677 95.598 20.9935 95.0768 20.7797C94.5689 20.5525 93.9408 20.4389 93.1924 20.4389C92.4172 20.4389 91.7423 20.5926 91.1676 20.9C90.6063 21.2073 90.1385 21.635 89.7643 22.183C89.4035 22.7175 89.1295 23.3457 88.9424 24.0674C88.7553 24.7891 88.6618 25.5642 88.6618 26.3928ZM115.825 33.8904C116.534 33.8904 117.162 33.7567 117.71 33.4894C118.258 33.2088 118.685 32.8212 118.993 32.3267C119.314 31.8189 119.481 31.2241 119.494 30.5425H124.927C124.913 32.0661 124.506 33.4226 123.704 34.6121C122.902 35.7882 121.826 36.717 120.476 37.3986C119.126 38.0668 117.616 38.4009 115.946 38.4009C114.262 38.4009 112.792 38.1203 111.535 37.559C110.292 36.9977 109.257 36.2225 108.428 35.2335C107.599 34.2312 106.978 33.0685 106.564 31.7454C106.149 30.4089 105.942 28.9789 105.942 27.4553V26.8739C105.942 25.337 106.149 23.907 106.564 22.5839C106.978 21.2474 107.599 20.0847 108.428 19.0957C109.257 18.0934 110.292 17.3116 111.535 16.7502C112.778 16.1889 114.235 15.9083 115.906 15.9083C117.683 15.9083 119.24 16.2491 120.576 16.9307C121.926 17.6123 122.982 18.5879 123.744 19.8575C124.519 21.1138 124.913 22.6039 124.927 24.328H119.494C119.481 23.6063 119.327 22.9514 119.033 22.3634C118.752 21.7753 118.338 21.3076 117.79 20.9601C117.255 20.5993 116.594 20.4188 115.805 20.4188C114.963 20.4188 114.275 20.5993 113.74 20.9601C113.206 21.3076 112.792 21.7887 112.498 22.4035C112.204 23.0049 111.996 23.6932 111.876 24.4683C111.769 25.2301 111.716 26.032 111.716 26.8739V27.4553C111.716 28.2973 111.769 29.1058 111.876 29.881C111.983 30.6561 112.183 31.3444 112.478 31.9458C112.785 32.5472 113.206 33.0217 113.74 33.3692C114.275 33.7166 114.97 33.8904 115.825 33.8904ZM134.369 16.3092V38H128.575V16.3092H134.369ZM128.214 10.656C128.214 9.814 128.508 9.11904 129.096 8.57109C129.684 8.02314 130.473 7.74916 131.462 7.74916C132.438 7.74916 133.219 8.02314 133.807 8.57109C134.409 9.11904 134.71 9.814 134.71 10.656C134.71 11.4979 134.409 12.1929 133.807 12.7409C133.219 13.2888 132.438 13.5628 131.462 13.5628C130.473 13.5628 129.684 13.2888 129.096 12.7409C128.508 12.1929 128.214 11.4979 128.214 10.656ZM149.123 38.4009C147.439 38.4009 145.929 38.1336 144.593 37.5991C143.256 37.0511 142.12 36.296 141.185 35.3338C140.263 34.3715 139.554 33.2556 139.06 31.9859C138.565 30.7029 138.318 29.3397 138.318 27.8963V27.0945C138.318 25.4506 138.552 23.9471 139.02 22.5839C139.487 21.2207 140.156 20.0379 141.024 19.0356C141.906 18.0332 142.976 17.2648 144.232 16.7302C145.488 16.1822 146.905 15.9083 148.482 15.9083C150.019 15.9083 151.382 16.1622 152.571 16.6701C153.761 17.1779 154.757 17.8996 155.558 18.8351C156.374 19.7706 156.988 20.8933 157.403 22.203C157.817 23.4994 158.024 24.9428 158.024 26.5331V28.9388H140.784V25.0898H152.351V24.6487C152.351 23.8469 152.204 23.1319 151.91 22.5037C151.629 21.8622 151.202 21.3544 150.627 20.9801C150.052 20.6059 149.317 20.4188 148.422 20.4188C147.66 20.4188 147.005 20.5859 146.457 20.92C145.909 21.2541 145.461 21.7219 145.114 22.3233C144.78 22.9247 144.526 23.633 144.352 24.4483C144.192 25.2501 144.112 26.1322 144.112 27.0945V27.8963C144.112 28.765 144.232 29.5669 144.472 30.302C144.726 31.037 145.081 31.6718 145.535 32.2064C146.003 32.741 146.564 33.1553 147.219 33.4493C147.887 33.7434 148.642 33.8904 149.484 33.8904C150.527 33.8904 151.496 33.6899 152.391 33.289C153.3 32.8747 154.082 32.2532 154.736 31.4246L157.543 34.4717C157.089 35.1266 156.467 35.7547 155.679 36.3562C154.904 36.9576 153.968 37.4521 152.872 37.8396C151.776 38.2138 150.527 38.4009 149.123 38.4009ZM167.085 21.0403V38H161.312V16.3092H166.745L167.085 21.0403ZM173.621 16.1689L173.52 21.5214C173.24 21.4813 172.899 21.4479 172.498 21.4212C172.11 21.3811 171.756 21.361 171.436 21.361C170.62 21.361 169.912 21.468 169.311 21.6818C168.723 21.8823 168.228 22.183 167.827 22.5839C167.44 22.9848 167.146 23.4726 166.945 24.0473C166.758 24.622 166.651 25.2769 166.624 26.0119L165.462 25.6511C165.462 24.2478 165.602 22.9581 165.883 21.782C166.163 20.5926 166.571 19.5568 167.105 18.6747C167.653 17.7927 168.322 17.1111 169.11 16.63C169.899 16.1488 170.801 15.9083 171.816 15.9083C172.137 15.9083 172.465 15.935 172.799 15.9885C173.133 16.0285 173.407 16.0887 173.621 16.1689Z" fill="#0291EB"/>
<path d="M8.1843 47.8103V53.9312H6.94267V46.6693H8.15074L8.1843 47.8103ZM10.4528 46.6291L10.4461 47.7834C10.3432 47.7611 10.2447 47.7476 10.1508 47.7432C10.0613 47.7342 9.95836 47.7297 9.84203 47.7297C9.55568 47.7297 9.30288 47.7745 9.08363 47.864C8.86439 47.9535 8.67871 48.0787 8.52658 48.2398C8.37445 48.4009 8.25365 48.5933 8.16416 48.817C8.07915 49.0362 8.02322 49.2779 7.99637 49.5418L7.64738 49.7432C7.64738 49.3047 7.68988 48.8931 7.7749 48.5083C7.86438 48.1235 8.00085 47.7834 8.1843 47.4881C8.36774 47.1884 8.60041 46.9557 8.88229 46.7901C9.16865 46.6201 9.5087 46.5351 9.90244 46.5351C9.99192 46.5351 10.0948 46.5463 10.2112 46.5687C10.3275 46.5866 10.408 46.6067 10.4528 46.6291ZM19.0843 54.0654C18.5787 54.0654 18.1201 53.9804 17.7084 53.8103C17.3013 53.6358 16.95 53.392 16.6547 53.0788C16.3639 52.7656 16.1402 52.3942 15.9836 51.9647C15.827 51.5352 15.7487 51.0653 15.7487 50.5553V50.2734C15.7487 49.6828 15.8359 49.1571 16.0104 48.6962C16.1849 48.2309 16.4221 47.8371 16.7218 47.515C17.0216 47.1928 17.3617 46.949 17.742 46.7834C18.1223 46.6179 18.516 46.5351 18.9232 46.5351C19.4422 46.5351 19.8897 46.6246 20.2655 46.8036C20.6458 46.9825 20.9568 47.2331 21.1984 47.5552C21.44 47.8729 21.619 48.2488 21.7353 48.6828C21.8516 49.1123 21.9098 49.5821 21.9098 50.0922V50.6492H16.4869V49.6358H20.6682V49.5418C20.6503 49.2197 20.5832 48.9065 20.4668 48.6022C20.355 48.298 20.176 48.0474 19.9299 47.8506C19.6838 47.6537 19.3483 47.5552 18.9232 47.5552C18.6413 47.5552 18.3818 47.6156 18.1447 47.7365C17.9075 47.8528 17.704 48.0273 17.5339 48.26C17.3639 48.4926 17.2319 48.7767 17.1379 49.1123C17.044 49.4479 16.997 49.8349 16.997 50.2734V50.5553C16.997 50.8998 17.044 51.2242 17.1379 51.5284C17.2364 51.8282 17.3773 52.0922 17.5608 52.3204C17.7487 52.5486 17.9746 52.7276 18.2386 52.8573C18.5071 52.9871 18.8113 53.0519 19.1514 53.0519C19.5899 53.0519 19.9612 52.9625 20.2655 52.7835C20.5698 52.6045 20.836 52.3651 21.0642 52.0654L21.8159 52.6627C21.6593 52.8998 21.4601 53.1258 21.2185 53.3405C20.9769 53.5553 20.6794 53.7298 20.3259 53.864C19.9769 53.9983 19.563 54.0654 19.0843 54.0654ZM32.1923 52.005C32.1923 51.826 32.1521 51.6604 32.0715 51.5083C31.9955 51.3517 31.8366 51.2108 31.595 51.0855C31.3579 50.9557 30.9999 50.8439 30.5212 50.7499C30.1185 50.6649 29.7538 50.5642 29.4272 50.4479C29.1051 50.3316 28.8299 50.1906 28.6017 50.0251C28.378 49.8595 28.2057 49.6649 28.0849 49.4412C27.9641 49.2175 27.9037 48.9557 27.9037 48.6559C27.9037 48.3696 27.9663 48.0989 28.0916 47.8438C28.2214 47.5888 28.4026 47.3628 28.6353 47.166C28.8724 46.9691 29.1565 46.8147 29.4876 46.7029C29.8187 46.591 30.1878 46.5351 30.595 46.5351C31.1767 46.5351 31.6733 46.638 32.085 46.8438C32.4966 47.0496 32.812 47.3248 33.0313 47.6693C33.2505 48.0094 33.3601 48.3875 33.3601 48.8036H32.1185C32.1185 48.6022 32.0581 48.4076 31.9373 48.2197C31.821 48.0273 31.6487 47.8684 31.4205 47.7432C31.1968 47.6179 30.9216 47.5552 30.595 47.5552C30.2505 47.5552 29.9708 47.6089 29.7561 47.7163C29.5458 47.8192 29.3914 47.9512 29.293 48.1123C29.199 48.2734 29.152 48.4434 29.152 48.6224C29.152 48.7566 29.1744 48.8774 29.2192 48.9848C29.2684 49.0877 29.3534 49.1839 29.4742 49.2734C29.595 49.3584 29.765 49.4389 29.9843 49.515C30.2035 49.5911 30.4831 49.6671 30.8232 49.7432C31.4183 49.8774 31.9082 50.0385 32.293 50.2264C32.6778 50.4143 32.9642 50.6448 33.1521 50.9177C33.34 51.1906 33.434 51.5217 33.434 51.911C33.434 52.2287 33.3668 52.5195 33.2326 52.7835C33.1029 53.0475 32.9127 53.2757 32.6621 53.4681C32.4161 53.656 32.1208 53.8036 31.7762 53.911C31.4362 54.0139 31.0536 54.0654 30.6286 54.0654C29.9887 54.0654 29.4473 53.9513 29.0044 53.7231C28.5614 53.4949 28.2259 53.1996 27.9977 52.8372C27.7695 52.4748 27.6554 52.0922 27.6554 51.6895H28.9037C28.9216 52.0296 29.02 52.3003 29.199 52.5016C29.378 52.6985 29.5972 52.8394 29.8567 52.9244C30.1163 53.005 30.3735 53.0452 30.6286 53.0452C30.9686 53.0452 31.2527 53.0005 31.4809 52.911C31.7136 52.8215 31.8903 52.6985 32.0111 52.5419C32.1319 52.3853 32.1923 52.2063 32.1923 52.005ZM42.6829 54.0654C42.1773 54.0654 41.7187 53.9804 41.3071 53.8103C40.8999 53.6358 40.5487 53.392 40.2534 53.0788C39.9625 52.7656 39.7388 52.3942 39.5822 51.9647C39.4256 51.5352 39.3473 51.0653 39.3473 50.5553V50.2734C39.3473 49.6828 39.4346 49.1571 39.6091 48.6962C39.7836 48.2309 40.0207 47.8371 40.3205 47.515C40.6203 47.1928 40.9603 46.949 41.3406 46.7834C41.7209 46.6179 42.1147 46.5351 42.5218 46.5351C43.0409 46.5351 43.4883 46.6246 43.8641 46.8036C44.2445 46.9825 44.5554 47.2331 44.797 47.5552C45.0387 47.8729 45.2176 48.2488 45.334 48.6828C45.4503 49.1123 45.5085 49.5821 45.5085 50.0922V50.6492H40.0856V49.6358H44.2668V49.5418C44.2489 49.2197 44.1818 48.9065 44.0655 48.6022C43.9536 48.298 43.7747 48.0474 43.5286 47.8506C43.2825 47.6537 42.9469 47.5552 42.5218 47.5552C42.24 47.5552 41.9805 47.6156 41.7433 47.7365C41.5062 47.8528 41.3026 48.0273 41.1326 48.26C40.9625 48.4926 40.8306 48.7767 40.7366 49.1123C40.6426 49.4479 40.5957 49.8349 40.5957 50.2734V50.5553C40.5957 50.8998 40.6426 51.2242 40.7366 51.5284C40.835 51.8282 40.976 52.0922 41.1594 52.3204C41.3473 52.5486 41.5733 52.7276 41.8373 52.8573C42.1057 52.9871 42.41 53.0519 42.75 53.0519C43.1885 53.0519 43.5599 52.9625 43.8641 52.7835C44.1684 52.6045 44.4346 52.3651 44.6628 52.0654L45.4145 52.6627C45.2579 52.8998 45.0588 53.1258 44.8172 53.3405C44.5756 53.5553 44.278 53.7298 43.9245 53.864C43.5755 53.9983 43.1617 54.0654 42.6829 54.0654ZM55.8447 52.6895V48.9512C55.8447 48.6649 55.7865 48.4166 55.6702 48.2063C55.5583 47.9915 55.3883 47.8259 55.1601 47.7096C54.9319 47.5933 54.65 47.5351 54.3145 47.5351C54.0013 47.5351 53.7261 47.5888 53.4889 47.6962C53.2563 47.8036 53.0728 47.9445 52.9386 48.119C52.8088 48.2935 52.744 48.4814 52.744 48.6828H51.5023C51.5023 48.4233 51.5695 48.166 51.7037 47.911C51.8379 47.6559 52.0303 47.4255 52.2809 47.2197C52.5359 47.0094 52.8402 46.8438 53.1936 46.723C53.5516 46.5977 53.9498 46.5351 54.3883 46.5351C54.9163 46.5351 55.3816 46.6246 55.7843 46.8036C56.1914 46.9825 56.5091 47.2532 56.7373 47.6156C56.97 47.9736 57.0863 48.4233 57.0863 48.9647V52.3472C57.0863 52.5889 57.1064 52.8461 57.1467 53.1191C57.1914 53.392 57.2563 53.6269 57.3413 53.8238V53.9312H56.046C55.9834 53.788 55.9342 53.5978 55.8984 53.3607C55.8626 53.1191 55.8447 52.8953 55.8447 52.6895ZM56.0594 49.5284L56.0729 50.4009H54.8178C54.4643 50.4009 54.1489 50.43 53.8715 50.4882C53.5941 50.5419 53.3614 50.6246 53.1735 50.7365C52.9856 50.8483 52.8424 50.9893 52.744 51.1593C52.6455 51.3249 52.5963 51.5195 52.5963 51.7432C52.5963 51.9714 52.6478 52.1795 52.7507 52.3674C52.8536 52.5553 53.008 52.7052 53.2138 52.817C53.4241 52.9244 53.6813 52.9781 53.9856 52.9781C54.3659 52.9781 54.7015 52.8976 54.9923 52.7365C55.2831 52.5754 55.5136 52.3786 55.6836 52.1459C55.8581 51.9132 55.9521 51.6873 55.9655 51.468L56.4957 52.0654C56.4644 52.2533 56.3794 52.4613 56.2407 52.6895C56.1019 52.9177 55.9163 53.137 55.6836 53.3473C55.4554 53.5531 55.1825 53.7253 54.8648 53.864C54.5516 53.9983 54.1981 54.0654 53.8044 54.0654C53.3122 54.0654 52.8804 53.9692 52.5091 53.7768C52.1422 53.5844 51.8558 53.3271 51.65 53.005C51.4487 52.6783 51.348 52.3137 51.348 51.911C51.348 51.5217 51.424 51.1794 51.5762 50.8841C51.7283 50.5844 51.9475 50.336 52.2339 50.1392C52.5203 49.9378 52.8648 49.7857 53.2675 49.6828C53.6702 49.5799 54.1198 49.5284 54.6165 49.5284H56.0594ZM64.8856 47.8103V53.9312H63.644V46.6693H64.852L64.8856 47.8103ZM67.1541 46.6291L67.1473 47.7834C67.0444 47.7611 66.946 47.7476 66.852 47.7432C66.7626 47.7342 66.6596 47.7297 66.5433 47.7297C66.257 47.7297 66.0042 47.7745 65.7849 47.864C65.5657 47.9535 65.38 48.0787 65.2279 48.2398C65.0757 48.4009 64.9549 48.5933 64.8654 48.817C64.7804 49.0362 64.7245 49.2779 64.6977 49.5418L64.3487 49.7432C64.3487 49.3047 64.3912 48.8931 64.4762 48.5083C64.5657 48.1235 64.7021 47.7834 64.8856 47.4881C65.069 47.1884 65.3017 46.9557 65.5836 46.7901C65.8699 46.6201 66.21 46.5351 66.6037 46.5351C66.6932 46.5351 66.7961 46.5463 66.9124 46.5687C67.0288 46.5866 67.1093 46.6067 67.1541 46.6291ZM75.6782 53.0452C75.9735 53.0452 76.2464 52.9848 76.497 52.864C76.7475 52.7432 76.9534 52.5777 77.1144 52.3674C77.2755 52.1526 77.3672 51.9088 77.3896 51.6358H78.5708C78.5485 52.0654 78.403 52.4658 78.1346 52.8372C77.8706 53.2041 77.5238 53.5016 77.0943 53.7298C76.6648 53.9535 76.1927 54.0654 75.6782 54.0654C75.1323 54.0654 74.6558 53.9692 74.2486 53.7768C73.8459 53.5844 73.5104 53.3204 73.2419 52.9848C72.9779 52.6493 72.7788 52.2645 72.6446 51.8305C72.5148 51.392 72.45 50.9289 72.45 50.4412V50.1593C72.45 49.6716 72.5148 49.2107 72.6446 48.7767C72.7788 48.3383 72.9779 47.9512 73.2419 47.6156C73.5104 47.2801 73.8459 47.0161 74.2486 46.8237C74.6558 46.6313 75.1323 46.5351 75.6782 46.5351C76.2464 46.5351 76.7431 46.6514 77.1681 46.8841C77.5932 47.1123 77.9265 47.4255 78.1681 47.8237C78.4142 48.2174 78.5485 48.6649 78.5708 49.166H77.3896C77.3672 48.8662 77.2822 48.5955 77.1346 48.3539C76.9914 48.1123 76.7945 47.9199 76.544 47.7767C76.2979 47.6291 76.0093 47.5552 75.6782 47.5552C75.2979 47.5552 74.9779 47.6313 74.7184 47.7834C74.4634 47.9311 74.2598 48.1324 74.1077 48.3875C73.96 48.638 73.8527 48.9177 73.7855 49.2264C73.7229 49.5307 73.6916 49.8416 73.6916 50.1593V50.4412C73.6916 50.7589 73.7229 51.0721 73.7855 51.3808C73.8482 51.6895 73.9533 51.9692 74.101 52.2197C74.2531 52.4703 74.4567 52.6716 74.7117 52.8238C74.9712 52.9714 75.2934 53.0452 75.6782 53.0452ZM85.813 43.6223V53.9312H84.5714V43.6223H85.813ZM85.5177 50.0251L85.001 50.0049C85.0054 49.5083 85.0793 49.0497 85.2224 48.6291C85.3656 48.204 85.567 47.8349 85.8265 47.5217C86.086 47.2085 86.3947 46.9669 86.7527 46.7968C87.1151 46.6223 87.5155 46.5351 87.954 46.5351C88.312 46.5351 88.6341 46.5843 88.9205 46.6828C89.2068 46.7767 89.4507 46.9288 89.652 47.1391C89.8578 47.3494 90.0144 47.6224 90.1218 47.9579C90.2292 48.289 90.2829 48.694 90.2829 49.1727V53.9312H89.0346V49.1593C89.0346 48.779 88.9786 48.4747 88.8668 48.2465C88.7549 48.0139 88.5916 47.8461 88.3768 47.7432C88.1621 47.6358 87.8981 47.5821 87.5849 47.5821C87.2762 47.5821 86.9943 47.647 86.7392 47.7767C86.4887 47.9065 86.2717 48.0855 86.0882 48.3136C85.9092 48.5418 85.7683 48.8036 85.6654 49.0989C85.567 49.3897 85.5177 49.6984 85.5177 50.0251ZM104.754 43.6223H106.002V52.5217L105.895 53.9312H104.754V43.6223ZM110.908 50.2398V50.3808C110.908 50.9087 110.846 51.3987 110.72 51.8506C110.595 52.298 110.412 52.6873 110.17 53.0184C109.928 53.3495 109.633 53.6068 109.284 53.7902C108.935 53.9737 108.535 54.0654 108.083 54.0654C107.622 54.0654 107.217 53.9871 106.868 53.8305C106.524 53.6694 106.233 53.439 105.996 53.1392C105.758 52.8394 105.568 52.477 105.425 52.0519C105.286 51.6269 105.19 51.1481 105.136 50.6157V49.9982C105.19 49.4613 105.286 48.9803 105.425 48.5553C105.568 48.1302 105.758 47.7678 105.996 47.468C106.233 47.1637 106.524 46.9333 106.868 46.7767C107.213 46.6156 107.613 46.5351 108.069 46.5351C108.526 46.5351 108.931 46.6246 109.284 46.8036C109.638 46.9781 109.933 47.2286 110.17 47.5552C110.412 47.8819 110.595 48.2734 110.72 48.7298C110.846 49.1817 110.908 49.685 110.908 50.2398ZM109.66 50.3808V50.2398C109.66 49.8774 109.626 49.5374 109.559 49.2197C109.492 48.8975 109.385 48.6157 109.237 48.374C109.09 48.128 108.895 47.9356 108.653 47.7969C108.412 47.6537 108.114 47.5821 107.761 47.5821C107.447 47.5821 107.175 47.6358 106.942 47.7432C106.714 47.8506 106.519 47.996 106.358 48.1794C106.197 48.3584 106.065 48.5642 105.962 48.7969C105.864 49.0251 105.79 49.2622 105.741 49.5083V51.1258C105.812 51.439 105.928 51.741 106.09 52.0318C106.255 52.3182 106.474 52.5531 106.747 52.7365C107.025 52.92 107.367 53.0117 107.774 53.0117C108.11 53.0117 108.396 52.9446 108.633 52.8103C108.875 52.6716 109.069 52.4815 109.217 52.2399C109.369 51.9982 109.481 51.7186 109.553 51.4009C109.624 51.0832 109.66 50.7432 109.66 50.3808ZM121.526 52.2533V46.6693H122.775V53.9312H121.587L121.526 52.2533ZM121.761 50.7231L122.278 50.7096C122.278 51.1929 122.227 51.6403 122.124 52.0519C122.025 52.4591 121.864 52.8126 121.641 53.1124C121.417 53.4121 121.124 53.647 120.761 53.8171C120.399 53.9826 119.958 54.0654 119.439 54.0654C119.086 54.0654 118.761 54.0139 118.466 53.911C118.175 53.8081 117.925 53.6493 117.714 53.4345C117.504 53.2197 117.341 52.9401 117.224 52.5956C117.113 52.251 117.057 51.8372 117.057 51.3539V46.6693H118.298V51.3674C118.298 51.694 118.334 51.9647 118.406 52.1795C118.482 52.3897 118.582 52.5575 118.708 52.6828C118.837 52.8036 118.981 52.8886 119.137 52.9379C119.298 52.9871 119.464 53.0117 119.634 53.0117C120.162 53.0117 120.58 52.911 120.889 52.7097C121.198 52.5038 121.419 52.2287 121.553 51.8842C121.692 51.5352 121.761 51.1481 121.761 50.7231ZM130.514 47.8103V53.9312H129.272V46.6693H130.48L130.514 47.8103ZM132.782 46.6291L132.775 47.7834C132.673 47.7611 132.574 47.7476 132.48 47.7432C132.391 47.7342 132.288 47.7297 132.171 47.7297C131.885 47.7297 131.632 47.7745 131.413 47.864C131.194 47.9535 131.008 48.0787 130.856 48.2398C130.704 48.4009 130.583 48.5933 130.494 48.817C130.409 49.0362 130.353 49.2779 130.326 49.5418L129.977 49.7432C129.977 49.3047 130.019 48.8931 130.104 48.5083C130.194 48.1235 130.33 47.7834 130.514 47.4881C130.697 47.1884 130.93 46.9557 131.212 46.7901C131.498 46.6201 131.838 46.5351 132.232 46.5351C132.321 46.5351 132.424 46.5463 132.541 46.5687C132.657 46.5866 132.737 46.6067 132.782 46.6291ZM141.414 54.0654C140.908 54.0654 140.449 53.9804 140.038 53.8103C139.631 53.6358 139.279 53.392 138.984 53.0788C138.693 52.7656 138.47 52.3942 138.313 51.9647C138.156 51.5352 138.078 51.0653 138.078 50.5553V50.2734C138.078 49.6828 138.165 49.1571 138.34 48.6962C138.514 48.2309 138.751 47.8371 139.051 47.515C139.351 47.1928 139.691 46.949 140.071 46.7834C140.452 46.6179 140.845 46.5351 141.253 46.5351C141.772 46.5351 142.219 46.6246 142.595 46.8036C142.975 46.9825 143.286 47.2331 143.528 47.5552C143.769 47.8729 143.948 48.2488 144.065 48.6828C144.181 49.1123 144.239 49.5821 144.239 50.0922V50.6492H138.816V49.6358H142.998V49.5418C142.98 49.2197 142.913 48.9065 142.796 48.6022C142.684 48.298 142.505 48.0474 142.259 47.8506C142.013 47.6537 141.678 47.5552 141.253 47.5552C140.971 47.5552 140.711 47.6156 140.474 47.7365C140.237 47.8528 140.033 48.0273 139.863 48.26C139.693 48.4926 139.561 48.7767 139.467 49.1123C139.373 49.4479 139.326 49.8349 139.326 50.2734V50.5553C139.326 50.8998 139.373 51.2242 139.467 51.5284C139.566 51.8282 139.707 52.0922 139.89 52.3204C140.078 52.5486 140.304 52.7276 140.568 52.8573C140.836 52.9871 141.141 53.0519 141.481 53.0519C141.919 53.0519 142.291 52.9625 142.595 52.7835C142.899 52.6045 143.165 52.3651 143.394 52.0654L144.145 52.6627C143.989 52.8998 143.79 53.1258 143.548 53.3405C143.306 53.5553 143.009 53.7298 142.655 53.864C142.306 53.9983 141.892 54.0654 141.414 54.0654ZM154.575 52.6895V48.9512C154.575 48.6649 154.517 48.4166 154.401 48.2063C154.289 47.9915 154.119 47.8259 153.891 47.7096C153.663 47.5933 153.381 47.5351 153.045 47.5351C152.732 47.5351 152.457 47.5888 152.22 47.6962C151.987 47.8036 151.804 47.9445 151.669 48.119C151.54 48.2935 151.475 48.4814 151.475 48.6828H150.233C150.233 48.4233 150.3 48.166 150.434 47.911C150.569 47.6559 150.761 47.4255 151.012 47.2197C151.267 47.0094 151.571 46.8438 151.924 46.723C152.282 46.5977 152.681 46.5351 153.119 46.5351C153.647 46.5351 154.112 46.6246 154.515 46.8036C154.922 46.9825 155.24 47.2532 155.468 47.6156C155.701 47.9736 155.817 48.4233 155.817 48.9647V52.3472C155.817 52.5889 155.837 52.8461 155.877 53.1191C155.922 53.392 155.987 53.6269 156.072 53.8238V53.9312H154.777C154.714 53.788 154.665 53.5978 154.629 53.3607C154.593 53.1191 154.575 52.8953 154.575 52.6895ZM154.79 49.5284L154.804 50.4009H153.549C153.195 50.4009 152.88 50.43 152.602 50.4882C152.325 50.5419 152.092 50.6246 151.904 50.7365C151.716 50.8483 151.573 50.9893 151.475 51.1593C151.376 51.3249 151.327 51.5195 151.327 51.7432C151.327 51.9714 151.378 52.1795 151.481 52.3674C151.584 52.5553 151.739 52.7052 151.944 52.817C152.155 52.9244 152.412 52.9781 152.716 52.9781C153.097 52.9781 153.432 52.8976 153.723 52.7365C154.014 52.5754 154.244 52.3786 154.414 52.1459C154.589 51.9132 154.683 51.6873 154.696 51.468L155.226 52.0654C155.195 52.2533 155.11 52.4613 154.971 52.6895C154.833 52.9177 154.647 53.137 154.414 53.3473C154.186 53.5531 153.913 53.7253 153.596 53.864C153.282 53.9983 152.929 54.0654 152.535 54.0654C152.043 54.0654 151.611 53.9692 151.24 53.7768C150.873 53.5844 150.587 53.3271 150.381 53.005C150.179 52.6783 150.079 52.3137 150.079 51.911C150.079 51.5217 150.155 51.1794 150.307 50.8841C150.459 50.5844 150.678 50.336 150.965 50.1392C151.251 49.9378 151.595 49.7857 151.998 49.6828C152.401 49.5799 152.851 49.5284 153.347 49.5284H154.79ZM166.818 52.2533V46.6693H168.066V53.9312H166.878L166.818 52.2533ZM167.053 50.7231L167.569 50.7096C167.569 51.1929 167.518 51.6403 167.415 52.0519C167.317 52.4591 167.155 52.8126 166.932 53.1124C166.708 53.4121 166.415 53.647 166.053 53.8171C165.69 53.9826 165.249 54.0654 164.73 54.0654C164.377 54.0654 164.053 54.0139 163.757 53.911C163.466 53.8081 163.216 53.6493 163.006 53.4345C162.795 53.2197 162.632 52.9401 162.516 52.5956C162.404 52.251 162.348 51.8372 162.348 51.3539V46.6693H163.589V51.3674C163.589 51.694 163.625 51.9647 163.697 52.1795C163.773 52.3897 163.874 52.5575 163.999 52.6828C164.129 52.8036 164.272 52.8886 164.428 52.9379C164.589 52.9871 164.755 53.0117 164.925 53.0117C165.453 53.0117 165.871 52.911 166.18 52.7097C166.489 52.5038 166.71 52.2287 166.845 51.8842C166.983 51.5352 167.053 51.1481 167.053 50.7231Z" fill="#C0C0C0"/>
</svg>
