<svg width="1401" height="290" viewBox="0 0 1401 290" fill="none" xmlns="http://www.w3.org/2000/svg">
<rect width="1401" height="290" rx="30" fill="#E6F6FF"/>
<g opacity="0.59">
<g filter="url(#filter0_f_2008_100)">
<path d="M593.212 -67.3119C465.507 -108.094 240.055 -70.8177 143.292 -47.0819C98.2064 -38.7559 2.26798 -11.0377 -20.8027 33.2277C-49.641 88.5594 78.0793 203.538 186.24 270.446C294.402 337.354 513.893 275.03 632.116 255.432C750.34 235.835 939.466 231.143 1072.92 308.466C1206.37 385.789 1323.8 168.765 1312.47 38.7183C1301.14 -91.3283 1125.15 -135.094 1045.06 -133.154C964.965 -131.215 752.843 -16.3343 593.212 -67.3119Z" fill="url(#paint0_linear_2008_100)"/>
<path d="M593.212 -67.3119C465.507 -108.094 240.055 -70.8177 143.292 -47.0819C98.2064 -38.7559 2.26798 -11.0377 -20.8027 33.2277C-49.641 88.5594 78.0793 203.538 186.24 270.446C294.402 337.354 513.893 275.03 632.116 255.432C750.34 235.835 939.466 231.143 1072.92 308.466C1206.37 385.789 1323.8 168.765 1312.47 38.7183C1301.14 -91.3283 1125.15 -135.094 1045.06 -133.154C964.965 -131.215 752.843 -16.3343 593.212 -67.3119Z" fill="url(#paint1_linear_2008_100)"/>
</g>
<g opacity="0.5" filter="url(#filter1_f_2008_100)">
<path d="M607.983 -18.9151C504.01 -52.1425 320.462 -21.7965 241.684 -2.47006C204.979 4.30835 126.873 26.8786 108.094 62.9322C84.619 107.999 188.61 201.661 276.674 256.168C364.738 310.674 543.431 259.925 639.68 243.971C735.93 228.017 930.931 324.442 1039.59 387.434C1148.24 450.425 1202.81 173.429 1193.57 67.5018C1184.34 -38.4254 1041.05 -74.0867 975.845 -72.5126C910.639 -70.9384 737.949 22.6191 607.983 -18.9151Z" fill="url(#paint2_linear_2008_100)"/>
<path d="M607.983 -18.9151C504.01 -52.1425 320.462 -21.7965 241.684 -2.47006C204.979 4.30835 126.873 26.8786 108.094 62.9322C84.619 107.999 188.61 201.661 276.674 256.168C364.738 310.674 543.431 259.925 639.68 243.971C735.93 228.017 930.931 324.442 1039.59 387.434C1148.24 450.425 1202.81 173.429 1193.57 67.5018C1184.34 -38.4254 1041.05 -74.0867 975.845 -72.5126C910.639 -70.9384 737.949 22.6191 607.983 -18.9151Z" fill="url(#paint3_linear_2008_100)"/>
</g>
<g filter="url(#filter2_f_2008_100)">
<path d="M291 -4.27801C165.906 -46.7579 75.4544 24.987 45.8654 66.1694C29.2611 64.649 -4.00082 84.8055 -4.21481 177.595C-4.48229 293.582 257.922 242.782 306.861 229.353C355.8 215.924 400.218 87.0987 446.775 119.489C493.332 151.88 606.463 160.265 658.892 150.583C711.322 140.901 737.377 147.507 901.561 212.631C1065.75 277.755 1225.72 189.366 1279.6 172.389C1333.48 155.412 1273.09 -10.5639 1133.33 -32.4755C993.565 -54.387 856.018 55.0394 779.244 80.6354C702.471 106.231 584.439 25.8508 512.151 32.1737C439.863 38.4966 447.367 48.8218 291 -4.27801Z" fill="url(#paint4_linear_2008_100)"/>
</g>
<g filter="url(#filter3_f_2008_100)">
<path d="M291 -4.27801C165.906 -46.7579 75.4544 24.987 45.8654 66.1694C29.2611 64.649 -4.00082 84.8055 -4.21481 177.595C-4.48229 293.582 257.922 242.782 306.861 229.353C355.8 215.924 400.218 87.0987 446.775 119.489C493.332 151.88 606.463 160.265 658.892 150.583C711.322 140.901 737.377 147.507 901.561 212.631C1065.75 277.755 1225.72 189.366 1279.6 172.389C1333.48 155.412 1273.09 -10.5639 1133.33 -32.4755C993.565 -54.387 856.018 55.0394 779.244 80.6354C702.471 106.231 584.439 25.8508 512.151 32.1737C439.863 38.4966 447.367 48.8218 291 -4.27801Z" fill="url(#paint5_linear_2008_100)"/>
</g>
<g filter="url(#filter4_f_2008_100)">
<path d="M291 -4.27801C165.906 -46.7579 75.4544 24.987 45.8654 66.1694C29.2611 64.649 -4.00082 84.8055 -4.21481 177.595C-4.48229 293.582 257.922 242.782 306.861 229.353C355.8 215.924 400.218 87.0987 446.775 119.489C493.332 151.88 606.463 160.265 658.892 150.583C711.322 140.901 737.377 147.507 901.561 212.631C1065.75 277.755 1225.72 189.366 1279.6 172.389C1333.48 155.412 1273.09 -10.5639 1133.33 -32.4755C993.565 -54.387 856.018 55.0394 779.244 80.6354C702.471 106.231 584.439 25.8508 512.151 32.1737C439.863 38.4966 447.367 48.8218 291 -4.27801Z" fill="url(#paint6_linear_2008_100)"/>
</g>
</g>
<defs>
<filter id="filter0_f_2008_100" x="-178.755" y="-287.034" width="1645.8" height="765.55" filterUnits="userSpaceOnUse" color-interpolation-filters="sRGB">
<feFlood flood-opacity="0" result="BackgroundImageFix"/>
<feBlend mode="normal" in="SourceGraphic" in2="BackgroundImageFix" result="shape"/>
<feGaussianBlur stdDeviation="76.909" result="effect1_foregroundBlur_2008_100"/>
</filter>
<filter id="filter1_f_2008_100" x="-49.0885" y="-226.38" width="1397.48" height="776.841" filterUnits="userSpaceOnUse" color-interpolation-filters="sRGB">
<feFlood flood-opacity="0" result="BackgroundImageFix"/>
<feBlend mode="normal" in="SourceGraphic" in2="BackgroundImageFix" result="shape"/>
<feGaussianBlur stdDeviation="76.909" result="effect1_foregroundBlur_2008_100"/>
</filter>
<filter id="filter2_f_2008_100" x="-158.033" y="-189.175" width="1610.99" height="594.999" filterUnits="userSpaceOnUse" color-interpolation-filters="sRGB">
<feFlood flood-opacity="0" result="BackgroundImageFix"/>
<feBlend mode="normal" in="SourceGraphic" in2="BackgroundImageFix" result="shape"/>
<feGaussianBlur stdDeviation="76.909" result="effect1_foregroundBlur_2008_100"/>
</filter>
<filter id="filter3_f_2008_100" x="-158.033" y="-189.175" width="1610.99" height="594.999" filterUnits="userSpaceOnUse" color-interpolation-filters="sRGB">
<feFlood flood-opacity="0" result="BackgroundImageFix"/>
<feBlend mode="normal" in="SourceGraphic" in2="BackgroundImageFix" result="shape"/>
<feGaussianBlur stdDeviation="76.909" result="effect1_foregroundBlur_2008_100"/>
</filter>
<filter id="filter4_f_2008_100" x="-158.033" y="-189.175" width="1610.99" height="594.999" filterUnits="userSpaceOnUse" color-interpolation-filters="sRGB">
<feFlood flood-opacity="0" result="BackgroundImageFix"/>
<feBlend mode="normal" in="SourceGraphic" in2="BackgroundImageFix" result="shape"/>
<feGaussianBlur stdDeviation="76.909" result="effect1_foregroundBlur_2008_100"/>
</filter>
<linearGradient id="paint0_linear_2008_100" x1="407.868" y1="-73.1863" x2="711.669" y2="493.341" gradientUnits="userSpaceOnUse">
<stop stop-color="#5B69FD"/>
<stop offset="0.244264" stop-color="#5282FF" stop-opacity="0.88"/>
<stop offset="1" stop-color="#33D8FC" stop-opacity="0.22"/>
</linearGradient>
<linearGradient id="paint1_linear_2008_100" x1="201.256" y1="-133.238" x2="317.731" y2="200.047" gradientUnits="userSpaceOnUse">
<stop stop-color="#8EF8FF"/>
<stop offset="1" stop-color="#8EF8FF" stop-opacity="0"/>
</linearGradient>
<linearGradient id="paint2_linear_2008_100" x1="783.705" y1="23.1742" x2="788.114" y2="461.357" gradientUnits="userSpaceOnUse">
<stop stop-color="#2356F5" stop-opacity="0.51"/>
<stop offset="1" stop-color="white" stop-opacity="0.14"/>
</linearGradient>
<linearGradient id="paint3_linear_2008_100" x1="280.504" y1="27.0878" x2="691.707" y2="335.69" gradientUnits="userSpaceOnUse">
<stop stop-color="#4BF4FF"/>
<stop offset="1" stop-color="#4BF4FF" stop-opacity="0"/>
</linearGradient>
<linearGradient id="paint4_linear_2008_100" x1="1102.86" y1="101.448" x2="701.866" y2="350.836" gradientUnits="userSpaceOnUse">
<stop stop-color="white"/>
<stop offset="1" stop-color="white" stop-opacity="0"/>
</linearGradient>
<linearGradient id="paint5_linear_2008_100" x1="209.744" y1="21.3292" x2="1101.63" y2="347.806" gradientUnits="userSpaceOnUse">
<stop offset="0.27244" stop-color="#C0F0FF"/>
<stop offset="1" stop-color="white" stop-opacity="0"/>
</linearGradient>
<linearGradient id="paint6_linear_2008_100" x1="429.112" y1="41.6973" x2="502.743" y2="269.28" gradientUnits="userSpaceOnUse">
<stop stop-color="#C8E2FF"/>
<stop offset="0.954181" stop-color="white" stop-opacity="0"/>
</linearGradient>
</defs>
</svg>
