<svg width="1400" height="400" viewBox="0 0 1400 400" fill="none" xmlns="http://www.w3.org/2000/svg">
<rect width="1400" height="400" rx="20" fill="#F4F4F4"/>
<g opacity="0.25">
<g filter="url(#filter0_f_2008_93)">
<path d="M639.767 -11.1695C501.141 -37.8306 298.713 50.7281 214.827 98.34C174.684 117.132 93.1329 169.532 88.0788 228.8C81.7613 302.886 249.127 421.634 379.069 484.388C509.012 547.142 696.008 428.613 802.139 382.112C908.27 335.61 1088.37 294.309 1246.67 365.246C1404.97 436.182 1433.91 144.79 1372.66 -14.4943C1311.42 -173.778 1125.19 -195.085 1048.9 -177.653C972.612 -160.221 813.05 22.157 639.767 -11.1695Z" fill="url(#paint0_linear_2008_93)"/>
<path d="M639.767 -11.1695C501.141 -37.8306 298.713 50.7281 214.827 98.34C174.684 117.132 93.1329 169.532 88.0788 228.8C81.7613 302.886 249.127 421.634 379.069 484.388C509.012 547.142 696.008 428.613 802.139 382.112C908.27 335.61 1088.37 294.309 1246.67 365.246C1404.97 436.182 1433.91 144.79 1372.66 -14.4943C1311.42 -173.778 1125.19 -195.085 1048.9 -177.653C972.612 -160.221 813.05 22.157 639.767 -11.1695Z" fill="url(#paint1_linear_2008_93)"/>
</g>
<g opacity="0.5" filter="url(#filter1_f_2008_93)">
<path d="M672.711 46.1281C559.837 24.3917 395.033 96.488 326.741 135.253C294.059 150.552 227.668 193.217 223.562 241.489C218.43 301.828 354.719 398.571 460.528 449.702C566.337 500.834 718.572 404.325 804.977 366.468C891.382 328.611 1116.28 411.71 1245.18 469.511C1374.08 527.311 1319.33 173.276 1269.44 43.5353C1219.55 -86.2059 1067.91 -103.588 1005.8 -89.4027C943.692 -75.2169 813.804 73.2986 672.711 46.1281Z" fill="url(#paint2_linear_2008_93)"/>
<path d="M672.711 46.1281C559.837 24.3917 395.033 96.488 326.741 135.253C294.059 150.552 227.668 193.217 223.562 241.489C218.43 301.828 354.719 398.571 460.528 449.702C566.337 500.834 718.572 404.325 804.977 366.468C891.382 328.611 1116.28 411.71 1245.18 469.511C1374.08 527.311 1319.33 173.276 1269.44 43.5353C1219.55 -86.2059 1067.91 -103.588 1005.8 -89.4027C943.692 -75.2169 813.804 73.2986 672.711 46.1281Z" fill="url(#paint3_linear_2008_93)"/>
</g>
<g filter="url(#filter2_f_2008_93)">
<path d="M373.476 123.758C236.704 94.5001 177.476 200.515 164.958 257.18C148.398 258.408 124.208 289.665 159.925 404.873C204.572 548.882 437.308 436.606 479.182 410.758C521.057 384.91 513.908 216.684 571.231 248.152C628.553 279.62 740.618 268.806 787.301 246.953C833.983 225.101 861.603 228.413 1044.74 278.443C1227.88 328.473 1347.54 188.759 1392.79 157.58C1438.04 126.402 1315.7 -68.2749 1172.78 -69.2523C1029.86 -70.2298 939.924 91.3891 875.986 137.56C812.048 183.731 667.396 106.107 600.311 127.515C533.226 148.923 544.441 160.331 373.476 123.758Z" fill="url(#paint4_linear_2008_93)"/>
</g>
<g filter="url(#filter3_f_2008_93)">
<path d="M373.476 123.758C236.704 94.5001 177.476 200.515 164.958 257.18C148.398 258.408 124.208 289.665 159.925 404.873C204.572 548.882 437.308 436.606 479.182 410.758C521.057 384.91 513.908 216.684 571.231 248.152C628.553 279.62 740.618 268.806 787.301 246.953C833.983 225.101 861.603 228.413 1044.74 278.443C1227.88 328.473 1347.54 188.759 1392.79 157.58C1438.04 126.402 1315.7 -68.2749 1172.78 -69.2523C1029.86 -70.2298 939.924 91.3891 875.986 137.56C812.048 183.731 667.396 106.107 600.311 127.515C533.226 148.923 544.441 160.331 373.476 123.758Z" fill="url(#paint5_linear_2008_93)"/>
</g>
<g filter="url(#filter4_f_2008_93)">
<path d="M373.476 123.758C236.704 94.5001 177.476 200.515 164.958 257.18C148.398 258.408 124.208 289.665 159.925 404.873C204.572 548.882 437.308 436.606 479.182 410.758C521.057 384.91 513.908 216.684 571.231 248.152C628.553 279.62 740.618 268.806 787.301 246.953C833.983 225.101 861.603 228.413 1044.74 278.443C1227.88 328.473 1347.54 188.759 1392.79 157.58C1438.04 126.402 1315.7 -68.2749 1172.78 -69.2523C1029.86 -70.2298 939.924 91.3891 875.986 137.56C812.048 183.731 667.396 106.107 600.311 127.515C533.226 148.923 544.441 160.331 373.476 123.758Z" fill="url(#paint6_linear_2008_93)"/>
</g>
</g>
<defs>
<filter id="filter0_f_2008_93" x="-65.9127" y="-336.541" width="1622.2" height="992.673" filterUnits="userSpaceOnUse" color-interpolation-filters="sRGB">
<feFlood flood-opacity="0" result="BackgroundImageFix"/>
<feBlend mode="normal" in="SourceGraphic" in2="BackgroundImageFix" result="shape"/>
<feGaussianBlur stdDeviation="76.909" result="effect1_foregroundBlur_2008_93"/>
</filter>
<filter id="filter1_f_2008_93" x="69.6029" y="-247.342" width="1409.05" height="876.995" filterUnits="userSpaceOnUse" color-interpolation-filters="sRGB">
<feFlood flood-opacity="0" result="BackgroundImageFix"/>
<feBlend mode="normal" in="SourceGraphic" in2="BackgroundImageFix" result="shape"/>
<feGaussianBlur stdDeviation="76.909" result="effect1_foregroundBlur_2008_93"/>
</filter>
<filter id="filter2_f_2008_93" x="-12.3649" y="-223.075" width="1568.54" height="853.729" filterUnits="userSpaceOnUse" color-interpolation-filters="sRGB">
<feFlood flood-opacity="0" result="BackgroundImageFix"/>
<feBlend mode="normal" in="SourceGraphic" in2="BackgroundImageFix" result="shape"/>
<feGaussianBlur stdDeviation="76.909" result="effect1_foregroundBlur_2008_93"/>
</filter>
<filter id="filter3_f_2008_93" x="-12.3649" y="-223.075" width="1568.54" height="853.729" filterUnits="userSpaceOnUse" color-interpolation-filters="sRGB">
<feFlood flood-opacity="0" result="BackgroundImageFix"/>
<feBlend mode="normal" in="SourceGraphic" in2="BackgroundImageFix" result="shape"/>
<feGaussianBlur stdDeviation="76.909" result="effect1_foregroundBlur_2008_93"/>
</filter>
<filter id="filter4_f_2008_93" x="-12.3649" y="-223.075" width="1568.54" height="853.729" filterUnits="userSpaceOnUse" color-interpolation-filters="sRGB">
<feFlood flood-opacity="0" result="BackgroundImageFix"/>
<feBlend mode="normal" in="SourceGraphic" in2="BackgroundImageFix" result="shape"/>
<feGaussianBlur stdDeviation="76.909" result="effect1_foregroundBlur_2008_93"/>
</filter>
<linearGradient id="paint0_linear_2008_93" x1="459.213" y1="16.3081" x2="1066.99" y2="553.635" gradientUnits="userSpaceOnUse">
<stop stop-color="#5B69FD"/>
<stop offset="0.244264" stop-color="#5282FF" stop-opacity="0.88"/>
<stop offset="1" stop-color="#33D8FC" stop-opacity="0.22"/>
</linearGradient>
<linearGradient id="paint1_linear_2008_93" x1="237.227" y1="-19.4673" x2="512.452" y2="346.668" gradientUnits="userSpaceOnUse">
<stop stop-color="#8EF8FF"/>
<stop offset="1" stop-color="#8EF8FF" stop-opacity="0"/>
</linearGradient>
<linearGradient id="paint2_linear_2008_93" x1="858.031" y1="65.4042" x2="973.971" y2="620.537" gradientUnits="userSpaceOnUse">
<stop stop-color="#2356F5" stop-opacity="0.51"/>
<stop offset="1" stop-color="white" stop-opacity="0.14"/>
</linearGradient>
<linearGradient id="paint3_linear_2008_93" x1="375.524" y1="164.657" x2="931.975" y2="299.44" gradientUnits="userSpaceOnUse">
<stop stop-color="#4BF4FF"/>
<stop offset="1" stop-color="#4BF4FF" stop-opacity="0"/>
</linearGradient>
<linearGradient id="paint4_linear_2008_93" x1="1195.32" y1="102.685" x2="841.048" y2="413.128" gradientUnits="userSpaceOnUse">
<stop stop-color="white"/>
<stop offset="1" stop-color="white" stop-opacity="0"/>
</linearGradient>
<linearGradient id="paint5_linear_2008_93" x1="305.231" y1="170.784" x2="1282.45" y2="144.636" gradientUnits="userSpaceOnUse">
<stop offset="0.27244" stop-color="#C0F0FF"/>
<stop offset="1" stop-color="white" stop-opacity="0"/>
</linearGradient>
<linearGradient id="paint6_linear_2008_93" x1="524.124" y1="154.913" x2="703.28" y2="409.327" gradientUnits="userSpaceOnUse">
<stop stop-color="#C8E2FF"/>
<stop offset="0.954181" stop-color="white" stop-opacity="0"/>
</linearGradient>
</defs>
</svg>
